<svg xmlns="http://www.w3.org/2000/svg" xmlns:xlink="http://www.w3.org/1999/xlink" width="1240.678" height="1119.747" viewBox="0 0 1240.678 1119.747">
  <defs>
    <linearGradient id="linear-gradient" x1="0.487" y1="0.268" x2="0.5" y2="1" gradientUnits="objectBoundingBox">
      <stop offset="0" stop-color="#8f1eff" stop-opacity="0"/>
      <stop offset="0.531" stop-color="#f01dff" stop-opacity="0.122"/>
      <stop offset="1" stop-color="#ff00f7" stop-opacity="0.239"/>
    </linearGradient>
    <linearGradient id="linear-gradient-2" x1="0.487" y1="0.268" x2="0.5" y2="1" gradientUnits="objectBoundingBox">
      <stop offset="0" stop-color="#8f1eff" stop-opacity="0"/>
      <stop offset="1" stop-color="#f01dff" stop-opacity="0.122"/>
      <stop offset="1" stop-color="#ff00f7" stop-opacity="0.239"/>
    </linearGradient>
  </defs>
  <g id="Group_10" data-name="Group 10" transform="translate(-671.864)">
    <g id="Illustration" transform="translate(1154 171.923)">
      <rect id="Rectangle_2" data-name="Rectangle 2" width="98" height="967" rx="49" transform="matrix(0.695, 0.719, -0.719, 0.695, 690.466, 155.594)" fill="url(#linear-gradient)"/>
      <g id="Group_9" data-name="Group 9" transform="translate(-170 -40)">
        <g id="Group_2" data-name="Group 2" transform="translate(594.242 605.156)" opacity="0.3">
          <path id="Path_1" data-name="Path 1" d="M621.828,558.074V547.806l-2.818-1.582c-.8,4.837-6.507,8.046-11.3,8.71l-32.463,19-14.159,5.111L515.847,555.69l1.053-.6c-3.871-1.811-5.956-5.937-8.041-9.719l-3.047,1.811-1.81.527v10.521a6.879,6.879,0,0,0,3.986,5.57l45.384,26.175a21.383,21.383,0,0,0,19.244,0L617.932,563.8a6.877,6.877,0,0,0,3.964-5.455,1.182,1.182,0,0,0,0-.275Z" transform="translate(-504.002 -513.774)" fill="#df00ff" opacity="0.3"/>
          <path id="Path_2" data-name="Path 2" d="M598.766,554.784l-32.463,19-12.326,4.447v13.889a19.634,19.634,0,0,0,9.622-2.292l45.316-26.175a6.877,6.877,0,0,0,3.964-5.455,1.078,1.078,0,0,0,0-.275V547.656l-2.589-1.444h-.275C609.145,550.979,603.509,554.028,598.766,554.784Z" transform="translate(-495.054 -513.624)" fill="#df00ff" opacity="0.3"/>
          <path id="Path_3" data-name="Path 3" d="M553.363,584.327l-45.316-26.176c-5.315-3.048-5.315-8.045,0-11.116l45.316-26.176a21.392,21.392,0,0,1,19.244,0l45.316,26.176c5.292,3.071,5.292,8.068,0,11.116l-45.316,26.176a21.256,21.256,0,0,1-19.244,0Z" transform="translate(-503.991 -518.573)" fill="#df00ff" opacity="0.3"/>
          <g id="Group_1" data-name="Group 1" transform="translate(0.07)" opacity="0.3">
            <path id="Path_4" data-name="Path 4" d="M553.363,584.327l-45.316-26.176c-5.315-3.048-5.315-8.045,0-11.116l45.316-26.176a21.392,21.392,0,0,1,19.244,0l45.316,26.176c5.292,3.071,5.292,8.068,0,11.116l-45.316,26.176a21.256,21.256,0,0,1-19.244,0Z" transform="translate(-504.061 -518.573)" fill="#df00ff" opacity="0.3"/>
          </g>
        </g>
        <path id="Path_5" data-name="Path 5" d="M562.712,556.428a17.6,17.6,0,0,1-8.545-2.04l-45.315-26.176a5.478,5.478,0,0,1,0-10.337L554.168,491.7a18.96,18.96,0,0,1,17.068,0l45.338,26.176a5.478,5.478,0,0,1,0,10.337l-45.316,26.176A17.6,17.6,0,0,1,562.712,556.428Zm0-65.966a16.823,16.823,0,0,0-8.155,1.925l-45.315,26.176a4.722,4.722,0,0,0,0,8.962L554.557,553.7a18.039,18.039,0,0,0,16.289,0l45.316-26.221a4.722,4.722,0,0,0,0-8.962l-45.316-26.176A16.793,16.793,0,0,0,562.712,490.461Z" transform="translate(90.453 81.408)" fill="#df00ff"/>
        <path id="Path_6" data-name="Path 6" d="M621.828,512.176V496.659l-2.818-1.581c-.8,4.859-6.507,8.045-11.3,8.71l-32.463,19L561.093,527.9l-45.246-23.357,1.053-.6c-3.871-1.811-5.956-5.936-8.041-9.719l-3.047,1.811-1.81.527v15.77a6.879,6.879,0,0,0,3.986,5.57l45.384,26.175a21.245,21.245,0,0,0,19.244,0l45.315-26.175a6.876,6.876,0,0,0,3.964-5.455,1.182,1.182,0,0,0,0-.275Z" transform="translate(90.24 82.224)" fill="#df00ff" opacity="0.4"/>
        <path id="Path_7" data-name="Path 7" d="M621.828,499.676V489.408l-2.818-1.582c-.8,4.86-6.507,8.046-11.3,8.711l-32.463,19-14.159,5.111-45.246-23.356,1.053-.6c-3.871-1.811-5.956-5.937-8.041-9.719l-3.047,1.833-1.81.5v10.521a6.879,6.879,0,0,0,3.986,5.57l45.384,26.175a21.245,21.245,0,0,0,19.244,0l45.315-26.175a6.877,6.877,0,0,0,3.964-5.456,1.182,1.182,0,0,0,0-.275Z" transform="translate(90.24 80.926)" fill="#df00ff"/>
        <path id="Path_8" data-name="Path 8" d="M598.766,496.386l-32.463,19-12.326,4.446v13.89a19.659,19.659,0,0,0,9.622-2.292l45.316-26.176a6.873,6.873,0,0,0,3.964-5.454,1.086,1.086,0,0,0,0-.276V489.257l-2.589-1.444h-.275C609.145,492.581,603.509,495.721,598.766,496.386Z" transform="translate(99.188 81.075)" fill="#df00ff" opacity="0.3"/>
        <path id="Path_9" data-name="Path 9" d="M553.363,525.881l-45.316-26.175c-5.315-3.071-5.315-8.068,0-11.117l45.316-26.107a21.256,21.256,0,0,1,19.244,0l45.316,26.176c5.292,3.048,5.292,8.045,0,11.116l-45.385,26.106a21.384,21.384,0,0,1-19.175,0Z" transform="translate(90.251 76.128)" fill="rgba(223,0,255,0.62)"/>
        <path id="Path_10" data-name="Path 10" d="M617.863,494.522l-45.316,26.107a21.393,21.393,0,0,1-19.244,0l-45.316-26.175a7.177,7.177,0,0,1-3.94-4.928c-.321,2.292,1.008,4.584,3.94,6.189l45.384,26.244a21.255,21.255,0,0,0,19.244,0l45.316-26.176a6.372,6.372,0,0,0,3.918-6.189,7.2,7.2,0,0,1-3.986,4.928Z" transform="translate(90.24 81.382)" fill="#df00ff"/>
        <path id="Path_11" data-name="Path 11" d="M565.057,500.354,461.98,438.67l-32.772,18.906h-.381L365,419.955l.381-.955,63.828,37.43,32.772-18.906.762.382,102.7,61.493Z" transform="translate(65.352 68.754)" fill="#df00ff"/>
        <g id="Group_4" data-name="Group 4" transform="translate(0 603.981)" opacity="0.3">
          <path id="Path_12" data-name="Path 12" d="M117.9,557.132V546.863l-2.842-1.581c-.8,4.859-6.509,8.046-11.277,8.71l-32.5,19L57.118,578.1,11.85,554.748l1.054-.6c-3.874-1.81-5.959-5.937-8.045-9.718l-3.048,1.833-1.811.5v10.521a6.877,6.877,0,0,0,3.988,5.57l45.337,26.175a21.264,21.264,0,0,0,19.253,0l45.337-26.175a6.88,6.88,0,0,0,3.988-5.456Z" transform="translate(0 -512.768)" fill="#df00ff" opacity="0.3"/>
          <path id="Path_13" data-name="Path 13" d="M94.832,553.88l-32.5,19L50,577.329v13.889a19.651,19.651,0,0,0,9.627-2.292l45.337-26.175a6.875,6.875,0,0,0,3.988-5.455V546.752l-2.613-1.444h-.275C105.192,550.03,99.554,553.17,94.832,553.88Z" transform="translate(8.952 -512.612)" fill="#df00ff" opacity="0.3"/>
          <path id="Path_14" data-name="Path 14" d="M49.325,583.417,3.988,557.241c-5.318-3.071-5.318-8.068,0-11.116l45.337-26.244a21.265,21.265,0,0,1,19.253,0l45.337,26.175c5.3,3.049,5.3,8.046,0,11.117L68.579,583.417a21.412,21.412,0,0,1-19.253,0Z" transform="translate(0 -517.577)" fill="#df00ff" opacity="0.3"/>
          <g id="Group_3" data-name="Group 3" transform="translate(0.001)" opacity="0.3">
            <path id="Path_15" data-name="Path 15" d="M49.326,583.417,3.989,557.241c-5.318-3.071-5.318-8.068,0-11.116l45.337-26.244a21.265,21.265,0,0,1,19.253,0l45.337,26.175c5.295,3.049,5.295,8.046,0,11.117L68.579,583.417a21.412,21.412,0,0,1-19.253,0Z" transform="translate(0 -517.577)" fill="#df00ff" opacity="0.3"/>
          </g>
        </g>
        <path id="Path_16" data-name="Path 16" d="M58.734,551.247a17.349,17.349,0,0,1-8.55-2.041L4.847,523.031a5.478,5.478,0,0,1,0-10.314l45.337-26.176a18.888,18.888,0,0,1,17.1,0l45.337,26.176a5.478,5.478,0,0,1,0,10.314L67.283,549.206A17.348,17.348,0,0,1,58.734,551.247Zm-8.16-2.728a18.057,18.057,0,0,0,16.3,0l45.337-26.175a4.584,4.584,0,0,0,0-8.94L66.871,487.229a17.921,17.921,0,0,0-16.3,0L5.237,513.4a4.585,4.585,0,0,0,0,8.94Z" transform="translate(0.218 80.481)" fill="#df00ff"/>
        <path id="Path_17" data-name="Path 17" d="M117.9,507.022v-15.54l-2.842-1.582c-.8,4.86-6.509,8.046-11.277,8.71l-32.5,19L57.118,522.7,11.85,499.344l1.054-.6c-3.874-1.811-5.959-5.937-8.045-9.718l-3.048,1.833-1.811.5V507.16a6.74,6.74,0,0,0,3.988,5.546l45.337,26.176a21.274,21.274,0,0,0,19.253,0l45.337-26.176a6.875,6.875,0,0,0,3.988-5.455v-.229Z" transform="translate(0 81.293)" fill="#df00ff" opacity="0.4"/>
        <path id="Path_18" data-name="Path 18" d="M117.9,494.493V484.225l-2.842-1.582c-.8,4.859-6.509,8.046-11.277,8.71l-32.5,19-14.165,5.111L11.85,492.109l1.054-.6c-3.874-1.81-5.959-5.935-8.045-9.7l-3.048,1.811-1.811.5v10.543a6.878,6.878,0,0,0,3.988,5.547L49.325,526.4a21.265,21.265,0,0,0,19.253,0l45.337-26.175a6.875,6.875,0,0,0,3.988-5.455Z" transform="translate(0 80.002)" fill="#df00ff"/>
        <path id="Path_19" data-name="Path 19" d="M49.325,520.771,3.988,494.595c-5.318-3.071-5.318-8.068,0-11.116L49.325,457.3a21.274,21.274,0,0,1,19.253,0l45.337,26.176c5.3,3.071,5.3,8.045,0,11.116L68.579,520.771a21.274,21.274,0,0,1-19.253,0Z" transform="translate(0 75.2)" fill="rgba(223,0,255,0.62)"/>
        <path id="Path_20" data-name="Path 20" d="M57.054,514.932a15.706,15.706,0,0,1-7.724-1.833L13.917,492.653a4.974,4.974,0,0,1,0-9.375l35.412-20.445a17,17,0,0,1,15.449,0l35.413,20.445a4.974,4.974,0,0,1,0,9.375L64.778,513.1A15.706,15.706,0,0,1,57.054,514.932Zm-7.335-2.521a16.161,16.161,0,0,0,14.646,0L99.8,491.966a4.194,4.194,0,0,0,0-8L64.365,463.544a16.161,16.161,0,0,0-14.646,0L14.306,483.99a4.881,4.881,0,0,0-2.911,3.989,4.952,4.952,0,0,0,2.911,4.011Z" transform="translate(1.899 76.27)" fill="#df00ff"/>
        <path id="Path_21" data-name="Path 21" d="M113.909,489.331,68.572,515.506a21.264,21.264,0,0,1-19.253,0L3.982,489.331A7.178,7.178,0,0,1,.039,484.4a6.464,6.464,0,0,0,3.942,6.211L49.319,516.79a21.412,21.412,0,0,0,19.253,0l45.337-26.176a6.416,6.416,0,0,0,3.92-6.211,7.156,7.156,0,0,1-3.92,4.928Z" transform="translate(0.006 80.465)" fill="#df00ff"/>
        <path id="Path_22" data-name="Path 22" d="M54.768,515.337,157.5,456.228l32.877,17.738.381,0,63.617-36.058-.387-.9-63.617,35.876L157.492,455.14l-.76.367L54.382,514.434Z" transform="translate(9.737 71.978)" fill="#df00ff"/>
        <g id="Group_6" data-name="Group 6" transform="translate(593.061 188.549)" opacity="0.3">
          <path id="Path_23" data-name="Path 23" d="M620.79,204.824V194.556l-2.839-1.582c-.8,4.836-6.5,8.046-11.266,8.71l-32.471,18.979L560.064,225.8,514.839,202.44l1.053-.619c-3.87-1.787-5.953-5.937-8.038-9.7l-3.046,1.811-1.809.5v10.544a6.714,6.714,0,0,0,3.984,5.546l45.294,26.176a21.236,21.236,0,0,0,19.235,0l45.293-26.176a6.872,6.872,0,0,0,3.984-5.454Z" transform="translate(-503 -160.416)" fill="#df00ff" opacity="0.3"/>
          <path id="Path_24" data-name="Path 24" d="M597.741,201.53l-32.47,18.979-12.32,4.469v13.89a19.63,19.63,0,0,0,9.617-2.292L607.862,210.4a6.88,6.88,0,0,0,3.985-5.455V194.425l-2.588-1.444h-.275C608.068,197.725,602.458,200.866,597.741,201.53Z" transform="translate(-494.056 -160.262)" fill="#df00ff" opacity="0.3"/>
          <path id="Path_25" data-name="Path 25" d="M552.26,231.093l-45.179-26.175c-5.313-3.071-5.313-8.046,0-11.117l45.179-26.267a21.236,21.236,0,0,1,19.235,0l45.294,26.176c5.312,3.071,5.312,8.045,0,11.116L571.495,231a21.231,21.231,0,0,1-19.235.091Z" transform="translate(-502.983 -165.231)" fill="#df00ff" opacity="0.3"/>
          <g id="Group_5" data-name="Group 5" transform="translate(0.114)" opacity="0.3">
            <path id="Path_26" data-name="Path 26" d="M552.26,231.093l-45.179-26.175c-5.313-3.071-5.313-8.046,0-11.117l45.179-26.267a21.236,21.236,0,0,1,19.235,0l45.294,26.176c5.312,3.071,5.312,8.045,0,11.116L571.495,231a21.231,21.231,0,0,1-19.235.091Z" transform="translate(-503.096 -165.231)" fill="#df00ff" opacity="0.3"/>
          </g>
        </g>
        <path id="Path_27" data-name="Path 27" d="M561.684,204.636a17.586,17.586,0,0,1-8.541-2.04L507.849,176.42a5.479,5.479,0,0,1,0-10.337l45.294-26.176a18.99,18.99,0,0,1,17.082,0l45.293,26.176a5.479,5.479,0,0,1,0,10.337L570.225,202.6A17.59,17.59,0,0,1,561.684,204.636Zm0-65.989a16.731,16.731,0,0,0-8.13,1.948l-45.317,26.176a4.723,4.723,0,0,0,0,8.962l45.317,26.175a18.025,18.025,0,0,0,16.281,0l45.293-26.175a4.723,4.723,0,0,0,0-8.962l-45.293-26.176A16.82,16.82,0,0,0,561.684,138.647Z" transform="translate(90.274 18.42)" fill="#df00ff"/>
        <path id="Path_28" data-name="Path 28" d="M620.79,160.37V144.853l-2.839-1.582c-.8,4.836-6.5,8.046-11.266,8.711l-32.471,19-14.151,5.2-45.225-23.356,1.053-.6c-3.87-1.81-5.953-5.937-8.038-9.718l-3.046,1.811-1.809.527v15.77a6.881,6.881,0,0,0,4.1,5.478l45.18,26.129a21.226,21.226,0,0,0,19.235,0l45.293-26.175a6.871,6.871,0,0,0,3.984-5.455v-.229Z" transform="translate(90.061 19.25)" fill="#df00ff" opacity="0.4"/>
        <path id="Path_29" data-name="Path 29" d="M620.79,147.9V137.63l-2.839-1.582c-.8,4.836-6.5,8.046-11.266,8.71l-32.471,19-14.151,5.111-45.225-23.448,1.053-.6c-3.87-1.811-5.953-5.937-8.038-9.719l-3.046,1.811-1.809.527v10.521a6.877,6.877,0,0,0,3.984,5.57L552.278,179.8a21.363,21.363,0,0,0,19.235,0l45.293-26.175a6.871,6.871,0,0,0,3.984-5.455Z" transform="translate(90.061 17.924)" fill="#df00ff"/>
        <path id="Path_30" data-name="Path 30" d="M597.741,144.595l-32.47,19-12.32,4.446v13.89a19.643,19.643,0,0,0,9.617-2.292l45.293-26.176a6.876,6.876,0,0,0,3.985-5.454V137.466l-2.588-1.444h-.275C608.068,140.79,602.458,143.93,597.741,144.595Z" transform="translate(99.005 18.088)" fill="#df00ff" opacity="0.3"/>
        <path id="Path_31" data-name="Path 31" d="M515.151,149.317l42.935-24.708a6.863,6.863,0,0,1,6.159,0L606.4,148.974l-.458.275c4.762-.665,10.464-3.874,11.266-8.71L569.879,114.18l-13.74-3.644-11.22,6.6L507.137,139.69C509.2,143.381,511.281,147.53,515.151,149.317Z" transform="translate(90.802 13.525)" fill="#df00ff"/>
        <path id="Path_32" data-name="Path 32" d="M561.159,111.81l-5.038-1.352-11.221,6.6-37.783,22.554c2.085,3.781,4.168,7.908,8.038,9.718l42.935-24.708a6.093,6.093,0,0,1,3.069-.757Z" transform="translate(90.798 13.511)" fill="#df00ff" opacity="0.3"/>
        <path id="Path_33" data-name="Path 33" d="M552.26,174.144l-45.179-26.222c-5.313-3.048-5.313-8.045,0-11.116l45.293-26.176a21.373,21.373,0,0,1,19.235,0L616.9,136.806c5.313,3.071,5.313,8.068,0,11.116L571.609,174.1a21.238,21.238,0,0,1-19.349.046Zm12.709-59.594a6.863,6.863,0,0,0-6.159,0l-45.294,26.175a1.881,1.881,0,0,0,0,3.576l45.294,26.175a6.863,6.863,0,0,0,6.159,0L610.263,144.3a1.9,1.9,0,0,0,0-3.576Z" transform="translate(90.078 13.132)" fill="#df00ff"/>
        <path id="Path_34" data-name="Path 34" d="M608.874,139.816l-45.293-26.175a6.865,6.865,0,0,0-6.16,0l-45.293,26.175c-1.145.665-1.512,1.581-1.145,2.43a2.751,2.751,0,0,1,1.145-1.146l45.293-26.084a6.865,6.865,0,0,1,6.16,0l45.293,26.176A2.679,2.679,0,0,1,610,142.338,1.991,1.991,0,0,0,608.874,139.816Z" transform="translate(91.466 13.95)" fill="#df00ff"/>
        <path id="Path_35" data-name="Path 35" d="M616.784,142.657l-45.293,26.175a21.226,21.226,0,0,1-19.235,0l-45.179-26.175a7.1,7.1,0,0,1-3.939-4.9,6.444,6.444,0,0,0,3.939,6.189l45.179,26.221a21.236,21.236,0,0,0,19.235,0l45.293-26.176a6.441,6.441,0,0,0,3.939-6.188,7.108,7.108,0,0,1-3.939,4.859Z" transform="translate(90.085 18.398)" fill="#df00ff"/>
        <path id="Path_36" data-name="Path 36" d="M553.282,173.247l-45.294-26.176c-4.579-2.659-4.579-6.876,0-9.627l45.294-26.175a18.3,18.3,0,0,1,16.671,0l45.293,26.175c4.579,2.659,4.579,6.876,0,9.627l-45.293,26.176a18.3,18.3,0,0,1-16.671,0Zm12.685-59.594a9.534,9.534,0,0,0-8.7,0l-45.293,26.083a2.659,2.659,0,0,0,0,5.043L557.2,170.955a9.7,9.7,0,0,0,8.7,0l45.317-26.176a2.66,2.66,0,0,0,0-5.043Z" transform="translate(90.339 13.296)" fill="#a200ff"/>
        <path id="Path_37" data-name="Path 37" d="M563.585,113.641a6.863,6.863,0,0,0-6.159,0l-45.294,26.175a1.881,1.881,0,0,0,0,3.576l45.294,26.175a6.863,6.863,0,0,0,6.159,0l45.294-26.175a1.9,1.9,0,0,0,0-3.576Z" transform="translate(91.463 13.95)" fill="#df00ff" opacity="0.4"/>
        <path id="Path_38" data-name="Path 38" d="M552.454,181.9,447.5,240.328l-.012,37.833-.191.33-64.5,36.466-.635-.808,64.329-36.561.013-37.833.712-.469,104.6-58.191Z" transform="translate(68.425 26.158)" fill="#df00ff"/>
        <path id="Path_39" data-name="Path 39" d="M471.023,322.3l17.76,10.28v41.048l-17.76-10.262Z" transform="translate(84.336 51.44)" fill="#df00ff" opacity="0.5"/>
        <path id="Path_40" data-name="Path 40" d="M455.961,331.015l17.76,10.262V361.8l-17.76-10.261Z" transform="translate(81.639 53.001)" fill="#df00ff" opacity="0.2"/>
        <path id="Path_41" data-name="Path 41" d="M440.9,270.059l17.76,10.28v82.115L440.9,352.191Z" transform="translate(78.942 42.087)" fill="#df00ff" opacity="0.5"/>
        <path id="Path_42" data-name="Path 42" d="M425.819,243.948,443.6,254.21V356.867L425.819,346.6Z" transform="translate(76.242 37.412)" fill="#df00ff" opacity="0.2"/>
        <path id="Path_43" data-name="Path 43" d="M410.757,252.652l17.759,10.261v82.132l-17.759-10.28Z" transform="translate(73.545 38.97)" fill="#df00ff" opacity="0.5"/>
        <path id="Path_44" data-name="Path 44" d="M395.693,191.711l17.76,10.262v143.7l-17.76-10.262Z" transform="translate(70.848 28.059)" fill="#df00ff" opacity="0.2"/>
        <path id="Path_45" data-name="Path 45" d="M380.632,200.415l17.759,10.262v123.18l-17.759-10.262Z" transform="translate(68.151 29.617)" fill="#df00ff" opacity="0.5"/>
        <path id="Path_46" data-name="Path 46" d="M365.569,209.118l17.76,10.262V322.035l-17.76-10.261Z" transform="translate(65.454 31.175)" fill="#df00ff" opacity="0.2"/>
        <path id="Path_47" data-name="Path 47" d="M350.492,165.585l17.778,10.28v143.7l-17.778-10.262Z" transform="translate(62.755 23.381)" fill="#df00ff" opacity="0.5"/>
        <path id="Path_48" data-name="Path 48" d="M335.429,122.067l17.759,10.261V317.1l-17.759-10.281Z" transform="translate(60.058 15.589)" fill="#df00ff" opacity="0.2"/>
        <path id="Path_49" data-name="Path 49" d="M320.366,130.771l17.76,10.261V305.261L320.366,295Z" transform="translate(57.361 17.148)" fill="#df00ff" opacity="0.5"/>
        <path id="Path_50" data-name="Path 50" d="M305.3,87.237,323.063,97.5V302.793L305.3,292.53Z" transform="translate(54.664 9.353)" fill="#df00ff" opacity="0.2"/>
        <path id="Path_51" data-name="Path 51" d="M290.225,78.533,308,88.8V294.089l-17.778-10.261Z" transform="translate(51.964 7.795)" fill="#df00ff" opacity="0.5"/>
        <path id="Path_52" data-name="Path 52" d="M275.163,35l17.76,10.262v246.36l-17.76-10.262Z" transform="translate(49.267)" fill="#df00ff" opacity="0.2"/>
        <path id="Path_53" data-name="Path 53" d="M314.669,523.557c89.862,0,162.711-42.1,162.711-94.024s-72.849-94.026-162.711-94.026-162.71,42.1-162.71,94.026S224.806,523.557,314.669,523.557Z" transform="translate(27.208 53.805)" fill="#df00ff" opacity="0.4"/>
        <path id="Path_54" data-name="Path 54" d="M318.084,495.8c102.279,0,185.193-47.913,185.193-107.017S420.363,281.762,318.084,281.762,132.891,329.675,132.891,388.779,215.8,495.8,318.084,495.8Z" transform="translate(23.794 44.182)" fill="#df00ff"/>
        <path id="Path_55" data-name="Path 55" d="M503.28,355.3H498.7c-7.434-19.058-23.984-37.181-49.672-52.005-72.319-41.8-189.587-41.8-261.816,0-24.259,14.018-40.279,30.95-48.353,48.854h-5.8v23.731c-1.445,28.422,16.607,57.119,54.157,78.8,72.32,41.781,189.587,41.781,261.908,0,36.159-20.909,54.249-48.287,54.249-75.682Z" transform="translate(23.809 42.424)" opacity="0.48"/>
        <path id="Path_56" data-name="Path 56" d="M498.513,344.553q-.384-.989-.824-1.978v-15.6h-9.7v-1.118a98.854,98.854,0,0,0-8.238-9.693v10.811h-5.493V310.8q-3.863-3.519-8.276-6.89v23.108h-5.492V299.8c-2.655-1.832-5.493-3.664-8.312-5.387v32.509h-5.493V291.191q-4.064-2.29-8.33-4.4v40.131h-5.493V284.245q-4.119-1.832-8.349-3.664v46.344h-5.492V289.45h-8.368v37.529h-5.492V299.8h-8.4v27.231h-5.492V310.1h-8.422v16.932h-5.384v-6.616h-8.367v6.616H266.816v-6.616h-8.458v6.616h-5.384V310.1h-8.385v16.932H239.1V299.8h-8.4v27.231H225.2V289.45h-8.368v37.529h-5.492V280.6q-4.23,1.723-8.349,3.666v42.77H197.5V286.811c-2.838,1.411-5.621,2.859-8.33,4.38v35.788h-5.493V294.416q-4.338,2.6-8.312,5.369v27.194h-5.492V303.816c-2.948,2.235-5.695,4.545-8.276,6.89v16.272H156.1V315.984a104.416,104.416,0,0,0-8.239,9.675v1.229h-9.7v14.384h-4.118v39.783a71.788,71.788,0,0,0,8.22,21.111V377.373h5.6v33.3a99.074,99.074,0,0,0,8.239,9.658V377.373H161.6v48.341c2.581,2.327,5.346,4.637,8.276,6.873V377.373h5.492v59.245q3.992,2.748,8.312,5.387V377.373h5.493v67.8q4.064,2.255,8.33,4.38V377.373h5.493v74.821q4.119,1.832,8.349,3.664v-78.43h5.492v80.629c2.746,1.045,5.493,2.034,8.368,2.988V377.373h5.492v85.284c2.784.862,5.493,1.668,8.4,2.437V377.373h5.492V466.56c2.784.678,5.584,1.337,8.422,1.942V377.428h5.384V469.62c2.8.551,5.621,1.045,8.458,1.521V377.373h5.365v94.538c2.8.422,5.638.788,8.476,1.137V377.373h5.328v96.261c2.82.275,5.657.513,8.514.733V377.373h5.292v97.342c2.856.146,5.694.275,8.549.367V377.373h5.274v97.819h8.622V377.373h5.274v97.709c2.856,0,5.694-.221,8.549-.367V377.373h5.292v96.994c2.857-.22,5.694-.459,8.514-.752V377.373h5.328v95.656c2.838-.33,5.675-.714,8.476-1.118V377.373h5.384v93.7c2.838-.457,5.657-.971,8.458-1.521V377.373h5.382v91.02c2.838-.623,5.639-1.264,8.422-1.961V377.373h5.493v87.7c2.819-.77,5.621-1.594,8.4-2.437V377.373h5.493V460.88c2.819-.935,5.621-1.833,8.367-2.969V377.373H424.6v78.394c2.819-1.154,5.6-2.345,8.349-3.664V377.373h5.492v72.182q4.268-2.126,8.331-4.38v-67.8h5.492v64.6q4.34-2.639,8.312-5.406V377.373h5.493v55.158q4.393-3.39,8.276-6.89V377.373h5.492v42.9a96.808,96.808,0,0,0,8.239-9.693V377.373h5.511v24.721a71.109,71.109,0,0,0,8.22-21.312v-36.21Z" transform="translate(24 43.971)" fill="#ac4db9" opacity="0.48"/>
        <path id="Path_57" data-name="Path 57" d="M318.084,458.139c102.279,0,185.193-47.914,185.193-107.017S420.363,244.1,318.084,244.1,132.891,292.017,132.891,351.121,215.8,458.139,318.084,458.139Z" transform="translate(23.794 37.44)" fill="#654cb2"/>
        <path id="Path_58" data-name="Path 58" d="M316.347,244.041c-41.963,0-83.927,8.192-118.091,24.556L143,388.808c9.008,13.835,23.087,26.792,42.33,37.915a208.978,208.978,0,0,0,39.126,17.261Z" transform="translate(25.604 37.428)" fill="#df00ff" opacity="0.3"/>
        <path id="Path_59" data-name="Path 59" d="M348.466,247.74l-95.06,206.816a319.706,319.706,0,0,0,69.317,1.832l87.5-190.377A252.711,252.711,0,0,0,348.466,247.74Z" transform="translate(45.372 38.091)" fill="#df00ff" opacity="0.3"/>
        <g id="Group_8" data-name="Group 8" transform="translate(47.162 222.024)" opacity="0.05">
          <path id="Path_60" data-name="Path 60" d="M314.867,444.039c90.58,0,164.01-42.433,164.01-94.777s-73.43-94.777-164.01-94.777-164.01,42.433-164.01,94.777S224.287,444.039,314.867,444.039Z" transform="translate(-20.151 -182.726)" fill="#df00ff" opacity="0.05"/>
          <g id="Group_7" data-name="Group 7" opacity="0.05">
            <path id="Path_61" data-name="Path 61" d="M41.758,359.757,40,358.731,325.727,193.623l1.758,1.026Z" transform="translate(-40 -193.623)" fill="#252561" opacity="0.05"/>
            <path id="Path_62" data-name="Path 62" d="M46.028,362.209,44.27,361.2,330,196.094l1.758,1.008Z" transform="translate(-39.235 -193.181)" fill="#252561" opacity="0.05"/>
            <path id="Path_63" data-name="Path 63" d="M50.3,364.681l-1.758-1.008L334.268,198.566l1.758,1.007Z" transform="translate(-38.471 -192.738)" fill="#252561" opacity="0.05"/>
            <path id="Path_64" data-name="Path 64" d="M54.569,367.152l-1.758-1.008L338.538,201.037l1.758,1.007Z" transform="translate(-37.706 -192.296)" fill="#252561" opacity="0.05"/>
            <path id="Path_65" data-name="Path 65" d="M58.839,369.626,57.081,368.6,342.808,203.492l1.758,1.027Z" transform="translate(-36.942 -191.856)" fill="#252561" opacity="0.05"/>
            <path id="Path_66" data-name="Path 66" d="M63.109,372.079l-1.758-1.008L347.078,205.963l1.758,1.008Z" transform="translate(-36.177 -191.414)" fill="#252561" opacity="0.05"/>
            <path id="Path_67" data-name="Path 67" d="M67.38,374.55l-1.758-1.008L351.349,208.434l1.739,1.008Z" transform="translate(-35.412 -190.971)" fill="#252561" opacity="0.05"/>
            <path id="Path_68" data-name="Path 68" d="M71.65,377.021l-1.758-1.008L355.619,210.906l1.74,1.008Z" transform="translate(-34.648 -190.529)" fill="#252561" opacity="0.05"/>
            <path id="Path_69" data-name="Path 69" d="M75.92,379.5l-1.758-1.027L359.889,213.362l1.74,1.008Z" transform="translate(-33.883 -190.089)" fill="#252561" opacity="0.05"/>
            <path id="Path_70" data-name="Path 70" d="M80.191,381.948l-1.758-1.008L364.16,215.833l1.739,1.008Z" transform="translate(-33.119 -189.646)" fill="#252561" opacity="0.05"/>
            <path id="Path_71" data-name="Path 71" d="M84.442,384.419,82.7,383.411,368.43,218.3l1.739,1.008Z" transform="translate(-32.354 -189.204)" fill="#252561" opacity="0.05"/>
            <path id="Path_72" data-name="Path 72" d="M88.713,386.89l-1.739-1.007L372.7,220.775l1.739,1.008Z" transform="translate(-31.589 -188.762)" fill="#252561" opacity="0.05"/>
            <path id="Path_73" data-name="Path 73" d="M92.983,389.346l-1.739-1.008L376.971,223.23l1.739,1.008Z" transform="translate(-30.825 -188.322)" fill="#252561" opacity="0.05"/>
            <path id="Path_74" data-name="Path 74" d="M97.254,391.817l-1.739-1.008L381.242,225.7l1.739,1.008Z" transform="translate(-30.06 -187.879)" fill="#252561" opacity="0.05"/>
            <path id="Path_75" data-name="Path 75" d="M101.524,394.288l-1.739-1.008L385.512,228.173l1.739,1.008Z" transform="translate(-29.296 -187.437)" fill="#252561" opacity="0.05"/>
            <path id="Path_76" data-name="Path 76" d="M105.8,396.762l-1.758-1.007L389.767,230.629l1.758,1.026Z" transform="translate(-28.534 -186.997)" fill="#252561" opacity="0.05"/>
            <path id="Path_77" data-name="Path 77" d="M110.068,399.234l-1.758-1.026L394.037,233.1l1.758,1.008Z" transform="translate(-27.769 -186.555)" fill="#252561" opacity="0.05"/>
            <path id="Path_78" data-name="Path 78" d="M114.338,401.687l-1.757-1.008L398.307,235.572l1.758,1.007Z" transform="translate(-27.005 -186.112)" fill="#252561" opacity="0.05"/>
            <path id="Path_79" data-name="Path 79" d="M118.608,404.158l-1.757-1.008L402.577,238.042l1.758,1.008Z" transform="translate(-26.24 -185.67)" fill="#252561" opacity="0.05"/>
            <path id="Path_80" data-name="Path 80" d="M122.879,406.632l-1.758-1.026L406.848,240.5l1.758,1.026Z" transform="translate(-25.475 -185.23)" fill="#252561" opacity="0.05"/>
            <path id="Path_81" data-name="Path 81" d="M127.149,409.084l-1.757-1.008L411.118,242.969l1.758,1.008Z" transform="translate(-24.711 -184.788)" fill="#252561" opacity="0.05"/>
            <path id="Path_82" data-name="Path 82" d="M131.419,411.556l-1.757-1.008L415.388,245.44l1.758,1.008Z" transform="translate(-23.946 -184.345)" fill="#252561" opacity="0.05"/>
            <path id="Path_83" data-name="Path 83" d="M135.69,414.027l-1.758-1.008L419.659,247.912l1.758,1.008Z" transform="translate(-23.182 -183.903)" fill="#252561" opacity="0.05"/>
            <path id="Path_84" data-name="Path 84" d="M139.96,416.5l-1.758-1.008L423.929,250.367l1.758,1.027Z" transform="translate(-22.417 -183.463)" fill="#252561" opacity="0.05"/>
            <path id="Path_85" data-name="Path 85" d="M144.23,418.953l-1.757-1.007L428.2,252.838l1.757,1.008Z" transform="translate(-21.652 -183.021)" fill="#252561" opacity="0.05"/>
            <path id="Path_86" data-name="Path 86" d="M148.5,421.424l-1.758-1.007L432.47,255.309l1.739,1.008Z" transform="translate(-20.888 -182.578)" fill="#252561" opacity="0.05"/>
            <path id="Path_87" data-name="Path 87" d="M152.771,423.9l-1.757-1.008L436.741,257.781l1.739,1.007Z" transform="translate(-20.123 -182.136)" fill="#252561" opacity="0.05"/>
            <path id="Path_88" data-name="Path 88" d="M157.023,426.37l-1.739-1.026L441.011,260.236l1.739,1.027Z" transform="translate(-19.359 -181.696)" fill="#252561" opacity="0.05"/>
            <path id="Path_89" data-name="Path 89" d="M161.293,428.823l-1.739-1.008L445.281,262.708l1.739,1.007Z" transform="translate(-18.594 -181.253)" fill="#252561" opacity="0.05"/>
            <path id="Path_90" data-name="Path 90" d="M165.563,431.294l-1.739-1.008L449.551,265.178l1.739,1.008Z" transform="translate(-17.83 -180.811)" fill="#252561" opacity="0.05"/>
            <path id="Path_91" data-name="Path 91" d="M169.834,433.765l-1.739-1.008L453.822,267.649l1.739,1.008Z" transform="translate(-17.065 -180.369)" fill="#252561" opacity="0.05"/>
            <path id="Path_92" data-name="Path 92" d="M174.1,436.239l-1.739-1.026L458.092,270.106l1.739,1.008Z" transform="translate(-16.3 -179.929)" fill="#252561" opacity="0.05"/>
            <path id="Path_93" data-name="Path 93" d="M178.374,438.692l-1.739-1.008L462.344,272.577l1.757,1.007Z" transform="translate(-15.536 -179.486)" fill="#252561" opacity="0.05"/>
            <path id="Path_94" data-name="Path 94" d="M182.644,441.163l-1.739-1.007L466.632,275.048l1.739,1.008Z" transform="translate(-14.771 -179.044)" fill="#252561" opacity="0.05"/>
            <path id="Path_95" data-name="Path 95" d="M186.915,443.638l-1.739-1.008L470.884,277.5l1.758,1.026Z" transform="translate(-14.007 -178.604)" fill="#252561" opacity="0.05"/>
            <path id="Path_96" data-name="Path 96" d="M191.185,446.109l-1.739-1.027L475.155,279.975,476.912,281Z" transform="translate(-13.242 -178.162)" fill="#252561" opacity="0.05"/>
            <path id="Path_97" data-name="Path 97" d="M195.459,448.561l-1.758-1.008L479.428,282.446l1.758,1.008Z" transform="translate(-12.48 -177.719)" fill="#252561" opacity="0.05"/>
            <path id="Path_98" data-name="Path 98" d="M199.729,451.033l-1.757-1.008L483.7,284.918l1.757,1.008Z" transform="translate(-11.715 -177.277)" fill="#252561" opacity="0.05"/>
            <path id="Path_99" data-name="Path 99" d="M204,453.507l-1.758-1.008L487.969,287.373l1.758,1.026Z" transform="translate(-10.951 -176.837)" fill="#252561" opacity="0.05"/>
            <path id="Path_100" data-name="Path 100" d="M208.269,455.978l-1.757-1.026L492.239,289.844,494,290.871Z" transform="translate(-10.186 -176.395)" fill="#252561" opacity="0.05"/>
            <path id="Path_101" data-name="Path 101" d="M212.54,458.43l-1.758-1.007L496.509,292.315l1.758,1.008Z" transform="translate(-9.422 -175.952)" fill="#252561" opacity="0.05"/>
            <path id="Path_102" data-name="Path 102" d="M216.811,460.9l-1.757-1.007L500.781,294.786l1.757,1.008Z" transform="translate(-8.657 -175.51)" fill="#252561" opacity="0.05"/>
            <path id="Path_103" data-name="Path 103" d="M221.081,463.373l-1.758-1.007L505.05,297.258l1.758,1.008Z" transform="translate(-7.893 -175.067)" fill="#252561" opacity="0.05"/>
            <path id="Path_104" data-name="Path 104" d="M225.351,465.848l-1.757-1.027L509.321,299.714l1.757,1.008Z" transform="translate(-7.128 -174.628)" fill="#252561" opacity="0.05"/>
            <path id="Path_105" data-name="Path 105" d="M229.622,468.3l-1.758-1.008L513.591,302.185l1.758,1.008Z" transform="translate(-6.363 -174.185)" fill="#252561" opacity="0.05"/>
            <path id="Path_106" data-name="Path 106" d="M233.893,470.771l-1.758-1.008L517.862,304.656l1.757,1.008Z" transform="translate(-5.599 -173.743)" fill="#252561" opacity="0.05"/>
            <path id="Path_107" data-name="Path 107" d="M238.162,473.245l-1.758-1.008L522.131,307.111l1.758,1.027Z" transform="translate(-4.834 -173.303)" fill="#252561" opacity="0.05"/>
            <path id="Path_108" data-name="Path 108" d="M242.433,475.7l-1.758-1.008L526.4,309.582l1.739,1.008Z" transform="translate(-4.07 -172.861)" fill="#252561" opacity="0.05"/>
            <path id="Path_109" data-name="Path 109" d="M246.7,478.169l-1.758-1.007L530.672,312.054l1.739,1.008Z" transform="translate(-3.305 -172.418)" fill="#252561" opacity="0.05"/>
            <path id="Path_110" data-name="Path 110" d="M250.954,480.64l-1.739-1.007L534.942,314.525l1.739,1.008Z" transform="translate(-2.541 -171.976)" fill="#252561" opacity="0.05"/>
            <path id="Path_111" data-name="Path 111" d="M255.225,483.115l-1.74-1.008L539.212,316.981l1.739,1.026Z" transform="translate(-1.776 -171.536)" fill="#252561" opacity="0.05"/>
            <path id="Path_112" data-name="Path 112" d="M259.5,485.567l-1.739-1.008L543.484,319.452l1.739,1.008Z" transform="translate(-1.011 -171.094)" fill="#252561" opacity="0.05"/>
            <path id="Path_113" data-name="Path 113" d="M263.767,488.038l-1.74-1.008L547.754,321.923l1.739,1.008Z" transform="translate(-0.247 -170.651)" fill="#252561" opacity="0.05"/>
            <path id="Path_114" data-name="Path 114" d="M268.036,490.51,266.3,489.5,552.024,324.395l1.739,1.008Z" transform="translate(0.518 -170.209)" fill="#252561" opacity="0.05"/>
            <path id="Path_115" data-name="Path 115" d="M272.309,492.984l-1.758-1.026L556.278,326.851l1.757,1.026Z" transform="translate(1.28 -169.769)" fill="#252561" opacity="0.05"/>
            <path id="Path_116" data-name="Path 116" d="M276.579,495.437l-1.758-1.008L560.548,329.321l1.758,1.008Z" transform="translate(2.044 -169.327)" fill="#252561" opacity="0.05"/>
            <path id="Path_117" data-name="Path 117" d="M280.85,497.907l-1.758-1.007L564.819,331.792l1.757,1.008Z" transform="translate(2.809 -168.884)" fill="#252561" opacity="0.05"/>
            <path id="Path_118" data-name="Path 118" d="M285.119,500.379l-1.758-1.008L569.088,334.264l1.758,1.007Z" transform="translate(3.573 -168.442)" fill="#252561" opacity="0.05"/>
            <path id="Path_119" data-name="Path 119" d="M289.39,502.852l-1.758-1.026L573.359,336.719l1.757,1.026Z" transform="translate(4.338 -168.002)" fill="#252561" opacity="0.05"/>
            <path id="Path_120" data-name="Path 120" d="M293.66,505.306,291.9,504.3,577.629,339.191l1.758,1.008Z" transform="translate(5.103 -167.559)" fill="#252561" opacity="0.05"/>
            <path id="Path_121" data-name="Path 121" d="M297.93,507.777l-1.758-1.008L581.9,341.662l1.757,1.008Z" transform="translate(5.867 -167.117)" fill="#252561" opacity="0.05"/>
          </g>
        </g>
        <path id="Path_122" data-name="Path 122" d="M198.9,288.625c64.08-37,167.891-37,231.953,0,30.613,17.7,46.578,40.644,47.933,63.825,1.464-25.306-14.5-50.888-47.933-70.2-64.08-37.016-167.909-37.016-231.953,0-33.432,19.315-49.434,44.9-47.933,70.2C152.32,329.27,168.341,306.309,198.9,288.625Z" transform="translate(27.013 39.298)" fill="#df00ff"/>
        <path id="Path_123" data-name="Path 123" d="M358.945,323.172a57.477,57.477,0,0,0-28.544,4.782q16.478-13.744-7.6-28.092l-1.191-.7A69.391,69.391,0,0,0,304.989,292a63.845,63.845,0,0,0-16.972-2.548,66.553,66.553,0,0,0-16.259,2.126q-4.448,1.137-8.5,2.529l-10.326-5.974-15.2,8.778,8.5,4.93c-1.5.806-3.021,1.649-4.577,2.547l-5.493,3.226-8.422-4.875-15.2,8.778,8.423,4.874-10.491,6.066-4.1,2.382-1.117.624-17.43,10.078,15.2,8.8,17.43-10.078,109.523,63.33-17.449,10.08,15.2,8.777,17.448-10.078,5.218-3.005,10.491-6.065,8.568,4.947,15.2-8.778-5.493-3.133-3.13-1.833,10.088-5.827,8.568,4.947,15.2-8.777-5.493-3.134-4.357-2.529c5.986-5.222,9.154-10.5,9.557-15.815q.658-11.911-19.774-23.821l-.916-.551A74.212,74.212,0,0,0,358.945,323.172Zm-102.017-3.555,4.888-2.84q18.163-10.482,34.788-.916c6.481,3.664,10,7.164,10.6,10.261s-2.435,6.579-9.154,10.427l-5.913,3.407Zm97.623,56.4L312.5,351.777l6.079-3.518a35.369,35.369,0,0,1,19.334-5.5q9.044.44,20.872,7.33,10.546,6.1,11.388,11.271c.567,3.444-2.509,7.11-9.154,10.995Z" transform="translate(33.631 45.323)" fill="#2b227c"/>
        <path id="Path_124" data-name="Path 124" d="M208.717,297.506v9.75l8.422-4.874Z" transform="translate(37.37 47.001)" fill="#2c237c"/>
        <path id="Path_125" data-name="Path 125" d="M230.161,285.119v9.75l8.5-4.82Z" transform="translate(41.21 44.783)" fill="#2c237c"/>
        <path id="Path_126" data-name="Path 126" d="M315.607,301.656v11.581l-7.617-4.673Z" transform="translate(55.145 47.744)" fill="#2c237c"/>
        <path id="Path_127" data-name="Path 127" d="M377.725,334.87v14.146L366.3,341.943Z" transform="translate(65.585 53.691)" fill="#2c237c"/>
        <path id="Path_128" data-name="Path 128" d="M358.945,312.712a57.491,57.491,0,0,0-28.544,4.783q16.478-13.744-7.6-28.111l-1.191-.678a69.484,69.484,0,0,0-16.623-7.165,63.113,63.113,0,0,0-16.972-2.547,66.494,66.494,0,0,0-16.259,2.126q-4.448,1.118-8.5,2.529l-10.326-5.974-15.2,8.777,8.5,4.93c-1.5.806-3.021,1.65-4.577,2.548l-5.493,3.225-8.422-4.874-15.2,8.778,8.423,4.874L210.479,312l-4.1,2.364-1.117.641-17.43,10.078,15.2,8.8,17.43-10.078L330.072,387.13l-17.449,10.079,15.2,8.778,17.448-10.078,5.219-3.005,10.491-6.066,8.568,4.948,15.2-8.778-5.492-3.134-3.13-1.832,10.088-5.827,8.568,4.947,15.2-8.778-5.493-3.133-4.358-2.529c5.987-5.223,9.155-10.5,9.557-15.815q.66-11.911-19.774-23.823l-.915-.532A73.936,73.936,0,0,0,358.945,312.712Zm-102.017-3.555,4.888-2.84q18.163-10.482,34.788-.916c6.481,3.664,10,7.165,10.6,10.262s-2.436,6.578-9.155,10.426l-5.913,3.409Zm97.623,56.4-41.982-24.244,6.079-3.519a35.368,35.368,0,0,1,19.334-5.5q9.044.44,20.871,7.33,10.546,6.1,11.388,11.269c.567,3.445-2.508,7.11-9.154,10.995Z" transform="translate(33.631 43.45)" fill="#6337f5"/>
        <path id="Path_129" data-name="Path 129" d="M378.514,354.624v12.332l-15.2,8.778V363.4Z" transform="translate(65.051 57.228)" fill="#2c237c"/>
        <path id="Path_130" data-name="Path 130" d="M357.07,367.011v12.333l-15.2,8.777V375.788Z" transform="translate(61.212 59.446)" fill="#2c237c"/>
        <path id="Path_131" data-name="Path 131" d="M308.808,387.834v12.333l-15.214-8.778V379.056Z" transform="translate(52.567 61.602)" fill="#2c237c"/>
        <path id="Path_132" data-name="Path 132" d="M187.754,317.882v12.351l15.2,8.778V326.678Z" transform="translate(33.617 50.649)" fill="#2c237c"/>
        <path id="Path_133" data-name="Path 133" d="M218.072,329.127V316.794l-17.43,10.078v12.333Z" transform="translate(35.924 50.455)" fill="#2c237c"/>
        <path id="Path_134" data-name="Path 134" d="M215.424,316.794v12.333L314.365,386.3l10.674-6.175Z" transform="translate(38.571 50.455)" fill="#90a1fa"/>
        <path id="Path_135" data-name="Path 135" d="M295.921,264.011a37.807,37.807,0,0,1-18.565-4.434c-5.163-2.969-8-7-8-11.325s2.838-8.338,8-11.325c10.235-5.9,26.9-5.9,37.149,0,5.144,2.987,7.982,7.019,7.982,11.325s-2.838,8.356-7.982,11.325A37.876,37.876,0,0,1,295.921,264.011Zm0-29.5a36.082,36.082,0,0,0-17.558,4.2c-4.485,2.6-6.956,5.993-6.956,9.548s2.471,6.963,6.975,9.566c9.667,5.589,25.412,5.589,35.1,0,4.485-2.6,6.975-5.992,6.975-9.566s-2.49-6.946-6.975-9.548A36.027,36.027,0,0,0,295.921,234.508Z" transform="translate(48.227 35.362)" fill="#df00ff"/>
        <path id="Path_136" data-name="Path 136" d="M305.249,253.582a24.224,24.224,0,0,1-21.97,0c-6.078-3.5-6.078-9.162,0-12.7a24.224,24.224,0,0,1,21.97,0C311.309,244.383,311.309,250.081,305.249,253.582Z" transform="translate(49.904 36.391)" fill="#df00ff"/>
        <path id="Path_137" data-name="Path 137" d="M347.936,222.346l-10.893-6.286,18.546-10.72,10.912,6.285Z" transform="translate(60.347 30.499)" fill="#df00ff"/>
        <path id="Path_138" data-name="Path 138" d="M331.752,214.007l-13.731-4.05,11.919-13.5,13.731,4.049Z" transform="translate(56.941 28.908)" fill="#df00ff" opacity="0.8"/>
        <path id="Path_139" data-name="Path 139" d="M311.667,208.759l-15.214-1.392,4.1-14.972,15.216,1.392Z" transform="translate(53.079 28.181)" fill="#df00ff" opacity="0.6"/>
        <path id="Path_140" data-name="Path 140" d="M290.273,207.367l-15.233,1.392-4.1-14.972,15.216-1.392Z" transform="translate(48.511 28.181)" fill="#df00ff" opacity="0.4"/>
        <path id="Path_141" data-name="Path 141" d="M269.645,209.957l-13.732,4.05-11.9-13.524,13.712-4.031Z" transform="translate(43.69 28.908)" fill="#df00ff" opacity="0.2"/>
        <path id="Path_142" data-name="Path 142" d="M251.2,216.061l-10.894,6.286-18.546-10.72,10.893-6.285Z" transform="translate(39.706 30.499)" fill="#df00ff" opacity="0.1"/>
        <path id="Path_143" data-name="Path 143" d="M316.025,236.907l-3.827-2.218,27.683-16,3.827,2.217Z" transform="translate(55.898 32.89)" fill="#df00ff" opacity="0.2"/>
        <path id="Path_144" data-name="Path 144" d="M308.737,233.782l-4.815-1.429L321.7,212.2l4.815,1.43Z" transform="translate(54.417 31.726)" fill="#df00ff" opacity="0.4"/>
        <path id="Path_145" data-name="Path 145" d="M299.827,231.842l-5.347-.5L300.6,209.01l5.346.494Z" transform="translate(52.726 31.156)" fill="#df00ff" opacity="0.6"/>
        <path id="Path_146" data-name="Path 146" d="M291.053,231.347l-5.347.5L279.573,209.5l5.347-.494Z" transform="translate(50.057 31.156)" fill="#df00ff" opacity="0.8"/>
        <path id="Path_147" data-name="Path 147" d="M283.284,232.353l-4.815,1.429L260.69,213.625l4.834-1.43Z" transform="translate(46.676 31.726)" fill="#df00ff"/>
        <path id="Path_148" data-name="Path 148" d="M276.376,234.689l-3.827,2.218-27.683-16,3.827-2.217Z" transform="translate(43.843 32.89)" fill="#df00ff"/>
        <path id="Path_149" data-name="Path 149" d="M270.971,238.111l-2.454,2.785-34.877-10.28,2.452-2.785Z" transform="translate(41.833 34.526)" fill="#df00ff"/>
        <path id="Path_150" data-name="Path 150" d="M267.621,242.3l-.843,3.079-38.668-3.536.843-3.1Z" transform="translate(40.843 36.479)" fill="#df00ff"/>
        <path id="Path_151" data-name="Path 151" d="M266.778,247.352l.843,3.1-38.668,3.537-.843-3.1Z" transform="translate(40.843 38.021)" fill="#df00ff"/>
        <path id="Path_152" data-name="Path 152" d="M268.517,252.823l2.454,2.785L236.092,265.87l-2.452-2.786Z" transform="translate(41.833 39.001)" fill="#df00ff"/>
        <path id="Path_153" data-name="Path 153" d="M272.549,257.594l3.827,2.218-27.683,16-3.827-2.218Z" transform="translate(43.843 39.855)" fill="#df00ff"/>
        <path id="Path_154" data-name="Path 154" d="M384.11,203.421c40.7,28.367,42.972,68.92,6.867,98.679l14.646,13.506c49.818-35.88,48.719-87.538-3.24-122.777Z" transform="translate(68.774 28.259)" fill="#df00ff" opacity="0.6"/>
        <path id="Path_155" data-name="Path 155" d="M335.894,319.867C292.85,323.77,247.261,316.2,214.1,297a111.279,111.279,0,0,1-20.139-14.659l-24.845,4.947a127.545,127.545,0,0,0,26.749,20.157c41.945,24.226,100.7,32.839,154.563,25.857Z" transform="translate(30.281 44.285)" fill="#df00ff" opacity="0.2"/>
        <path id="Path_156" data-name="Path 156" d="M152.107,274.183l24.845-4.947c-4.394-23.676,9.154-48.25,40.5-66.392,51.923-30,134.222-31.72,189.66-5.185l18.217-10.518c-65.528-32.325-164.1-30.6-226.059,5.2C160.657,214.646,144.948,245.175,152.107,274.183Z" transform="translate(26.934 23.12)" fill="#df00ff"/>
        <path id="Path_157" data-name="Path 157" d="M280.459,303.392l-9.722-5.608L395.566,225.64l9.722,5.608Z" transform="translate(48.475 34.134)" fill="#df00ff"/>
        <path id="Path_158" data-name="Path 158" d="M292.167,303.977l-9.722-5.625L336.713,267l9.721,5.625Z" transform="translate(50.571 41.539)" fill="#df00ff" opacity="0.8"/>
        <path id="Path_159" data-name="Path 159" d="M304.7,314.036l-9.721-5.626,86.381-49.9,9.721,5.608Z" transform="translate(52.815 40.019)" fill="#df00ff" opacity="0.6"/>
        <path id="Path_160" data-name="Path 160" d="M317.047,319.473l-9.74-5.608,67.248-38.848,9.721,5.608Z" transform="translate(55.023 42.975)" fill="#4c3f4e" opacity="0.2"/>
      </g>
      <rect id="Rectangle_3" data-name="Rectangle 3" width="98" height="967" rx="49" transform="matrix(0.695, 0.719, -0.719, 0.695, 280.466, 205.594)" fill="url(#linear-gradient-2)"/>
      <rect id="Rectangle_4" data-name="Rectangle 4" width="98" height="967" rx="49" transform="matrix(0.695, 0.719, -0.719, 0.695, 213.466, -171.923)" fill="url(#linear-gradient-2)"/>
    </g>
  </g>
</svg>
