<svg xmlns="http://www.w3.org/2000/svg" width="138" height="103.087" viewBox="0 0 138 103.087">
  <g id="Group_17" data-name="Group 17" transform="translate(-106.22 39.422)" opacity="0.86">
    <g id="Group_13" data-name="Group 13" transform="translate(104.22 -35.422)">
      <g id="Group_12" data-name="Group 12" transform="translate(42.538 -4)">
        <g id="Group_11" data-name="Group 11" transform="translate(0 0)">
          <g id="polygon-matic-logo">
            <path id="Path_177" data-name="Path 177" d="M43.1,15.208a3.787,3.787,0,0,0-3.567,0l-8.323,4.9-5.648,3.121-8.174,4.9a3.787,3.787,0,0,1-3.567,0L7.431,24.275a3.623,3.623,0,0,1-1.784-3.121V13.722A3.666,3.666,0,0,1,7.431,10.6l6.391-3.716a3.787,3.787,0,0,1,3.567,0L23.78,10.75a3.623,3.623,0,0,1,1.784,3.121v4.9l5.648-3.27V10.452a3.666,3.666,0,0,0-1.784-3.121L17.538.346a3.787,3.787,0,0,0-3.567,0L1.784,7.48A3.269,3.269,0,0,0,0,10.452V24.423a3.666,3.666,0,0,0,1.784,3.121L13.822,34.53a3.787,3.787,0,0,0,3.567,0l8.174-4.756,5.648-3.27,8.174-4.756a3.787,3.787,0,0,1,3.567,0l6.391,3.716a3.623,3.623,0,0,1,1.784,3.121v7.431a3.666,3.666,0,0,1-1.784,3.121L43.1,42.853a3.787,3.787,0,0,1-3.567,0l-6.391-3.716a3.623,3.623,0,0,1-1.784-3.121V31.26l-5.648,3.27v4.9A3.666,3.666,0,0,0,27.5,42.556l12.039,6.985a3.787,3.787,0,0,0,3.567,0L55.14,42.556a3.623,3.623,0,0,0,1.784-3.121V25.315a3.666,3.666,0,0,0-1.784-3.121Z" transform="translate(0 0.1)" fill="#864197"/>
          </g>
        </g>
      </g>
      <text id="Polygon" transform="translate(71 87.087)" fill="#864197" font-size="34" font-family="Poppins-Medium, Poppins" font-weight="500"><tspan x="-68.748" y="0">Polygon</tspan></text>
    </g>
  </g>
</svg>
