<?xml version="1.0" standalone="no"?><svg xmlns="http://www.w3.org/2000/svg" viewBox="0 0 1440 320"><path fill="#faf7fc" fill-opacity="1" d="M0,192L34.3,197.3C68.6,203,137,213,206,202.7C274.3,192,343,160,411,165.3C480,171,549,213,617,229.3C685.7,245,754,235,823,213.3C891.4,192,960,160,1029,165.3C1097.1,171,1166,213,1234,218.7C1302.9,224,1371,192,1406,176L1440,160L1440,320L1405.7,320C1371.4,320,1303,320,1234,320C1165.7,320,1097,320,1029,320C960,320,891,320,823,320C754.3,320,686,320,617,320C548.6,320,480,320,411,320C342.9,320,274,320,206,320C137.1,320,69,320,34,320L0,320Z"></path></svg>