<?xml version="1.0" encoding="UTF-8"?><svg xmlns="http://www.w3.org/2000/svg" xmlns:xlink="http://www.w3.org/1999/xlink" viewBox="0 0 1921.88 637.76"><defs><style>.an{stroke:url(#h);}.an,.ao,.ap,.aq,.ar,.as,.at,.au,.av,.aw,.ax,.ay,.b`,.ba,.bb,.bc,.bd,.be,.bf,.bg,.bh,.bi,.bj,.bk,.bl,.bm,.bn,.bo,.bp,.bq,.br,.bs,.bt,.bu,.bv,.bw{fill:none;stroke-miterlimit:10;}.ao{stroke:url(#af);}.ap{stroke:url(#u);}.aq{stroke:url(#ag);}.ar{stroke:url(#t);}.bx{opacity:.5;}.as{stroke:url(#ac);}.at{stroke:url(#ak);}.au{stroke:url(#ad);}.av{stroke:url(#m);}.aw{stroke:url(#i);}.ax{stroke:url(#s);}.ay{stroke:url(#n);}.b`{stroke:url(#am);}.ba{stroke:url(#w);}.bb{stroke:url(#ab);}.bc{stroke:url(#j);}.bd{stroke:url(#l);}.be{stroke:url(#r);}.bf{stroke:url(#al);}.bg{stroke:url(#aj);}.bh{stroke:url(#ai);}.bi{stroke:url(#f);}.bj{stroke:url(#aa);}.bk{stroke:url(#y);}.bl{stroke:url(#ah);}.bm{stroke:url(#p);}.bn{stroke:url(#d);}.bo{stroke:url(#x);}.bp{stroke:url(#ae);}.bq{stroke:url(#g);}.br{stroke:url(#o);}.bs{stroke:url(#q);}.bt{stroke:url(#e);}.bu{stroke:url(#k);}.bv{stroke:url(#v);}.bw{stroke:url(#a`);}</style><linearGradient id="d" x1=".04" y1="105.45" x2="1921.75" y2="105.45" gradientTransform="translate(0 270.36) scale(1 -1)" gradientUnits="userSpaceOnUse"><stop offset="0" stop-color="#da2eef"/><stop offset="1" stop-color="#39d0d8"/></linearGradient><linearGradient id="e" x1=".02" y1="102.98" x2="1921.71" y2="102.98" xlink:href="#d"/><linearGradient id="f" x1=".02" y1="99.87" x2="1921.75" y2="99.87" xlink:href="#d"/><linearGradient id="g" x1=".02" y1="93.84" x2="1921.69" y2="93.84" xlink:href="#d"/><linearGradient id="h" x1="0" y1="87.67" x2="1921.61" y2="87.67" xlink:href="#d"/><linearGradient id="i" x1="0" y1="82.6" x2="1921.65" y2="82.6" xlink:href="#d"/><linearGradient id="j" x1=".02" y1="71.89" x2="1921.67" y2="71.89" xlink:href="#d"/><linearGradient id="k" x1="0" y1="60.09" x2="1921.68" y2="60.09" xlink:href="#d"/><linearGradient id="l" x1="0" y1="47.14" x2="1921.69" y2="47.14" xlink:href="#d"/><linearGradient id="m" x1="0" y1="33.29" x2="1921.66" y2="33.29" xlink:href="#d"/><linearGradient id="n" x1=".03" y1="19.02" x2="1921.66" y2="19.02" xlink:href="#d"/><linearGradient id="o" x1=".06" y1="4.2" x2="1921.68" y2="4.2" xlink:href="#d"/><linearGradient id="p" x1=".11" y1="-11.71" x2="1921.75" y2="-11.71" xlink:href="#d"/><linearGradient id="q" x1=".12" y1="-26.91" x2="1921.77" y2="-26.91" xlink:href="#d"/><linearGradient id="r" x1=".17" y1="-40.71" x2="1921.78" y2="-40.71" xlink:href="#d"/><linearGradient id="s" x1=".22" y1="-52.92" x2="1921.78" y2="-52.92" xlink:href="#d"/><linearGradient id="t" x1=".27" y1="-65.56" x2="1921.8" y2="-65.56" xlink:href="#d"/><linearGradient id="u" x1=".3" y1="-78.11" x2="1921.77" y2="-78.11" xlink:href="#d"/><linearGradient id="v" x1=".34" y1="-88.2" x2="1921.79" y2="-88.2" xlink:href="#d"/><linearGradient id="w" x1=".34" y1="-97.69" x2="1921.8" y2="-97.69" xlink:href="#d"/><linearGradient id="x" x1=".35" y1="-106.26" x2="1921.82" y2="-106.26" xlink:href="#d"/><linearGradient id="y" x1=".34" y1="-114.1" x2="1921.79" y2="-114.1" xlink:href="#d"/><linearGradient id="a`" x1=".34" y1="-121.42" x2="1921.8" y2="-121.42" xlink:href="#d"/><linearGradient id="aa" x1=".31" y1="-127.89" x2="1921.78" y2="-127.89" xlink:href="#d"/><linearGradient id="ab" x1=".29" y1="-133.68" x2="1921.79" y2="-133.68" xlink:href="#d"/><linearGradient id="ac" x1=".25" y1="-139.32" x2="1921.84" y2="-139.32" xlink:href="#d"/><linearGradient id="ad" x1=".18" y1="-145.55" x2="1921.82" y2="-145.55" xlink:href="#d"/><linearGradient id="ae" x1=".12" y1="-151.07" x2="1921.79" y2="-151.07" xlink:href="#d"/><linearGradient id="af" x1=".06" y1="-155.24" x2="1921.82" y2="-155.24" xlink:href="#d"/><linearGradient id="ag" x1=".03" y1="-160.49" x2="1921.83" y2="-160.49" xlink:href="#d"/><linearGradient id="ah" x1=".03" y1="-164.98" x2="1921.84" y2="-164.98" xlink:href="#d"/><linearGradient id="ai" x1=".03" y1="-168.69" x2="1921.87" y2="-168.69" xlink:href="#d"/><linearGradient id="aj" x1=".04" y1="-175.62" x2="1921.84" y2="-175.62" xlink:href="#d"/><linearGradient id="ak" x1=".05" y1="-182.48" x2="1921.86" y2="-182.48" xlink:href="#d"/><linearGradient id="al" x1=".06" y1="-189.36" x2="1921.88" y2="-189.36" xlink:href="#d"/><linearGradient id="am" x1=".05" y1="-196.63" x2="1921.85" y2="-196.63" xlink:href="#d"/></defs><g id="a"/><g id="b"><g id="c"><g class="bx"><path class="bn" d="M855.96,329.31c-2.35,0-4.7-.02-7.06-.05-15.24-.21-31.01-1.1-46.91-2.65h-.24l-.03-.03c-13.75-1.33-27.87-3.19-41.96-5.52-54.87-9.03-112.19-25.51-165.81-47.67-87.43-36.13-166.3-91.67-255.74-180.09C270.03,25.9,205.4-4.65,146.08,2.51,88.87,9.44,40.37,51.28,1.4,84.9l-.65-.76C39.83,50.43,88.46,8.48,145.97,1.53c59.63-7.2,124.55,23.44,192.95,91.07,89.34,88.32,168.12,143.79,255.42,179.87,53.55,22.13,110.79,38.59,165.52,47.6l.16,.03c13.96,2.3,28.04,4.15,41.76,5.48h0l.25,.02c15.89,1.55,31.66,2.44,46.85,2.65,25.17,.36,49.51-1.16,72.37-4.49,.04-.01,.13-.02,.2-.02,4.36-.65,8.8-1.37,13.13-2.15,4.39-.8,8.8-1.72,13.1-2.75l.1-.02c1.19-.28,2.38-.58,3.56-.87l.15-.04c3.45-.88,6.64-1.76,9.74-2.69l.08-.02c1.12-.33,2.24-.66,3.36-1.02h0l.12-.04s.02-.01,.04-.01h0c29.94-9.31,60.36-24.25,95.75-46.99,10.33-6.64,20.43-14.04,30.19-21.2,14.6-10.7,29.69-21.76,45.9-30.54,29.17-15.8,63.49-28.44,108-39.76,68.3-17.37,137.48-24.99,205.62-22.65,69.1,2.38,137.8,15.03,204.17,37.61,30.19,10.27,60.32,22.22,89.45,33.78,26.29,10.43,53.48,21.21,80.62,30.73,32.96,11.57,65.47,20.29,96.64,25.92l-.18,.98c-31.22-5.64-63.79-14.38-96.8-25.96-27.16-9.52-54.36-20.31-80.66-30.74-29.12-11.55-59.23-23.49-89.4-33.76-132.84-45.19-270.53-50.21-409.23-14.94-44.43,11.31-78.67,23.92-107.76,39.67-16.15,8.75-31.22,19.79-45.79,30.47-9.77,7.16-19.88,14.57-30.24,21.23-35.43,22.78-65.91,37.74-95.91,47.08l-.06,.06h-.15c-1.11,.36-2.21,.7-3.32,1.02l-.06,.05h-.16c-3.05,.92-6.19,1.79-9.57,2.66l-.05,.05h-.19c-1.22,.32-2.44,.62-3.67,.91l-.09,.02c-4.31,1.03-8.72,1.96-13.12,2.76-4.34,.78-8.79,1.51-13.24,2.16l-.13,.02c-20.77,3.01-42.75,4.54-65.43,4.54Z"/><path class="bt" d="M851.27,327.34c-4.46,0-8.93-.05-13.4-.14-25.65-.53-51.91-2.59-78.1-6.12l-.08-.02c-57.45-7.76-115.22-22.78-167.15-43.43-88.74-35.31-169.17-91.59-260.81-182.48C267.03,30.97,204.72,2.16,146.51,9.52,90.88,16.56,44.32,54.25,1.39,92.24l-.66-.75C41.89,55.06,90.48,15.61,146.39,8.53c32.44-4.1,66.69,3.21,101.81,21.73,27.67,14.59,56.01,36.19,84.23,64.19,91.53,90.79,171.86,147,260.47,182.26,51.87,20.64,109.59,35.64,166.92,43.38h.07c26.15,3.54,52.37,5.59,77.92,6.12,16.1,.33,32.1,.07,47.61-.79,21.17-1.15,41.96-3.42,61.84-6.75,1.35-.22,2.71-.46,4.05-.71h0l.17-.03c7.81-1.43,15.69-3.24,23.42-5.37l.05-.05h.13c.89-.24,1.77-.49,2.66-.74l1.05-.3c30.05-8.71,60.42-22.68,92.84-42.69,10.37-6.4,20.45-13.64,30.2-20.65,13.33-9.58,27.11-19.49,41.84-27.37,36.34-19.43,76.53-30.45,103.6-37.04,69.34-16.9,139.97-23.61,209.93-19.91,70.49,3.72,140.3,18,207.47,42.44,28.55,10.39,56.97,22.47,84.45,34.15,28.54,12.13,58.04,24.68,87.72,35.33,27.9,10.02,56.26,17.69,84.29,22.81l-.18,.98c-28.08-5.13-56.49-12.81-84.45-22.85-29.7-10.66-59.22-23.22-87.77-35.36-27.47-11.68-55.87-23.76-84.4-34.14-133.63-48.61-277.77-56.39-416.82-22.49-27.02,6.58-67.12,17.57-103.36,36.96-14.67,7.85-28.43,17.74-41.73,27.3-9.76,7.02-19.85,14.28-30.26,20.69-32.52,20.06-62.98,34.07-93.12,42.8l-1.02,.29c-.86,.25-1.72,.49-2.58,.72l-.07,.06h-.16c-7.72,2.14-15.59,3.95-23.38,5.38l-.04,.04h-.26c-1.3,.26-2.71,.51-4.11,.74-19.91,3.34-40.74,5.61-61.9,6.77-11.22,.6-22.69,.91-34.25,.91Z"/><path class="bi" d="M832.63,327.22c-10.32,0-20.58-.2-30.6-.6h-.3c-75.28-3.04-148.51-17.62-211.79-42.18-109.98-42.7-195.73-118.91-265.1-187.82C262.71,34.9,202.15,7.83,144.86,16.18,90.63,24.07,43.86,60.72,1.4,99.15l-.67-.74C43.31,59.88,90.22,23.12,144.71,15.2c31.81-4.63,65.11,1.78,98.99,19.07,26.98,13.77,54.52,34.51,81.84,61.65,69.3,68.84,154.95,144.97,264.76,187.6,63.17,24.51,136.29,39.07,211.46,42.1h.23c11.73,.48,23.78,.68,35.83,.6,30.25-.23,60.62-2.26,90.32-6.03l.19,.48-.08-.49c10.85-1.38,21.67-2.99,32.19-4.8l.88-.16c4.56-.79,9.14-1.69,13.62-2.67l.05-.05h.14c3.54-.76,7.28-1.64,11.11-2.61,.04-.01,.09-.02,.15-.03,34.72-8.85,68.4-23.12,102.96-43.62,9.86-5.85,19.44-12.52,28.7-18.97,12.68-8.83,25.79-17.97,39.81-25.11,33.6-17.12,70.5-26.75,98.89-33.23,139.77-31.91,284.6-20.53,418.83,32.92,25.74,10.25,51.3,22.09,76.01,33.55,29.17,13.52,59.33,27.5,89.96,38.93,25.72,9.6,52.51,16.84,79.63,21.51l-.17,.99c-27.18-4.68-54.03-11.93-79.81-21.55-30.67-11.44-60.85-25.43-90.03-38.96-24.7-11.45-50.25-23.29-75.96-33.53-134.03-53.37-278.65-64.74-418.23-32.88-28.33,6.47-65.15,16.08-98.65,33.15-13.95,7.11-27.04,16.23-39.69,25.04-9.28,6.46-18.87,13.15-28.76,19.01-34.65,20.56-68.43,34.86-103.26,43.74l-.12,.02c-3.78,.97-7.48,1.84-11,2.6l-.06,.05h-.17c-4.47,.99-9.04,1.89-13.59,2.68l-.04,.03h-.23l-.76,.15c-10.54,1.82-21.37,3.43-32.2,4.8l-.2-.48,.08,.49c-29.77,3.78-60.18,5.81-90.41,6.04-1.79-.02-3.54-.01-5.29-.01Z"/><path class="bq" d="M1921,333.5c-28.71-3.94-56.39-11.09-82.24-21.23-30.44-11.94-59.99-27.15-88.56-41.87-21.18-10.91-43.07-22.19-65.16-32.04-128.12-57.15-274.96-73.28-413.48-45.42-29.85,6-64.71,14.29-96.95,30.19-13.26,6.53-25.8,14.87-37.94,22.93-9.09,6.04-18.49,12.29-28.15,17.75-38.33,21.68-79.36,37.49-121.96,47h-.11c-2.55,.59-5.05,1.12-7.43,1.6h-.04c-2.02,.43-3.97,.82-5.93,1.19-2.63,.5-5.25,.99-7.89,1.47l-.04,.04h-.24c-12.07,2.23-24.37,4.26-36.47,6.02h-.1c-14.23,2.09-28.6,3.85-42.75,5.26-12.4,1.22-24.71,2.18-36.64,2.85-14.99,.84-29.77,1.26-44.32,1.26-79.04,0-151.46-12.41-215.87-37.05-65.59-25.08-124.73-60.76-180.8-109.1-27.51-23.71-53.52-49.73-78.67-74.88-3.7-3.7-7.39-7.4-11.1-11.09C257.77,38.14,198.37,12.62,141.58,22.54,86.96,32.1,40.07,69.91,1.41,105.64l-.68-.73C39.5,69.08,86.53,31.17,141.41,21.58c57.12-9.98,116.83,15.63,177.46,76.12,3.71,3.7,7.4,7.4,11.1,11.09,25.14,25.14,51.13,51.14,78.61,74.83,55.98,48.26,115.02,83.88,180.5,108.92,76.13,29.12,163.52,41.13,259.74,35.72,11.96-.67,24.26-1.63,36.59-2.85,14.19-1.41,28.54-3.17,42.71-5.24l.2,.48-.08-.49c12.08-1.77,24.32-3.78,36.42-6h.01l.15-.04c2.69-.49,5.36-.99,8.04-1.5,1.92-.36,3.83-.75,5.74-1.14l.05-.05h.18s.04-.01,.09-.01c2.28-.47,4.77-1,7.31-1.57,.04-.01,.09-.02,.15-.03,42.48-9.49,83.41-25.27,121.64-46.89,9.63-5.44,19.01-11.68,28.09-17.71,12.16-8.08,24.73-16.44,38.05-23,32.34-15.95,67.28-24.25,97.19-30.27,69.22-13.92,139.99-17.1,210.35-9.43,70.76,7.71,139.31,26.18,203.73,54.92,22.11,9.86,44.02,21.15,65.21,32.06,28.55,14.71,58.08,29.91,88.47,41.83,25.78,10.11,53.38,17.24,82.02,21.17l-.13,1Z"/><path class="an" d="M1921.05,340.59c-6.74-.29-14.38-.62-21.96-1.06-.02,0-.08,0-.14-.01-2.9-.15-5.86-.35-9.06-.59h-.08c-1.73-.12-3.48-.26-5.21-.4-14.36-1.21-26.51-2.94-37.24-5.32-.07-.01-.12-.02-.16-.03l-.21-.05c-.7-.16-1.42-.32-2.12-.5l-.23-.05c-.35-.08-.71-.16-1.06-.25h-.15l-.06-.06c-4.1-.99-8.13-2.13-12-3.4-31.1-10.21-60.42-28.27-88.78-45.73-16.41-10.11-33.38-20.56-50.28-29.19-120.72-61.68-263.67-82.8-402.5-59.46-28.69,4.81-62.23,11.64-93.45,25.8-14.21,6.44-27.71,14.93-40.76,23.13-9.39,5.91-19.11,12.01-29.02,17.32-42.78,22.88-89.53,39.75-142.93,51.58-12.33,2.73-24.34,5.25-35.71,7.48l-.16,.02c-9.22,1.83-17.84,3.44-26.26,4.91l-.22-.47,.09,.49c-40.18,7.06-76.37,11.33-110.62,13.05-67.74,3.42-140.58-8.76-210.65-35.22-79.23-29.92-146.69-67.57-195.09-108.9-23.52-20.09-45.31-43.03-66.39-65.21-8.57-9.02-17.43-18.35-26.25-27.32C253.3,41.08,194.34,16.73,137.17,28.77,83.09,40.16,38.19,77.16,1.41,111.85l-.69-.73C37.6,76.33,82.64,39.23,136.96,27.78c57.53-12.12,116.79,12.33,176.14,72.66,8.83,8.98,17.69,18.31,26.27,27.33,21.06,22.16,42.83,45.08,66.31,65.14,48.31,41.25,115.67,78.84,194.79,108.72,69.94,26.41,142.64,38.57,210.25,35.16,34.21-1.72,70.36-5.98,110.5-13.03,.06-.02,.14-.03,.22-.03,8.33-1.46,16.95-3.07,26.25-4.91l.16-.02c11.27-2.22,23.27-4.74,35.59-7.47,53.31-11.81,99.97-28.65,142.67-51.48,9.89-5.29,19.58-11.39,28.96-17.29,13.08-8.22,26.6-16.73,40.88-23.2,31.32-14.21,64.94-21.05,93.69-25.88,139.05-23.37,282.21-2.22,403.12,59.56,16.94,8.65,33.92,19.11,50.35,29.23,28.31,17.43,57.58,35.46,88.57,45.63,3.87,1.27,7.92,2.42,12.04,3.41l.18,.05c.32,.08,.64,.15,.96,.22l.19,.04c.72,.18,1.44,.35,2.16,.51l.33,.07c10.69,2.37,22.82,4.1,37.06,5.3,1.8,.15,3.54,.29,5.27,.4l.12,.02c3.18,.23,6.15,.42,9.05,.58l.13,.02c7.54,.43,15.18,.76,21.92,1.05l-.04,1.02Z"/><path class="aw" d="M776.92,345.69c-59.44,0-113.59-9.64-164.89-29.29-63.61-24.36-128.79-61.19-199.26-112.59-37.13-27.08-66.81-58.32-98.24-91.4l-6.68-7.03C249.66,44.28,190.53,20.56,132.12,34.9,78.97,47.94,34.35,86.11,1.42,117.9l-.7-.72C33.74,85.3,78.5,47.02,131.88,33.92c58.79-14.43,118.23,9.38,176.69,70.76l6.69,7.03c31.4,33.04,61.05,64.25,98.11,91.28,70.4,51.35,135.5,88.14,199.02,112.47,129.76,49.71,258.65,27.9,378.6-3.07,61.01-15.75,112.54-34.7,157.54-57.96,9.25-4.78,18.39-10.27,27.22-15.58,12.95-7.78,26.34-15.83,40.41-21.84,31.19-13.33,64.94-19.02,93.85-22.83,66.78-8.81,133.81-7.15,199.23,4.95,68.32,12.63,131.15,36.03,186.73,69.56,17.02,10.27,33.66,21.7,49.74,32.75,3.04,2.08,6.07,4.17,9.11,6.25,6.7,4.59,14.26,8.26,23.1,11.22l.09,.03c.67,.23,1.32,.45,1.99,.66l.07,.02c1.62,.51,3.06,.94,4.38,1.31l.08,.02c9.67,2.71,19.58,4.39,28.85,5.81l.1,.02c2.81,.42,5.54,.81,8.26,1.2l3.78,.55c2.4,.34,4.72,.69,7.02,1.03l.11,.02c1.46,.22,2.88,.44,4.28,.67,2.26,.37,4.51,.72,6.77,1.07l.19,.04c18.58,2.88,37.14,5.29,55.18,7.16l.1,.02c7.25,.74,14.63,1.43,21.94,2.03l-.08,1c-7.32-.6-14.71-1.29-21.96-2.04-.01,0-.06,0-.13-.01-18.09-1.87-36.7-4.29-55.33-7.18l-.22-.04c-2.21-.34-4.41-.68-6.62-1.05-1.4-.23-2.81-.44-4.22-.66-.06,0-.15-.02-.24-.05-2.25-.33-4.6-.68-6.96-1.02h-.07l-3.68-.54c-2.77-.4-5.54-.8-8.32-1.22l-.09-.02c-9.27-1.41-19.18-3.1-28.88-5.81h-.06c-1.34-.38-2.78-.81-4.42-1.32h-.17l-.07-.07c-.62-.19-1.23-.4-1.85-.61l-.07-.02c-8.97-3-16.63-6.72-23.42-11.37-3.04-2.08-6.08-4.17-9.11-6.25-16.08-11.04-32.7-22.46-49.69-32.72-108.23-65.29-248.67-92.39-385.31-74.37-28.84,3.8-62.51,9.48-93.59,22.76-14.01,5.99-27.37,14.01-40.29,21.78-8.85,5.32-17.99,10.81-27.28,15.61-45.06,23.29-96.66,42.28-157.74,58.04-76.37,19.72-135.18,29.54-190.69,31.83-7.97,.31-15.85,.47-23.63,.47Z"/><path class="bc" d="M770.79,362.33c-49.55,0-98.62-9.54-146.46-28.54-115.93-46.03-232.31-127.01-319.3-222.18C246.6,47.69,186.68,23.93,126.93,40.97,75.14,55.74,32.66,93.09,1.43,123.98l-.7-.71c31.31-30.98,73.92-68.43,125.92-83.27,60.15-17.16,120.41,6.71,179.12,70.92,86.9,95.06,203.15,175.95,318.94,221.92,64.83,25.74,131.93,34.08,199.43,24.79,56.63-7.81,112.86-23.83,170.28-40.96,70.91-21.16,123.58-41.06,170.75-64.53,9.49-4.73,18.93-10.13,28.06-15.36,14.79-8.47,30.08-17.23,46.13-23.42,32.47-12.52,67.79-16.69,91.54-18.73,137.97-11.88,270.11,20.81,362.54,89.69,3.21,2.39,6.47,5.3,9.62,8.12,5.1,4.55,10.37,9.26,15.86,12.25,.15,.08,.29,.16,.44,.24h.1l.1,.11c.1,.05,.19,.1,.28,.15l.11,.05c7.36,3.68,17.39,5.43,26.24,6.97l2.9,.51c1.1,.2,2.19,.39,3.24,.59,1.61,.31,3.26,.63,4.78,.99,7.49,1.7,14.29,3.21,20.78,4.62h.06c19.32,4.18,37.18,7.66,54.6,10.65l.11,.02c3.08,.53,6.16,1.05,9.24,1.55,1.02,.17,2.04,.33,3.07,.49l.16,.03c15.21,2.42,30.24,4.53,44.78,6.26,10.4,1.24,20.87,2.35,31.22,3.31l-.09,1c-10.36-.96-20.84-2.07-31.15-3.3l-.18-.03c-14.52-1.72-29.63-3.84-44.83-6.27l-.15-.02c-1-.16-1.99-.31-2.97-.48-3.08-.5-6.16-1.02-9.24-1.55,0,0-.08-.01-.18-.04-17.35-2.97-35.21-6.45-54.52-10.62h-.06c-6.51-1.42-13.33-2.93-20.85-4.64-1.51-.35-3.14-.67-4.69-.97-1.1-.21-2.18-.4-3.28-.6l-2.9-.51c-8.88-1.55-18.94-3.3-26.42-7.01l-.11-.05c-.15-.08-.3-.15-.44-.23l-.08-.04c-.19-.1-.37-.19-.54-.29-5.59-3.05-10.91-7.79-16.04-12.38-3.28-2.93-6.38-5.7-9.55-8.06-92.24-68.73-224.13-101.35-361.86-89.49-23.68,2.04-58.91,6.19-91.26,18.67-15.98,6.16-31.24,14.9-45.99,23.35-9.14,5.24-18.6,10.65-28.12,15.39-47.23,23.5-99.94,43.42-170.91,64.59-57.46,17.14-113.73,33.18-170.42,41-17.91,2.45-35.74,3.68-53.51,3.68Z"/><path class="bu" d="M767.92,381.19c-44.33,0-88.21-9.21-131.03-27.54-71.15-30.48-136.28-75.46-196.06-119.52l-2.46-1.81c-46.36-34.18-94.31-69.53-133.81-111.87-44.14-47.32-104.78-98.41-182.53-73.34C72.02,63.24,35.03,98.39,1.43,133.01l-.72-.7C34.4,97.6,71.5,62.35,121.73,46.15c34.72-11.2,68-8.59,101.76,7.98,25.91,12.72,51.91,33.57,81.81,65.62,39.44,42.27,87.35,77.59,133.68,111.75l2.46,1.81c59.73,44.02,124.8,88.96,195.86,119.4,60.8,26.04,123.73,33.61,187.06,22.51,51.19-8.98,101.29-26.58,149.75-43.61,7.03-2.47,14.04-4.94,21.06-7.37,65-22.59,128.32-45.3,188.41-74.82,9.04-4.44,18.1-9.46,26.85-14.31,16.17-8.96,32.89-18.23,50.5-24.41,24.79-8.71,53.32-13.52,89.77-15.16,69.67-3.14,140.6,6.89,205.12,29,27.24,9.33,51.99,20.62,73.57,33.56,7.33,4.39,14.42,9.95,21.27,15.32,11.41,8.94,23.21,18.18,36.5,22.43l.15,.05c.37,.14,.74,.25,1.11,.36,4.94,1.46,9.84,2.87,14.56,4.19,.45,.13,.86,.26,1.28,.37,5.06,1.42,10.12,2.81,15.04,4.12h.16l.06,.06c10.79,2.88,21.82,5.68,32.79,8.3l.11,.02c9.21,2.2,18.48,4.31,27.55,6.26l.14,.03c15.07,3.24,30.33,6.24,45.35,8.89l.09,.02c7.82,1.38,14.95,2.57,21.86,3.66l.12,.02c12.26,1.95,24.75,3.73,37.12,5.31,12.44,1.58,24.7,2.95,36.49,4.09l-.1,1c-11.81-1.14-24.07-2.51-36.44-4.08-12.46-1.59-24.95-3.37-37.23-5.32-.02,0-.1-.01-.15-.03-6.92-1.09-14.09-2.29-21.87-3.67h-.07c-15.04-2.67-30.32-5.67-45.41-8.91l-.25-.06c-9.02-1.94-18.23-4.03-27.39-6.22l-.11-.02c-11.03-2.64-22.14-5.45-33-8.35l-.15-.05c-4.91-1.31-9.94-2.7-14.98-4.11-.42-.11-.85-.24-1.28-.37-4.73-1.32-9.64-2.73-14.58-4.19-.4-.11-.79-.24-1.18-.38l-.11-.03c-13.46-4.3-25.33-13.6-36.81-22.59-6.83-5.35-13.9-10.88-21.17-15.25-21.51-12.91-46.2-24.17-73.38-33.48-64.4-22.07-135.2-32.07-204.75-28.94-36.35,1.63-64.79,6.43-89.49,15.1-17.53,6.15-34.22,15.4-50.35,24.34-8.77,4.86-17.83,9.88-26.9,14.33-60.15,29.54-123.5,52.26-188.53,74.86-7.01,2.44-14.03,4.9-21.05,7.37-48.49,17.04-98.63,34.66-149.91,43.65-18.9,3.34-37.78,4.99-56.58,4.99Z"/><path class="bd" d="M769.94,402.02c-40.42,0-80.7-9.08-120.34-27.19-66.54-30.4-126.13-73.46-186.38-118.62l-6.44-4.83c-49.28-36.93-100.24-75.12-145.45-117.85-2.1-1.98-4.2-3.97-6.3-5.97C251.99,77.25,197.13,25.22,117.97,53.36,70.17,70.35,35.62,105.45,2.21,139.39l-.78,.79-.71-.7,.78-.79C34.99,104.67,69.62,69.49,117.64,52.42c79.74-28.35,134.82,23.89,188.09,74.41,2.1,1.99,4.2,3.98,6.3,5.97,45.17,42.69,96.1,80.86,145.36,117.77l6.44,4.83c60.2,45.13,119.74,88.15,186.2,118.51,58,26.5,117.4,33.61,176.54,21.14,51.46-10.85,101.27-31.44,149.44-51.35,7.11-2.94,14.2-5.87,21.29-8.77,13.39-5.47,27.03-10.98,40.22-16.3,51.33-20.72,104.42-42.14,155.08-66.61,9.74-4.7,19.52-10.01,28.99-15.15,18.5-10.05,37.63-20.44,57.76-27.02,24.72-8.1,53.69-12.12,88.54-12.29,67.67-.38,134.5,12.83,193.21,38.14,25.33,10.93,46.94,25.16,64.74,37.65,6.03,4.23,13.31,7.89,22.28,11.19,.09,.03,.14,.05,.18,.07-.02-.02,.04,.01,.11,.04,2.59,.95,5.39,1.9,8.29,2.8,6.87,2.16,13.96,4.02,20.82,5.83,3.25,.85,6.47,1.7,9.63,2.57l.11,.04c2.23,.61,4.39,1.23,6.43,1.84,3.1,.93,6.2,1.84,9.3,2.73,.44,.13,.86,.26,1.28,.37,4.89,1.42,9.96,2.84,15.53,4.38l.07,.02c9.65,2.63,19.16,5.1,28.27,7.34l.11,.02c11.54,2.86,23.71,5.67,36.21,8.35h.06c9.54,2.06,19.27,4.01,28.9,5.83l.1,.03c35.2,6.64,71.38,11.85,107.63,15.5l-.1,.99c-36.33-3.65-72.58-8.87-107.76-15.53h-.07c-9.62-1.82-19.32-3.78-28.85-5.82h-.06c-12.45-2.68-24.58-5.47-36.05-8.32l-.04,.04-.33-.12c-9.09-2.24-18.59-4.7-28.22-7.33l-.1-.03c-5.59-1.54-10.69-2.97-15.59-4.39-.42-.11-.85-.24-1.28-.37-3.12-.89-6.23-1.8-9.33-2.74-2.04-.61-4.19-1.22-6.39-1.83l-.11-.04c-3.18-.87-6.4-1.72-9.64-2.57-6.87-1.81-13.98-3.68-20.86-5.84-2.91-.91-5.73-1.86-8.38-2.84l-.16-.06c-.05-.01-.1-.03-.14-.05-8.99-3.31-16.35-7.01-22.45-11.29-17.75-12.46-39.31-26.66-64.56-37.55-57.8-24.92-123.47-38.07-190.09-38.07-.91,0-1.81,0-2.72,.01-34.75,.18-63.61,4.18-88.24,12.25-20.04,6.56-39.13,16.92-57.59,26.95-9.47,5.14-19.27,10.46-29.03,15.17-50.7,24.48-103.79,45.91-155.14,66.63-13.19,5.33-26.83,10.83-40.22,16.3-7.08,2.9-14.18,5.83-21.29,8.76-48.21,19.92-98.06,40.53-149.61,51.4-18.92,4.02-37.88,6.01-56.81,6.01Z"/><path class="av" d="M774.78,423.8c-37.31,0-74.95-9.21-112.44-27.57-65.51-32.09-125.06-77.88-177.6-118.27-4.82-3.7-9.64-7.41-14.47-11.11-48.42-37.18-98.5-75.62-145.01-116.41-6.95-6.1-14.06-12.56-20.94-18.8C249.55,81.88,192.92,30.42,115.2,59.87,72.2,76.16,39.44,108.08,7.76,138.95c-2.11,2.06-4.23,4.12-6.35,6.18l-.7-.72c2.12-2.06,4.23-4.12,6.35-6.18,31.75-30.94,64.59-62.93,107.79-79.3,35.05-13.28,69.11-11.18,104.15,6.41,30.95,15.54,58.93,40.97,85.99,65.55,6.87,6.24,13.98,12.7,20.92,18.79,46.49,40.77,96.55,79.2,144.96,116.37,4.83,3.71,9.65,7.41,14.47,11.11,52.5,40.37,112.02,86.12,177.44,118.17,55.03,26.96,110.38,34.12,164.51,21.29,49.27-11.68,96.54-33.57,142.25-54.74,7.73-3.58,15.72-7.28,23.56-10.85,21.47-9.79,43.37-19.62,64.54-29.12,47.28-21.22,96.16-43.16,143.56-66.13,9.79-4.75,19.68-10.08,29.24-15.23,20.06-10.82,40.81-22,62.61-28.9,25.29-8,53.99-11.38,87.8-10.34,63.71,1.95,126.8,18.18,177.66,45.7,24.5,13.26,44.56,22.19,67.09,29.87l9.09,3.1c4.46,1.52,8.92,3.04,13.39,4.56,.11,.04,.15,.05,.19,.07-.02-.02,.04,.01,.11,.04l8.3,2.81c15.17,5.13,27.48,9.15,38.73,12.67,67.99,21.21,143.92,36.07,225.71,44.15l-.1,1c-81.85-8.09-157.86-22.96-225.91-44.19-11.26-3.52-23.57-7.54-38.75-12.67l-8.53-2.89c-.05-.01-.1-.03-.14-.05-4.4-1.49-8.86-3.01-13.32-4.53l-9.09-3.1c-22.59-7.69-42.7-16.64-67.25-29.93-50.72-27.45-113.66-43.63-177.22-45.58-33.67-1.04-62.29,2.33-87.46,10.3-21.71,6.87-42.41,18.03-62.44,28.82-9.57,5.16-19.46,10.49-29.28,15.25-47.41,22.97-96.3,44.92-143.58,66.14-21.17,9.5-43.07,19.33-64.54,29.12-7.83,3.57-15.82,7.27-23.55,10.85-45.76,21.19-93.07,43.1-142.44,54.8-17.47,4.12-35.06,6.18-52.74,6.18Z"/><path class="ay" d="M781.87,445.46c-34.27,0-69.58-9.53-106.9-28.75-58.7-30.25-112.11-72.34-163.75-113.05l-4.46-3.51c-7.31-5.76-14.63-11.52-21.95-17.28-46.33-36.45-94.24-74.14-140.1-112.62-8.89-7.46-17.85-15.41-27.34-23.82-58.41-51.8-124.62-110.51-203.14-79.8-39.95,15.61-72.26,45.18-103.51,73.77-3.1,2.84-6.2,5.67-9.31,8.5l-.67-.74c3.11-2.82,6.21-5.66,9.31-8.49,31.31-28.65,63.7-58.28,103.82-73.96,35.28-13.8,71.3-10.8,110.1,9.17,33.89,17.44,64.48,44.58,94.07,70.82,9.49,8.41,18.45,16.36,27.32,23.81,45.85,38.47,93.75,76.16,140.08,112.6,7.32,5.76,14.64,11.52,21.95,17.28l4.46,3.51c51.61,40.68,104.98,82.74,163.59,112.94,53.29,27.44,102.46,35.06,150.32,23.29,46.55-11.44,90.8-33.81,133.59-55.44,8.15-4.12,16.57-8.38,24.81-12.46,33.83-16.74,68.36-33.46,101.76-49.64,37.74-18.28,76.76-37.17,114.94-56.18,6.5-3.24,12.95-6.5,19.18-9.66,55.27-28,103-52.19,168.03-48.27,49.93,2.99,96.68,20.37,141.89,37.17,10.34,3.84,21.04,7.82,31.63,11.57,15.37,5.45,30.92,11.21,45.96,16.79,28.13,10.43,57.21,21.22,86.32,30.34,66.53,20.83,140.86,35.23,227.25,44.02l-.1,.99c-86.46-8.79-160.86-23.21-227.45-44.06-29.14-9.13-58.23-19.92-86.37-30.36-15.04-5.58-30.58-11.34-45.95-16.79-10.6-3.76-21.3-7.73-31.65-11.58-45.14-16.78-91.82-34.13-141.6-37.11-64.74-3.88-112.38,20.23-167.52,48.17-6.23,3.16-12.68,6.42-19.18,9.66-38.18,19.01-77.21,37.91-114.95,56.19-33.4,16.17-67.93,32.89-101.75,49.63-8.24,4.08-16.66,8.33-24.8,12.45-42.84,21.66-87.14,44.05-133.8,55.52-14.57,3.59-29.25,5.38-44.13,5.38Z"/><path class="br" d="M790.34,465.98c-31.75,0-65.21-10.1-102.95-30.82-57.61-31.62-109.27-73.18-159.23-113.37-54.22-43.63-107.27-86.38-160.24-129.73-8.97-7.34-18.42-15.51-28.43-24.15-31.43-27.14-67.05-57.91-105.1-78.25-43.97-23.51-82.72-28.38-118.45-14.89-32.45,12.25-59.36,35.38-85.37,57.74-4.41,3.79-8.97,7.71-13.46,11.49-5.49,4.62-10.64,8.81-15.72,12.79l-.62-.79c5.08-3.98,10.21-8.15,15.7-12.77,4.49-3.78,9.04-7.7,13.45-11.48,26.08-22.42,53.06-45.61,85.67-57.92,36.01-13.6,75.03-8.71,119.27,14.95,38.14,20.39,73.81,51.19,105.28,78.37,10,8.64,19.45,16.8,28.41,24.13,52.97,43.35,106.02,86.1,160.24,129.73,49.93,40.16,101.56,81.69,159.09,113.27,50.86,27.92,93.88,36.48,135.41,26.95,43.47-9.97,84.37-32.21,123.92-53.71,8.13-4.42,16.53-8.99,24.72-13.31,52.32-27.65,105.89-55.01,157.69-81.46,19.59-10.01,39.19-20.01,58.76-30.06,9.45-4.85,18.85-9.86,27.93-14.7,54.96-29.29,106.88-56.96,172.85-52.29,70.08,4.94,136.7,30.86,201.13,55.93,32.29,12.56,65.67,25.55,98.97,35.67,65.67,19.97,141.52,34.69,231.87,45.01l-.11,.99c-90.41-10.33-166.32-25.06-232.05-45.05-33.33-10.13-66.74-23.13-99.04-35.7-64.36-25.04-130.91-50.93-200.84-55.86-65.68-4.65-117.48,22.96-172.31,52.18-9.09,4.84-18.49,9.85-27.95,14.71-19.58,10.05-39.17,20.05-58.76,30.06-51.8,26.46-105.37,53.81-157.68,81.46-8.18,4.32-16.58,8.89-24.71,13.31-39.61,21.54-80.57,43.8-124.18,53.81-10.91,2.49-21.93,3.76-33.16,3.76Z"/><path class="bm" d="M801.34,484.21c-36.98,0-71.85-16.65-101.88-33.77-82.84-47.21-157.95-110.8-230.58-172.29-24.81-21.01-50.47-42.73-75.88-63.31l-8.45-6.84c-43.53-35.29-88.53-71.78-137.73-99.6-47.52-26.87-87.35-33.8-125.34-21.81-32.39,10.21-60.06,31.15-86.83,51.4-5.38,4.07-10.94,8.28-16.43,12.31-5.58,4.1-11.25,8.11-16.85,11.93l-.56-.83c5.59-3.81,11.25-7.82,16.83-11.91,5.48-4.03,11.04-8.23,16.42-12.3,26.83-20.3,54.57-41.29,87.13-51.55,38.28-12.08,78.36-5.12,126.14,21.89,49.28,27.86,94.32,64.38,137.87,99.69l8.45,6.84c25.42,20.58,51.08,42.31,75.9,63.33,72.6,61.47,147.67,125.03,230.43,172.19,35.6,20.28,77.99,39.92,122.53,31.73,39.67-7.29,76.74-28.77,112.6-49.54,7.56-4.38,15.37-8.91,22.92-13.12,72.14-40.26,145.22-79.1,215.89-116.67,9.94-5.29,19.92-10.79,29.57-16.11,58.13-32.07,113.05-62.36,180.94-59.83,69.43,2.59,135.49,27.56,199.38,51.71,31.94,12.07,64.96,24.56,98.01,34.1,42.99,12.41,86.79,20.49,131.62,28.36,8.18,1.44,16.36,2.88,24.54,4.32,27.25,4.81,55.43,9.78,83.2,14.39l-.16,.99c-27.77-4.6-55.96-9.58-83.21-14.39-8.18-1.44-16.36-2.89-24.54-4.32-44.86-7.87-88.69-15.96-131.72-28.38-33.09-9.55-66.13-22.04-98.09-34.12-63.81-24.12-129.79-49.06-199.06-51.65-67.62-2.54-122.41,27.7-180.42,59.7-9.65,5.32-19.63,10.83-29.58,16.12-70.67,37.56-143.74,76.4-215.87,116.66-7.54,4.21-15.01,8.53-22.91,13.11-35.93,20.82-73.08,42.35-112.92,49.66-7.21,1.31-14.33,1.91-21.36,1.91Z"/><path class="bs" d="M814.74,499.36c-37.38,0-73.83-20.85-103.69-37.92-81.1-46.37-153.65-107.42-223.81-166.45-22.45-18.89-45.66-38.42-68.79-57.16-47.23-38.28-97.94-78.25-152.95-109.25-52.02-29.32-95.21-38.41-135.95-28.62-34.43,8.27-64.84,27.85-94.26,46.78-6.29,4.05-12.79,8.23-19.2,12.22-4.92,3.06-9.89,6.06-14.78,8.92l-.5-.86c4.88-2.85,9.85-5.85,14.76-8.9,6.4-3.98,12.9-8.16,19.18-12.21,29.48-18.98,59.97-38.61,94.57-46.91,40.99-9.86,84.42-.73,136.67,28.72,55.08,31.05,105.83,71.04,153.09,109.35,23.14,18.75,46.35,38.28,68.8,57.17,70.13,59.01,142.64,120.03,223.66,166.35,32.88,18.8,73.8,42.2,114.94,37.07,34.86-4.34,67.23-24.03,98.53-43.07,6.51-3.96,12.66-7.7,18.82-11.3,60.17-35.12,124.62-71.54,202.84-114.61,10.78-5.94,21.65-12.15,32.17-18.16,59.62-34.05,121.26-69.26,193.23-70.01,1.08-.01,2.17-.02,3.25-.02,70.53,0,137.97,23.56,203.22,46.36,30.39,10.62,61.81,21.59,93.17,30.07,31.71,8.56,64.42,15.27,96.06,21.76,9.46,1.94,19.25,3.95,28.86,5.97,28.58,6.03,57.48,12.88,85.43,19.49,12.82,3.03,26.07,6.17,39.12,9.19l-.22,.97c-13.05-3.02-26.31-6.16-39.12-9.19-27.94-6.61-56.84-13.46-85.41-19.49-9.61-2.03-19.39-4.03-28.85-5.97-31.65-6.49-64.38-13.2-96.12-21.78-31.39-8.48-62.83-19.47-93.24-30.09-66.17-23.12-134.58-47.07-206.14-46.28-71.71,.75-133.24,35.89-192.74,69.88-10.52,6.01-21.4,12.22-32.18,18.16-78.21,43.07-142.66,79.48-202.82,114.59-6.16,3.6-12.3,7.33-18.81,11.29-31.39,19.09-63.85,38.84-98.92,43.21-3.96,.5-7.92,.73-11.87,.73Z"/><path class="be" d="M832.09,510.87c-40.26,0-86.67-23.7-118.21-41.61-75.16-42.67-142.74-100.25-208.1-155.93-20.74-17.67-42.18-35.93-63.42-53.34-60-49.16-108.03-83.06-155.73-109.9-56.43-31.75-103.15-43.06-147.03-35.59-38.2,6.49-73.08,25.03-106.82,42.95-6.27,3.33-12.75,6.77-19.12,10.07-3.94,2.04-7.99,4.09-12.38,6.26l-.44-.9c4.38-2.17,8.43-4.22,12.36-6.26,6.37-3.29,12.84-6.73,19.11-10.06,33.81-17.96,68.76-36.54,107.12-43.06,44.12-7.51,91.05,3.83,147.69,35.71,47.75,26.87,95.82,60.8,155.87,110,21.25,17.41,42.7,35.68,63.44,53.35,65.32,55.65,132.87,113.2,207.94,155.82,31.76,18.04,78.63,42,118.94,41.47,29.72-.35,58.59-18.55,84.06-34.61,4.76-3,9.25-5.83,13.7-8.53,63.34-38.32,127.59-76.16,190.95-112.46,9.06-5.19,18.18-10.52,27.01-15.67,66.17-38.64,128.66-75.14,204.81-80.48,75.73-5.31,149.92,17.67,221.66,39.9,27.4,8.49,55.73,17.27,83.75,24.34,15.85,4,32.04,7.73,47.71,11.33,23.13,5.32,47.05,10.83,70.31,17.32,9.85,2.75,19.75,6,29.33,9.14,12.42,4.08,25.27,8.29,38.11,11.45,18.47,4.54,37.38,8.67,55.66,12.67,6.94,1.52,13.88,3.04,20.82,4.58l-.22,.98c-6.94-1.54-13.88-3.06-20.82-4.58-18.29-4-37.2-8.14-55.68-12.68-12.88-3.16-25.74-7.38-38.18-11.47-9.56-3.14-19.46-6.38-29.28-9.13-23.24-6.49-47.15-11.99-70.27-17.31-15.67-3.61-31.87-7.33-47.73-11.34-28.04-7.08-56.39-15.87-83.8-24.36-71.66-22.2-145.75-45.16-221.29-39.86-75.91,5.33-138.31,41.77-204.37,80.35-8.83,5.16-17.95,10.49-27.01,15.67-63.36,36.29-127.6,74.12-190.93,112.44-4.45,2.69-8.93,5.52-13.69,8.52-25.58,16.13-54.57,34.41-84.58,34.76-.42,.04-.84,.05-1.25,.05Z"/><path class="ax" d="M840.59,518.59c-.84,0-1.68-.01-2.52-.03-42.32-.98-87.5-15.06-134.3-41.86-44.46-25.47-80.85-58.35-119.38-93.17l-2.4-2.17c-29.09-26.26-60.06-51.96-90.01-76.82-9.54-7.92-19.41-16.11-29.04-24.17-52.46-43.91-104.31-80.32-154.1-108.24-59.46-33.34-109.63-46.79-157.89-42.34-43.01,3.97-83.32,21.49-122.3,38.43-4.64,2.02-9.27,4.03-13.9,6.02-4.53,1.95-9.06,3.87-13.49,5.69l-.38-.92c4.42-1.83,8.95-3.74,13.47-5.69,4.63-1.99,9.26-4,13.9-6.02,39.06-16.97,79.44-34.52,122.61-38.51,48.47-4.47,98.82,9.02,158.47,42.46,49.85,27.95,101.75,64.4,154.26,108.34,9.62,8.06,19.49,16.25,29.03,24.17,29.96,24.86,60.94,50.57,90.04,76.85l2.4,2.17c38.49,34.78,74.84,67.62,119.21,93.04,46.65,26.71,91.68,40.75,133.82,41.72,33.63,.79,57.61-14.08,83.02-29.79,10.46-6.47,20.91-12.94,31.37-19.42,44.73-27.71,90.99-56.36,136.95-83.82,7.65-4.57,15.27-9.17,22.87-13.76,70.77-42.76,137.62-83.14,219.04-92.87,84.33-10.08,168.5,12.28,249.89,33.91,20.78,5.52,42.27,11.23,63.37,16.29,16.01,3.84,32.19,8.6,47.83,13.21,19.08,5.62,38.82,11.44,58.34,15.58,23.95,5.09,48.32,9.92,71.89,14.59,32.33,6.41,65.77,13.04,98.53,20.41l-.22,.98c-32.75-7.37-66.17-14-98.5-20.41-23.57-4.67-47.95-9.51-71.9-14.59-19.56-4.16-39.31-9.98-58.41-15.6-15.63-4.61-31.79-9.37-47.78-13.2-21.11-5.06-42.61-10.77-63.4-16.3-81.31-21.6-165.38-43.94-249.52-33.88-81.2,9.71-147.96,50.04-218.64,92.74-7.6,4.59-15.21,9.19-22.87,13.77-45.96,27.46-92.21,56.11-136.94,83.81-10.45,6.47-20.91,12.95-31.37,19.42-24.9,15.41-48.45,29.98-81.05,29.98Z"/><path class="ar" d="M836.09,527.49c-10.96,0-22.34-.98-34.09-2.93-34.52-5.75-72.92-20.32-111.05-42.14-54.6-31.24-100.22-76.25-144.34-119.79-21.96-21.67-44.68-44.09-68.15-64.44-78.24-67.82-196.05-157.44-315.46-152.66-51.89,2.08-101.24,19.52-148.96,36.39-4.1,1.45-8.21,2.89-12.32,4.32l-.48,.17-.33-.94,.48-.17c4.11-1.43,8.22-2.87,12.32-4.32,47.79-16.89,97.22-34.36,149.26-36.45,119.78-4.79,237.79,84.97,316.16,152.9,23.5,20.37,46.22,42.8,68.2,64.48,44.07,43.49,89.65,88.47,144.12,119.63,50.75,29.04,147.35,70.71,224.14,23.48,26.96-16.58,54.01-34.06,80.18-50.97,21.16-13.67,43.04-27.81,64.75-41.39,3.73-2.34,7.46-4.67,11.18-7.01,75.7-47.48,147.2-92.33,234.52-106.78,102.09-16.91,206.75,7.89,307.96,31.86,4.62,1.1,9.24,2.19,13.85,3.28,9.62,2.27,19.25,4.73,28.55,7.11,20.55,5.25,41.81,10.69,63.55,14.15,65.92,10.5,133.57,23.89,201.07,39.81l-.23,.97c-67.48-15.91-135.1-29.3-200.99-39.79-21.79-3.47-43.07-8.91-63.64-14.17-9.3-2.38-18.92-4.84-28.53-7.1-4.61-1.09-9.22-2.18-13.85-3.28-101.11-23.95-205.67-48.72-307.57-31.85-87.12,14.41-158.54,59.21-234.15,106.64-3.72,2.33-7.45,4.67-11.18,7.01-21.7,13.58-43.58,27.71-64.74,41.38-26.17,16.91-53.23,34.39-80.2,50.98-23.4,14.39-50.21,21.62-80.03,21.62Z"/><path class="ap" d="M839.28,536.68c-14.45,0-29.7-1.53-45.71-4.61-37.36-7.17-79.09-23.24-117.5-45.24-41.77-23.94-79.85-55.26-113.18-93.1-4.14-4.7-8.24-9.4-12.34-14.09-20.82-23.86-40.49-46.4-63.56-67.48-60.82-55.59-182.21-149.11-311.92-150.88-57.09-.76-113.4,14.18-161.7,28.26l-2.26,.66c-3.3,.96-6.6,1.92-9.91,2.89l-.28-.96c3.3-.97,6.61-1.93,9.91-2.89l2.26-.66c48.37-14.09,104.75-29.07,162-28.3,53.11,.72,109.69,16.7,168.17,47.47,48.46,25.5,97.05,60.38,144.41,103.67,23.11,21.12,42.79,43.68,63.64,67.56,4.09,4.69,8.19,9.39,12.33,14.09,33.26,37.76,71.25,69.02,112.92,92.9,34.17,19.58,152.43,79.68,239.42,31.23,27.11-15.1,53.39-33.4,78.8-51.09,12.88-8.97,26.21-18.25,39.4-26.94,85.45-56.31,157.81-100.83,245.92-119.07,91.61-18.98,199.42-12.46,329.59,19.91,24.76,6.16,49.04,9.54,74.75,13.12,3.25,.45,6.51,.91,9.77,1.37,69.03,9.74,143.26,24.21,226.96,44.23l-.23,.97c-83.66-20.01-157.87-34.48-226.86-44.21-3.26-.46-6.52-.91-9.77-1.37-25.74-3.58-50.05-6.97-74.86-13.14-130.02-32.34-237.69-38.85-329.15-19.91-87.94,18.21-160.22,62.68-245.58,118.93-13.18,8.68-26.5,17.95-39.38,26.92-25.43,17.71-51.73,36.02-78.89,51.15-22.23,12.39-48.08,18.61-77.17,18.61Z"/><path class="bv" d="M833.77,542.23c-15.88,0-32.28-1.5-49.15-4.51-41.07-7.32-84.21-23.68-124.75-47.32-45.49-26.51-83.3-57.97-112.39-93.52-7.49-9.14-14.71-18.69-21.69-27.93-12.01-15.89-24.43-32.33-38.54-47.08-77.83-81.37-195.85-138.36-300.67-145.2-62.78-4.1-124.25,8.29-176.11,20.95-3.08,.75-6.18,1.5-9.28,2.25l-.24-.97c3.1-.75,6.2-1.5,9.28-2.25,51.93-12.68,113.49-25.08,176.41-20.97,52.46,3.42,108.67,19.12,162.55,45.42,52.82,25.78,100.81,60.39,138.78,100.08,14.15,14.8,26.59,31.25,38.61,47.17,6.97,9.23,14.19,18.77,21.66,27.9,29.02,35.45,66.74,66.83,112.12,93.29,42.56,24.81,152.69,78.01,255.96,36.19,26.09-10.56,50.1-28.63,73.32-46.11,8.34-6.28,16.97-12.77,25.38-18.65,70.7-49.42,148.66-98.22,239.67-120.42,113.58-27.71,229.65-12.87,329.52,3.21,16.78,2.7,33.99,4.54,50.64,6.31,10.36,1.1,21.07,2.24,31.58,3.58,74.6,9.52,155.56,25.14,254.76,49.16l-.23,.97c-99.17-24.01-180.09-39.63-254.66-49.14-10.49-1.34-21.2-2.48-31.56-3.58-16.66-1.77-33.88-3.6-50.69-6.31-99.77-16.07-215.72-30.89-329.12-3.23-90.85,22.16-168.72,70.9-239.33,120.26-8.39,5.87-17.01,12.36-25.35,18.63-23.27,17.51-47.33,35.62-73.54,46.24-25.62,10.38-53.38,15.58-82.94,15.58Z"/><path class="ba" d="M830.36,548.69c-18.5,0-37.64-1.85-57.34-5.55-43.3-8.14-88.26-25.28-130.01-49.58-48.23-28.08-85-58.66-112.4-93.48-8.68-11.03-16.42-22.98-23.91-34.54-8.08-12.47-16.43-25.37-25.98-37.11-70.85-87.16-197.2-128.33-283.87-137.11-65.68-6.65-133.33-1.92-195.66,13.66l-.24-.97c62.44-15.61,130.21-20.34,196-13.68,51.48,5.21,106.41,20.17,154.65,42.11,54.37,24.73,99.28,57.7,129.9,95.36,9.58,11.78,17.95,24.7,26.04,37.19,7.47,11.54,15.2,23.47,23.86,34.46,27.32,34.72,64,65.22,112.12,93.24,43.69,25.43,157.23,80.39,267.55,41.76,31.51-11.04,56.62-29.9,83.21-49.87l4.35-3.26c83.01-62.27,157.04-101.04,232.98-122.02,110.85-30.63,224.54-23.23,322.4-13.89,120.3,11.48,240.4,31.8,367.19,62.11l-.23,.97c-126.74-30.3-246.8-50.61-367.05-62.09-97.77-9.33-211.35-16.73-322.04,13.85-75.81,20.94-149.74,59.66-232.64,121.86l-4.35,3.26c-26.65,20.02-51.82,38.92-83.48,50.01-25.3,8.88-52.41,13.31-81.05,13.31Z"/><path class="bo" d="M826.05,554.51c-64.2,0-133.75-19.74-199.84-57.76-48.55-27.92-86.83-59.56-113.75-94.03-9.93-12.72-17.92-26.81-25.65-40.43-5.66-9.99-11.52-20.32-18.1-30.03-20.63-30.46-52.67-51.1-78.27-65.68-56.11-31.97-120.13-53.31-185.16-61.72-71.6-9.26-142.17-5.94-204.08,9.6l-.24-.97c62.03-15.57,132.73-18.9,204.46-9.62,65.15,8.43,129.3,29.81,185.52,61.84,25.7,14.63,57.86,35.36,78.61,65.98,6.6,9.75,12.47,20.09,18.15,30.1,7.71,13.59,15.68,27.64,25.56,40.3,26.85,34.37,65.02,65.92,113.47,93.77,94.58,54.41,196.27,71.31,279.01,46.36,30.17-9.1,59.74-25.23,87.89-47.92,70.15-56.56,141.74-95.46,218.85-118.93,220.13-66.97,470.72-21.67,708.74,37.26l-.24,.97c-237.88-58.9-488.31-104.18-708.2-37.28-76.99,23.42-148.46,62.27-218.51,118.75-28.25,22.78-57.94,38.96-88.23,48.1-25.18,7.6-52.08,11.33-79.99,11.34Z"/><path class="bk" d="M820.91,560.16c-68.94,0-142.5-20.49-210.77-59.75-51.44-29.59-91.53-62.97-119.16-99.19-11.03-14.47-19.25-30.55-27.2-46.1-3.49-6.82-7.09-13.88-10.91-20.75-15.23-27.41-40.77-44.79-61.32-56.88-50.69-29.83-111.37-50.21-180.36-60.59-52.66-7.92-131.85-13.24-210,6.38l-.24-.97c78.32-19.66,157.64-14.33,210.4-6.4,69.12,10.39,129.92,30.82,180.72,60.71,20.66,12.15,46.34,29.64,61.68,57.26,3.82,6.88,7.43,13.95,10.92,20.78,7.93,15.51,16.13,31.55,27.11,45.94,27.55,36.12,67.54,69.4,118.86,98.93,95.27,54.8,200.85,72.94,289.66,49.77,32.52-8.49,63.71-23.87,92.72-45.72,7.86-5.92,15.67-12.11,23.22-18.1,15.87-12.59,32.28-25.6,49.96-36.67,38.97-24.37,83.62-44.91,132.73-61.03,106.75-35.06,224.66-46.71,360.47-35.61,125.6,10.26,253.37,39.31,361.79,66.37l-.24,.97c-224.17-55.95-483.3-109.08-721.7-30.78-49.03,16.1-93.61,36.6-132.51,60.93-17.64,11.04-34.02,24.03-49.87,36.6-7.55,5.99-15.37,12.19-23.24,18.11-29.11,21.92-60.42,37.36-93.06,45.88-25.41,6.65-52.17,9.91-79.66,9.91Z"/><path class="bw" d="M814.66,565.74c-73.37,0-150.01-20.88-219.15-60.77-76.8-44.31-127.97-98.23-161.02-169.67-10.36-22.38-26.79-38.75-54.95-54.77-45.06-25.63-100.04-43.17-168.09-53.62-54.9-8.43-135.94-14.53-210.25,4.31l-.25-.97c74.48-18.88,155.66-12.78,210.65-4.33,68.17,10.47,123.27,28.05,168.43,53.74,28.36,16.12,44.92,32.64,55.37,55.21,32.97,71.25,84,125.02,160.62,169.23,94.79,54.69,203.71,73.57,298.83,51.79,35.67-8.16,69.23-23.19,99.74-44.67,10.17-7.15,20.15-14.84,29.8-22.29,13.34-10.29,27.14-20.93,41.64-30.29,37.28-24.06,78.92-44.35,123.77-60.32,77.53-27.59,164.26-41.98,281.2-46.66,29.2-1.16,60.35,.23,98.03,4.37,121.11,13.31,240.83,41.13,352.17,69.21l-.24,.97c-111.3-28.07-230.99-55.88-352.03-69.19-37.63-4.14-68.73-5.53-97.89-4.37-116.84,4.67-203.47,19.04-280.9,46.6-44.78,15.94-86.35,36.2-123.57,60.22-14.46,9.33-28.24,19.96-41.57,30.24-9.66,7.45-19.65,15.15-29.83,22.31-30.62,21.55-64.29,36.64-100.1,44.83-25.97,5.97-52.96,8.89-80.41,8.89Z"/><path class="bj" d="M806.67,571.68c-25.07,0-50.37-2.24-75.76-6.72-52.28-9.23-102.04-27.42-147.92-54.06-82.66-47.99-139.16-106.9-167.93-175.1-31.97-75.77-145.94-92.62-207.17-101.67-82.89-12.26-152.43-10.96-206.7,3.87l-.26-.96c54.4-14.86,124.08-16.17,207.1-3.89,36.9,5.45,79.49,12.5,117.95,27.13,46.72,17.78,76.16,42.35,89.99,75.14,28.68,67.99,85.04,126.74,167.51,174.62,93.08,54.05,204.56,73.11,305.86,52.28,38.42-7.9,74.2-22.37,106.35-43.02,12.58-8.08,24.72-17.22,36.46-26.07,10.85-8.17,22.07-16.62,33.62-24.23,35.25-23.2,74.14-43.18,115.6-59.38,75.33-29.43,161.5-47.49,263.42-55.19,35.53-2.69,71.54,.47,102.08,3.91,127.63,14.36,255.32,44.32,374.3,74.55l-.25,.97c-118.94-30.22-246.59-60.17-374.16-74.53-30.5-3.43-66.45-6.59-101.9-3.91-101.83,7.7-187.9,25.73-263.14,55.13-41.4,16.17-80.23,36.12-115.42,59.28-11.53,7.59-22.73,16.03-33.57,24.19-11.75,8.86-23.91,18.01-36.52,26.11-32.25,20.72-68.15,35.24-106.69,43.16-27.14,5.59-54.85,8.38-82.85,8.39Z"/><path class="bb" d="M796.01,578.12c-79.03,0-155.89-20.27-222.69-59.5-39.35-23.11-73.94-49.09-102.82-77.2-34.06-33.16-59.22-68.53-74.78-105.13-9.35-22-18.92-37.32-40.15-50.48-46.45-28.8-105.79-40.14-152.3-46.8-85.81-12.29-151.9-10.52-202.05,5.41l-.3-.95c50.3-15.98,116.53-17.76,202.49-5.45,46.6,6.67,106.07,18.04,152.68,46.94,21.46,13.3,31.11,28.75,40.55,50.94,36.43,85.69,116.46,146.2,177.18,181.86,91.26,53.61,201.38,71.73,310.06,51.02,67.21-12.81,123.58-49.12,178.08-84.24,35.63-22.95,72.47-46.69,112.29-63.95,73.08-31.68,157.66-53.45,244.59-62.98,34.49-3.77,70-.36,103.41,3.46,126.99,14.52,251.32,42.66,398.93,80.43l-.25,.97c-147.57-37.77-271.86-65.89-398.79-80.41-33.36-3.81-68.8-7.22-103.19-3.46-86.84,9.51-171.32,31.27-244.31,62.9-39.74,17.23-76.55,40.94-112.15,63.87-54.59,35.17-111.03,71.53-178.44,84.38-29.35,5.6-58.86,8.36-88.04,8.37Z"/><path class="as" d="M780.84,585.53c-15.74,0-31.33-.73-46.73-2.18-52.28-4.95-103.98-22.38-158.05-53.29-43.12-24.65-81.21-52.06-113.22-81.49-38.38-35.27-67.03-72.68-85.14-111.18l-.69-1.48c-9.79-20.83-17.53-37.29-38.31-50.64-41.15-26.45-94.27-36.64-140.82-43.13-54.74-7.62-134.68-14.94-196.61,9.33l-.37-.93c62.15-24.36,142.26-17.02,197.11-9.39,46.65,6.5,99.91,16.72,141.22,43.27,21.03,13.51,28.82,30.08,38.68,51.06l.7,1.48c42.06,89.38,130.87,153.87,197.96,192.22,53.94,30.84,105.51,48.23,157.65,53.17,46.77,4.42,95.3,2.11,144.22-6.88,44.21-8.13,84.99-21.98,121.21-41.17,17.22-9.13,33.16-20.56,48.58-31.61,6.55-4.69,13.32-9.54,20.12-14.18,31.19-21.24,64.76-40.47,99.78-57.15,31.34-14.92,63.86-28.05,96.68-39.02l.08-.07h.13c8.4-2.82,16.95-5.52,25.4-8.05l.37-.11c.19-.06,.38-.12,.57-.17h.01l.11-.04c10.82-3.21,21.49-6.14,31.71-8.71l.22,.46-.12-.48c1.64-.41,3.27-.82,4.91-1.22l.51-.12c4.06-.99,7.82-1.88,11.5-2.71,.04-.02,.13-.03,.23-.05l.51-.13c5.53-1.24,10.48-2.3,15.16-3.25,5.3-1.08,10.69-2.11,16.46-3.14,.1-.02,.17-.03,.26-.03,6.41-1.15,13.17-2.24,20.01-3.22,34.31-4.95,69.68-.8,103.88,3.21,145.88,17.12,290.24,51.7,424.51,86.53l-.25,.97c-134.23-34.82-278.55-69.4-424.37-86.51-34.14-4-69.44-8.14-103.62-3.21-6.83,.98-13.58,2.07-20.06,3.23l-.16,.02c-5.78,1.03-11.16,2.06-16.45,3.14-4.67,.94-9.61,2-15.12,3.24l-.55,.13c-.1,.02-.13,.02-.16,.03-3.73,.85-7.51,1.74-11.58,2.73l-.44,.11c-1.63,.4-3.27,.81-4.9,1.22l-.1,.03c-10.17,2.56-20.79,5.47-31.56,8.66l-.02,.02-.13,.04c-.21,.06-.43,.12-.65,.19l-.44,.13c-8.41,2.52-16.91,5.21-25.27,8l-.08,.07h-.13c-32.79,10.96-65.29,24.07-96.6,38.98-34.97,16.66-68.5,35.86-99.64,57.07-6.79,4.63-13.56,9.48-20.1,14.17-15.45,11.07-31.42,22.52-48.7,31.68-36.31,19.24-77.19,33.12-121.49,41.27-32.96,6.05-65.69,9.08-97.82,9.08Z"/><path class="au" d="M769.39,594.69c-11.11,0-22.32-.49-33.4-1.62-48.38-4.95-99.19-22.18-155.31-52.69-44.19-24.01-86.44-53.46-122.19-85.18-40.96-36.35-73.17-75.11-95.73-115.21-2.18-3.88-4.23-7.76-6.21-11.5-8.21-15.54-15.97-30.22-31.49-41.58-36.45-26.66-87.75-36.55-133.12-42.71-53.49-7.26-131.46-13.52-190.65,15.77l-.44-.9c59.44-29.42,137.6-23.15,191.23-15.87,45.5,6.18,96.94,16.1,133.58,42.89,15.71,11.49,23.52,26.27,31.78,41.92,1.98,3.74,4.02,7.61,6.2,11.48,42.12,74.88,121.41,147.78,217.52,200.01,56,30.44,106.68,47.64,154.93,52.57,49.72,5.09,101.95-2.9,136.92-9.35,46.38-8.57,89.11-22.11,127.01-40.23,30.65-14.64,59.45-34.26,87.31-53.23,24.16-16.45,49.15-33.47,75.28-47.21,23.24-12.21,46.07-23.24,67.86-32.79l.09-.05c8.94-3.91,17.77-7.6,26.24-10.97,1.29-.52,2.6-1.04,3.9-1.55l.35-.14c7.82-3.06,15.63-5.97,23.21-8.65l.08-.03c3.89-1.38,7.78-2.71,11.58-3.97l.09-.03c7.75-2.58,15.43-4.96,22.84-7.08l.05-.05h.14c3.25-.96,6.72-1.92,10.59-2.96l.08-.02c3.44-.92,6.96-1.82,10.47-2.67,.05-.02,.14-.04,.24-.05l.63-.16c4.31-1.05,8.76-2.06,13.23-3l.03-.03h.16c4.04-.86,8.04-1.64,11.89-2.34,1.95-.35,3.98-.68,6.21-1l.15-.02c32.14-4.49,65.74-.07,98.24,4.21,5.1,.67,10.15,1.33,15.13,1.96,154.45,19.25,306.63,56.62,435.12,90.63l-.26,.97c-128.46-34.01-280.59-71.37-434.98-90.61-4.99-.62-10.04-1.29-15.14-1.96-32.44-4.27-65.98-8.68-97.9-4.22l-.21,.03c-2.21,.32-4.23,.65-6.18,1-3.82,.68-7.79,1.46-11.79,2.3l-.05,.04h-.19c-4.43,.93-8.89,1.95-13.21,3l-.68,.17c-.1,.02-.13,.02-.16,.03-3.56,.86-7.09,1.76-10.54,2.69l-.08,.02c-3.82,1.02-7.25,1.98-10.46,2.91h-.01l-.13,.05c-7.45,2.13-15.19,4.54-23,7.13l-.09,.03c-3.75,1.25-7.59,2.57-11.43,3.92l-.07,.07h-.14c-7.55,2.68-15.32,5.57-23.1,8.62l-.35,.14c-1.3,.51-2.61,1.03-3.9,1.55-8.43,3.36-17.22,7.03-26.12,10.92l-.1,.05c-21.79,9.55-44.63,20.58-67.88,32.79-26.08,13.71-51.04,30.71-75.18,47.15-27.89,18.99-56.72,38.62-87.44,53.3-37.97,18.16-80.79,31.72-127.26,40.31-27.23,5.04-64.93,11-103.79,11Z"/><path class="bp" d="M773.74,602.81c-10.77,0-21.63-.58-32.52-1.95-49.96-6.25-103.25-23.81-158.38-52.18-91.6-47.14-173.53-119.62-230.71-204.1-3.66-5.4-7.07-11.02-10.38-16.45-9.31-15.31-18.11-29.76-32.36-40.93-33.95-26.62-81.53-35.89-123.6-41.46-50.91-6.73-125.42-11.5-184.46,24.56l-.52-.85c59.31-36.23,134.06-31.45,185.12-24.7,42.2,5.58,89.94,14.9,124.08,41.66,14.39,11.28,23.65,26.49,32.59,41.2,3.3,5.42,6.71,11.03,10.35,16.41,57.09,84.34,138.89,156.71,230.34,203.78,55.02,28.32,108.2,45.84,158.04,52.08,44.34,5.54,88.44-1.83,126.3-9.18,50.97-9.88,95.58-23.52,136.36-41.7,33.16-14.79,63.9-36.18,93.63-56.88,19.36-13.47,39.38-27.41,59.8-39.32,11.79-6.87,24.25-13.68,37.07-20.25l.07-.04c7.96-4.08,16-8.07,23.91-11.84l.08-.05c6.53-3.13,13.43-6.35,20.49-9.56l.1-.06c3.82-1.73,8.33-3.76,12.91-5.77l.11-.04c2.07-.93,4.15-1.84,6.24-2.74,5.86-2.57,12.08-5.23,19.62-8.4,2.67-1.13,5.37-2.25,8.05-3.37l1.4-.58c4.02-1.66,8.13-3.47,12.11-5.21l2.79-1.22c5.22-2.29,10.82-4.71,16.43-6.86l.07-.07h.12c1.37-.54,2.75-1.05,4.12-1.55l.1-.03c1.18-.43,2.35-.84,3.54-1.23l.09-.03c4.23-1.42,8.37-2.58,12.33-3.47,4.82-1.07,9.9-1.93,15.1-2.55l.02-.02h.22c.49-.08,1.04-.14,1.6-.2,33.55-3.69,71.35,2.04,104.69,7.11,9.79,1.49,19.05,2.89,28.07,4.06,150.72,19.58,296.84,56.46,432.31,93.38l-.26,.96c-135.43-36.92-281.52-73.78-432.17-93.36-9.04-1.17-18.29-2.58-28.09-4.07-33.29-5.05-71.01-10.78-104.44-7.1-.5,.05-1.01,.11-1.51,.17l-.03,.03h-.19s-.06,.01-.1,.01c-5.13,.61-10.2,1.47-15,2.54-3.95,.88-8.09,2.05-12.31,3.47l-.09,.03c-1.15,.38-2.29,.78-3.44,1.2l-.1,.03c-1.36,.49-2.73,1-4.09,1.52l-.1,.04c-5.65,2.17-11.31,4.61-16.58,6.92l-2.69,1.17c-3.98,1.75-8.1,3.55-12.13,5.22l-1.4,.58c-2.69,1.12-5.38,2.23-8.05,3.37-7.54,3.17-13.76,5.83-19.56,8.37-2.18,.94-4.29,1.87-6.39,2.81l-.12,.04c-4.49,1.97-8.92,3.97-12.68,5.67l-.12,.18-.16-.05c-7.01,3.18-13.85,6.38-20.33,9.49l-.09,.05c-7.9,3.77-15.94,7.75-23.9,11.83l-.07,.04c-12.82,6.57-25.29,13.39-37.08,20.26-20.39,11.89-40.39,25.81-59.74,39.28-29.77,20.72-60.55,42.14-93.79,56.97-40.85,18.21-85.53,31.87-136.58,41.76-28.61,5.6-60.84,11.17-94.06,11.17Z"/><path class="ao" d="M788.91,608.45c-64.96,0-132.87-17.54-205.69-52.94-60.05-29.18-112.04-65.68-154.51-108.48-24.22-24.41-46.31-51.72-67.67-78.12-4.61-5.7-9.22-11.39-13.84-17.05-5.64-6.91-10.99-14.34-16.17-21.53-10.94-15.19-22.25-30.89-36.99-42.76-33.76-27.19-81.43-35.94-114.34-40.15-52.33-6.7-95.34-4.21-131.47,7.62-15.92,5.21-30.81,13.45-46.85,25.94l-.62-.8c16.13-12.56,31.11-20.85,47.15-26.1,36.28-11.88,79.42-14.38,131.91-7.66,33.03,4.23,80.88,13.01,114.84,40.37,14.85,11.96,26.2,27.72,37.18,42.96,5.17,7.18,10.52,14.6,16.14,21.49,4.62,5.66,9.23,11.35,13.84,17.05,21.35,26.39,43.43,53.67,67.61,78.05,42.39,42.72,94.28,79.15,154.23,108.28,100.59,48.9,191.76,63.65,278.72,45.11,53.7-11.46,99.88-25.25,141.18-42.18,37.74-15.48,71.45-39.57,104.04-62.87,14.52-10.38,29.53-21.11,44.71-30.94,10.79-6.99,21.99-13.92,34.26-21.2,6.91-4.1,14.21-8.34,21.7-12.59l.07-.04c5.66-3.21,11.48-6.46,17.77-9.93l.12-.06c8.48-4.68,17.51-9.59,27.62-15l.13-.06c1.02-.55,2.04-1.09,3.06-1.64l1.34-.72c2.78-1.48,5.51-2.93,8.24-4.38,1.83-.97,3.77-2.05,5.92-3.3l.13-.07c1.92-1.12,3.87-2.27,5.82-3.43,1.87-1.11,3.76-2.23,5.67-3.34l.13-.07c1.92-1.11,4.19-2.41,6.55-3.67l.21-.11c.09-.05,.17-.09,.25-.14l.15-.07c7.54-4,13.75-6.49,19.57-7.84,4.78-1.11,9.98-1.81,15.88-2.14,.61-.05,1.21-.08,1.82-.1,.29-.02,.59-.03,.89-.04h.13c11.73-.44,23.92,.53,35.72,1.46,5.52,.44,10.74,.85,15.74,1.11,33.73,1.73,68.88,5.11,107.46,10.33,148.66,20.12,295.74,58.49,432.55,96.95l-.27,.96c-136.77-38.46-283.82-76.81-432.41-96.93-38.55-5.22-73.67-8.6-107.38-10.33-5.02-.26-10.24-.67-15.77-1.11-11.77-.93-23.94-1.9-35.58-1.46h-.16c-.29,.01-.58,.02-.86,.04-.61,.02-1.21,.05-1.8,.1-5.87,.33-11.01,1.02-15.74,2.12-5.76,1.34-11.92,3.81-19.4,7.78l-.12,.06c-.07,.04-.13,.07-.2,.11l-.32,.17c-2.32,1.24-4.56,2.52-6.45,3.62l-.1,.1h-.09c-1.87,1.09-3.72,2.18-5.55,3.27-2,1.19-3.99,2.37-5.95,3.5l-.13,.07c-2.12,1.23-4.03,2.29-5.84,3.25-2.73,1.45-5.46,2.9-8.18,4.35l-1.4,.75c-1.06,.57-2.11,1.13-3.17,1.7l-.13,.06c-10.07,5.39-19.07,10.28-27.52,14.95l-.1,.09h-.08c-6.24,3.46-12,6.68-17.62,9.86l-.06,.04c-7.5,4.26-14.82,8.51-21.74,12.62-12.25,7.27-23.45,14.2-34.22,21.18-15.16,9.82-30.16,20.54-44.67,30.91-32.64,23.33-66.39,47.46-104.25,62.98-41.36,16.95-87.6,30.77-141.35,42.24-24.21,5.16-48.73,7.75-73.69,7.75Z"/><path class="aq" d="M1488.07,394.47c-70.42-9.96-127.65-13.45-180.1-10.99-.96,.05-1.92,.08-2.88,.11-.53,.02-1.06,.04-1.58,.06l-1.04,.03h-.09c-.93,.03-1.87,.05-2.8,.08-1.19,.04-2.37,.08-3.54,.13h-.06c-.36,.02-.72,.03-1.08,.05-.51,.02-1.02,.04-1.53,.07-.77,.05-1.54,.09-2.33,.15-.04,0-.08,0-.11,.01-.15,0-.29,.01-.43,.03h-.05c-6.64,.51-15.26,1.71-23.06,6.48-.9,.56-1.7,1.08-2.45,1.58,0,.01-.01,.01-.01,.01l-.18,.11c-.92,.62-1.86,1.28-2.85,2-1.1,.79-2.27,1.67-3.55,2.65-.03,.02-.06,.05-.09,.07-.52,.4-1.06,.8-1.58,1.2l-.02,.02-.06,.05-1.27,.99-1.47,1.14c-2.08,1.6-4.22,3.22-6.35,4.71-.68,.48-1.37,.96-2.07,1.44l-.05,.03-.09,.06c-.72,.51-1.45,1.02-2.18,1.52-1.22,.86-2.45,1.7-3.67,2.55l-.27,.19h-.03l-.09,.08c-1.58,1.09-3.16,2.18-4.75,3.26-2.68,1.85-5.37,3.69-8.08,5.56h-.01l-.11,.06-.04,.03c-3.02,2.07-6.04,4.12-9.07,6.17-2.62,1.79-5.25,3.58-7.87,5.36l-4.93,3.35-.38,.26-.03,.02h-.04l-.19,.13-6.44,4.41s-.03,.02-.05,.03l-.02,.02c-4.91,3.33-9.79,6.68-14.71,10.07-.01,0-.02,.01-.03,.02h-.01l-.67,.47-3.36,2.32s-.03,.02-.04,.03c-11.72,8.12-21.97,15.41-31.35,22.29-7.72,5.67-15.46,11.49-22.95,17.12-38.43,28.87-74.72,56.15-119.33,73.49-49.04,19.07-95.8,33.34-138.97,42.44-81.53,17.17-176.66,1.2-282.74-47.48-62.72-28.78-116.11-64.45-158.68-106.03-23.06-22.51-42.7-48.29-61.7-73.23-5.41-7.09-11-14.43-16.6-21.6-18.8-24.09-40.12-51.39-64.3-71.04-25.95-21.09-61.13-34.11-107.56-39.81-48.61-5.96-90.2-2-123.6,11.77-20.57,8.47-36.67,21.42-49.71,32.97l.66,.74c12.98-11.49,29-24.38,49.43-32.79,33.25-13.7,74.66-17.63,123.1-11.69,46.23,5.67,81.25,18.62,107.04,39.59,24.11,19.58,45.38,46.83,64.16,70.88,5.59,7.16,11.18,14.49,16.58,21.59,19.02,24.96,38.69,50.78,61.8,73.34,42.66,41.65,96.14,77.39,158.96,106.21,47.76,21.92,94.16,37.4,137.91,46.02,27.55,5.43,54.15,8.15,79.61,8.15,22.93,0,44.92-2.2,65.84-6.61,43.23-9.11,90.04-23.4,139.13-42.48,44.74-17.4,81.09-44.71,119.57-73.63,7.49-5.63,15.23-11.45,22.95-17.12,8.33-6.12,17.37-12.57,27.52-19.64,.07-.05,.13-.09,.2-.14,1.2-.83,2.41-1.68,3.64-2.53l.07-.05h.01l4.02-2.78s.02-.01,.03-.02h.01c2.32-1.61,4.65-3.21,6.98-4.8,2.57-1.77,5.15-3.53,7.74-5.29,.01-.01,.03-.02,.04-.03l6.44-4.38,.06-.03,.03-.02,5.43-3.68c.71-.48,1.42-.97,2.13-1.45,4.9-3.33,9.8-6.66,14.69-10.01,0-.01,.01-.01,.01-.01l.14-.09h.01c2.79-1.91,5.58-3.82,8.35-5.73,1.48-1.01,2.95-2.03,4.41-3.04,.04-.03,.07-.05,.11-.08l.47-.31c1.39-.96,2.78-1.92,4.16-2.88,.53-.37,1.05-.73,1.57-1.1l.04-.03,.09-.06c.71-.49,1.42-.98,2.12-1.47l.09-.06c2.65-1.85,5.3-3.9,7.86-5.88l1.3-1,.03-.03c.49-.39,.99-.77,1.49-1.15,.03-.02,.06-.05,.09-.07,.44-.34,.87-.67,1.29-.98,.11-.09,.23-.18,.34-.27,1.73-1.29,3.26-2.39,4.72-3.37h.01l.12-.08,.04-.03c.83-.57,1.68-1.11,2.53-1.63,.3-.18,.6-.36,.91-.54,5.47-3.13,11.32-4.55,16.55-5.26,.01,0,.02-.01,.04,0,1.15-.16,2.26-.29,3.34-.38,.64-.07,1.26-.12,1.86-.16,.16-.02,.32-.03,.51-.04h.08c.43-.04,.85-.06,1.27-.09,1.21-.08,2.41-.14,3.62-.18h.06c1.25-.06,2.52-.1,3.79-.14,.85-.02,1.71-.05,2.57-.07h.09l.94-.03c1.49-.05,2.99-.1,4.47-.17,52.39-2.46,109.56,1.03,179.92,10.98,138.2,19.53,273.05,54.46,433,100.89l.28-.96c-159.99-46.45-294.88-81.38-433.14-100.92Z"/><path class="bl" d="M810.06,619.96c-86.14,0-169.4-27.28-228.78-53.02-101.88-44.15-181.48-109.93-243.37-201.1-45.36-66.82-102.26-104.61-169.13-112.31-43.82-5.04-83.62,.47-115.11,15.94-19.72,9.7-35.98,23.89-52.26,38.8l-.67-.74c16.34-14.96,32.65-29.2,52.5-38.96,31.66-15.56,71.66-21.1,115.67-16.04,67.17,7.74,124.32,45.67,169.85,112.75,61.77,91,141.24,156.67,242.94,200.74,73.28,31.77,182.99,65.89,289.48,48.01,46.81-7.87,92.92-24.48,136.13-40.82,51.8-19.6,91.14-50.84,133.58-86.65,7.01-5.92,14.12-11.79,20.75-17.25l5.19-4.28c9.93-8.18,20.18-16.62,30.27-25.29l2.29-1.96c3.41-2.95,6.23-5.43,8.87-7.79,3.47-3.07,6.9-6.17,10.19-9.24,2.52-2.33,4.72-4.4,6.75-6.35,.92-.88,1.78-1.71,2.59-2.51l.16-.15c.86-.84,1.67-1.63,2.46-2.38,6-5.71,10.47-8.76,19.69-10.69,2.69-.56,5.43-1.09,8.38-1.63,.88-.16,1.77-.32,2.67-.47,3.89-.67,7.78-1.27,11.58-1.8,1.82-.25,3.64-.49,5.45-.71,10.71-1.35,22.07-2.33,34.73-2.99,51.92-2.72,107.18,.96,179.19,11.92,151.15,22.99,300.76,65.93,429.12,104.38l-.29,.96c-128.33-38.43-277.89-81.36-428.98-104.34-71.94-10.95-127.15-14.61-178.99-11.91-12.64,.67-23.98,1.64-34.66,2.99-1.81,.22-3.62,.46-5.42,.71-3.8,.53-7.69,1.13-11.56,1.8-.89,.15-1.78,.31-2.65,.47-2.95,.54-5.68,1.07-8.36,1.63-9.8,2.05-14.14,5.61-19.2,10.42-.84,.8-1.69,1.63-2.59,2.51l-.15,.14c-.78,.77-1.6,1.56-2.47,2.39-2.04,1.96-4.25,4.03-6.76,6.36-3.31,3.08-6.74,6.19-10.21,9.26-2.66,2.38-5.48,4.86-8.89,7.81l-2.27,1.94c-10.11,8.7-20.37,17.15-30.3,25.32l-5.2,4.29c-6.63,5.46-13.74,11.33-20.75,17.25-42.5,35.88-81.92,67.17-133.87,86.83-43.26,16.36-89.41,32.99-136.31,40.88-20.41,3.36-40.93,4.88-61.28,4.88Z"/><path class="bh" d="M818.74,621.08c-31.65,0-63.96-2.69-96.57-8.06-48.18-7.94-95.91-21.52-141.88-40.37-53.98-22.13-102.15-49.41-143.17-81.07-45.89-35.42-83.07-76.57-110.5-122.29-37.86-63.12-96.94-103.24-162.08-110.07-42.07-4.41-81.4,3.35-110.74,21.84-18.84,11.87-36.21,26.63-52.4,40.74l-.66-.75c16.21-14.13,33.63-28.93,52.52-40.84,29.53-18.61,69.09-26.42,111.38-21.98,65.46,6.86,124.81,47.16,162.84,110.55,52.34,87.25,137.53,155.53,253.19,202.95,163.79,67.17,395.14,83.26,553.25-73.02,5.1-5.04,9.83-9.78,14.44-14.49v-.3h.3c6.27-6.4,12.36-12.74,18.1-18.86,2.97-3.16,5.85-6.27,8.6-9.26l.11-.12,.8-.87c.64-.7,1.28-1.41,1.92-2.11,.28-.29,.52-.56,.77-.84,2.49-2.75,4.96-5.92,7.48-9.2l.88-1.15c2.29-2.97,4.65-6.05,7.11-8.87,3.26-3.76,6.11-6.47,8.98-8.53,6.62-4.78,14.86-8.93,24.47-12.34l.07-.07h.13c5.37-1.9,11.23-3.6,17.42-5.05h.07c2.55-.6,4.65-1.05,6.62-1.45l.08-.02h.06l1.8-.35c22.35-4.33,46.09-5.63,63.42-6.57,64.86-3.52,129.4,5.21,178.38,13.2,148.87,24.3,297.6,68.37,425.32,107.77l-.29,.96c-127.69-39.39-276.37-83.45-425.18-107.73-48.93-7.98-113.39-16.7-178.16-13.18-17.27,.94-40.91,2.23-63.26,6.54h-.01l-2,.4h-.06c-1.87,.38-3.99,.84-6.55,1.43h-.06c-6.13,1.45-11.93,3.13-17.24,5l-.11,.04c-9.57,3.38-17.75,7.5-24.32,12.24-2.8,2.01-5.59,4.67-8.79,8.36-2.45,2.81-4.8,5.87-7.08,8.83l-.88,1.15c-2.53,3.3-5.01,6.49-7.53,9.26-.25,.28-.51,.57-.77,.84-.64,.71-1.28,1.41-1.92,2.12l-.92,1.01c-2.74,2.99-5.63,6.1-8.58,9.24-5.77,6.16-11.89,12.52-18.19,18.94l-.09,.09c-4.67,4.76-9.44,9.55-14.6,14.65-35.71,35.3-77.36,63.44-123.78,83.65-43.35,18.87-90.9,30.87-141.33,35.65-16.72,1.56-33.67,2.35-50.81,2.36Z"/><path class="bg" d="M1495.07,419.24c-50.98-8.73-111.43-17.2-173.13-13.92-44.12,2.35-80.18,10.72-110.11,25.58-.99,.49-1.98,.99-2.96,1.5-1.63,.85-3.25,1.72-4.82,2.6-.08,.04-.15,.09-.23,.13l-.03,.02-.09,.05c-.05,.03-.09,.05-.14,.08-1.32,.75-2.67,1.54-4.13,2.43h-.01c-5.84,3.58-11.41,7.52-17.08,12.1-.01,0-.02,.01-.03,.02h-.01c-.31,.26-.61,.51-.92,.76-1.98,1.63-3.96,3.33-5.92,5.09l-.07,.07c-.13,.12-.26,.23-.39,.35-4.42,3.98-8.8,8.29-13.36,13.16,0,.01-.01,.02-.03,.03-.01,.02-.02,.03-.04,.05-1.61,1.71-3.25,3.48-4.94,5.36-2.49,2.78-5.12,5.81-8,9.2h-.27v.33c-2.49,2.94-4.94,5.89-7.44,8.91-1.37,1.67-2.76,3.36-4.18,5.08-3.56,4.33-7.24,8.81-10.99,13.27-51.12,60.73-133.47,97.87-244.77,110.38-94.02,10.56-200.71-4.96-300.42-43.72-73.72-28.65-206.52-93.76-267.69-207.82-32.75-61.07-86.49-97.96-151.31-103.88-29.4-2.68-57.87,2.88-87.07,17.01-27.19,13.17-51.51,31.91-73.74,50.21l.64,.78c45.16-37.18,94.72-72.98,160.07-67,64.49,5.89,117.94,42.59,150.53,103.36,24.93,46.49,64.09,89.29,116.37,127.2,42.86,31.09,95.37,59.12,151.84,81.08,48.17,18.72,97.76,32.09,147.38,39.73,31.77,4.89,63.04,7.35,93.51,7.34,20.39,0,40.43-1.09,60.01-3.29,50.27-5.65,95.38-16.6,134.09-32.52,46.19-19.01,83.64-45.33,111.32-78.22,3.76-4.46,7.44-8.94,11.01-13.28,3.97-4.83,7.72-9.39,11.58-13.95l.1-.12,.02-.02,.03-.04c4.85-5.73,8.98-10.38,13-14.65l.05-.05c2.15-2.3,4.26-4.47,6.35-6.53,2.49-2.48,4.96-4.81,7.45-7.04l.04-.04s.01-.01,.01-.01l.05-.05c2.19-1.96,4.45-3.89,6.74-5.75,.01,0,.02-.01,.03-.02h.01c3.56-2.88,7.1-5.51,10.69-7.96,2.07-1.41,4.16-2.75,6.28-4.05,.01-.01,.03-.02,.04-.02l.03-.03c1.46-.89,2.83-1.69,4.16-2.44l.06-.03,.03-.02,.11-.06c1.61-.91,3.28-1.82,4.95-2.69,30.38-15.72,67.23-24.54,112.67-26.96,61.6-3.28,121.97,5.19,172.91,13.9,148.21,25.37,291.72,69.09,426.01,111.71l.3-.96c-134.32-42.62-277.87-86.36-426.15-111.73Z"/><path class="at" d="M818.02,628.9c-80.41,0-161-14.26-236.37-42.1-74.63-27.58-140.97-65.76-197.18-113.49-27.86-23.66-67.41-59.97-89.06-102.03-1.43-2.78-2.81-5.51-4.16-8.2-9.26-18.39-17.26-34.28-34.48-48.37-26.09-21.33-59.98-34.34-95.44-36.62-62.36-4.03-113.73,30.19-159.94,67.76l-.63-.78c46.38-37.7,97.93-72.01,160.64-67.97,35.66,2.29,69.75,15.38,96,36.84,17.39,14.22,25.43,30.2,34.74,48.69,1.35,2.68,2.72,5.41,4.15,8.19,21.57,41.9,61.02,78.13,88.82,101.73,56.12,47.65,122.36,85.78,196.88,113.31,96.41,35.61,201.37,48.97,303.55,38.65,114.61-11.58,193.98-45.5,242.67-103.69l3.78-4.52c25.02-29.97,48.65-58.28,83.11-76.73,30.29-16.21,66.64-25.16,111.12-27.35,59.74-2.94,119.7,6.01,170.46,15.15,147.59,26.59,290.66,71.36,424.55,114.95l-.31,.95c-133.85-43.57-276.88-88.34-424.42-114.91-50.71-9.13-110.59-18.06-170.24-15.13-44.33,2.18-80.54,11.09-110.7,27.23-34.29,18.36-57.86,46.6-82.82,76.49l-3.78,4.52c-26.85,32.09-64.06,57.32-110.61,75-37.76,14.34-81.17,23.84-132.72,29.05-22.44,2.26-45.02,3.38-67.61,3.38Z"/><path class="bf" d="M806.11,632.23c-78.91,0-152.89-12-220.78-35.89-76.14-26.78-148.75-67.73-209.99-118.4-39.75-32.88-79.13-68.64-98.02-107.25-2.22-4.53-4.13-8.95-5.99-13.23-5.62-12.95-10.93-25.18-22.88-36.03-22.38-20.34-55.49-32.44-90.84-33.19-61.82-1.35-113.66,33.78-156.21,68.28l-.63-.78c42.69-34.62,94.72-69.83,156.87-68.5,35.59,.76,68.94,12.95,91.5,33.45,12.11,11,17.46,23.33,23.12,36.38,1.85,4.26,3.76,8.67,5.97,13.18,18.8,38.45,58.1,74.11,97.76,106.92,61.15,50.6,133.66,91.48,209.69,118.22,91.34,32.14,193.74,42.73,304.35,31.48,74.22-7.55,180.22-26,243.56-98.74,2.81-3.23,5.6-6.47,8.39-9.7,23.29-27.03,47.37-54.97,80.18-72.71,29.76-16.1,65.18-24.82,108.3-26.66,58.54-2.48,116.47,6.63,170.34,16.85,146.95,27.88,294.08,75.09,420.45,117.16l-.32,.95c-126.34-42.05-273.43-89.25-420.31-117.12-53.82-10.21-111.68-19.32-170.12-16.83-42.96,1.83-78.24,10.51-107.86,26.54-32.65,17.65-56.67,45.53-79.9,72.48-2.79,3.24-5.58,6.48-8.39,9.7-27.55,31.64-64.11,55.2-111.74,72.03-36.84,13.01-78.94,21.61-132.48,27.05-28.58,2.91-56.6,4.36-84.02,4.36Z"/><path class="b`" d="M783.26,637.26c-71.16,0-133.52-9.56-191.37-28.98-76.92-25.83-150.19-66.14-217.77-119.82-41.49-32.96-87.85-71.88-112.94-116.78-3.12-5.59-5.54-11.25-7.87-16.71-4.82-11.29-9.37-21.96-19.53-31.12-19.66-17.73-50.1-27.22-83.48-26.03-60.2,2.12-111.21,37.86-148.91,68.75l-.63-.77c37.83-30.99,89.01-66.84,149.52-68.98,33.65-1.19,64.33,8.39,84.18,26.29,10.32,9.31,14.91,20.08,19.78,31.47,2.32,5.44,4.72,11.07,7.82,16.62,25,44.74,71.27,83.58,112.68,116.48,67.49,53.61,140.66,93.87,217.47,119.66,86.04,28.89,182.1,35.91,302.31,22.1,92-10.57,185.31-29.39,244.68-94.96,4.14-4.57,8.29-9.26,12.31-13.8,22.71-25.64,46.18-52.16,77.62-69.16,29.12-15.75,63.66-24.1,105.58-25.53,56.44-1.91,113.21,7.36,166.14,17.67,148.04,28.83,294.61,76.74,420.37,119.39l-.32,.95c-125.73-42.64-272.27-90.54-420.25-119.35-52.87-10.3-109.56-19.57-165.92-17.65-41.76,1.42-76.15,9.73-105.14,25.41-31.28,16.92-54.7,43.37-77.35,68.95-4.02,4.54-8.18,9.23-12.32,13.81-59.59,65.81-153.11,84.69-245.3,95.28-39.55,4.52-76.51,6.81-111.36,6.81Z"/></g></g></g></svg>