<svg xmlns="http://www.w3.org/2000/svg" version="1.1" xmlns:xlink="http://www.w3.org/1999/xlink" xmlns:svgjs="http://svgjs.com/svgjs" width="1440" height="560" preserveAspectRatio="none" viewBox="0 0 1440 560">
    <g mask="url(&quot;#SvgjsMask1024&quot;)" fill="none">
        <path d="M1326.98 330.01a1.91 1.91 0 1 0-3.5-1.53z" stroke="rgba(171, 4, 79, 1)"></path>
        <path d="M648.31 534.11a24.34 24.34 0 1 0 5.88 48.33z" fill="rgba(171, 4, 79, 1)"></path>
        <path d="M853.62 474.05L875.05 474.05L875.05 495.48L853.62 495.48z" fill="rgba(171, 4, 79, 1)"></path>
        <path d="M1310.99 32L1348.18 32L1348.18 38.07L1310.99 38.07z" fill="rgba(110, 231, 183, 1)"></path>
        <path d="M1323.73 402.19a2.03 2.03 0 1 0-0.64 4.01z" fill="rgba(171, 4, 79, 1)"></path>
        <path d="M1360.55 35.03a46.19 46.19 0 1 0-12.87 91.48z" fill="rgba(110, 231, 183, 1)"></path>
        <path d="M96.19 276L149.3 276L149.3 329.11L96.19 329.11z" stroke="rgba(110, 231, 183, 1)"></path>
        <path d="M789.1 546.1a2.93 2.93 0 1 0 4.64-3.58z" fill="rgba(6, 182, 212, 1)"></path>
        <path d="M1055.11 281.1 a0.37 0.37 0 1 0 0.74 0 a0.37 0.37 0 1 0 -0.74 0z" fill="rgba(110, 231, 183, 1)"></path>
        <path d="M1404.31 285.61L1458.49 285.61L1458.49 308.11L1404.31 308.11z" stroke="rgba(110, 231, 183, 1)"></path>
        <path d="M171.01 344.81L193.69 344.81L193.69 367.49L171.01 367.49z" stroke="rgba(110, 231, 183, 1)"></path>
        <path d="M645.69 199.88a36.87 36.87 0 1 0 34.93 64.94z" stroke="rgba(6, 182, 212, 1)"></path>
        <path d="M84.9 453.22L131.53 453.22L131.53 461.16L84.9 461.16z" stroke="rgba(6, 182, 212, 1)"></path>
        <path d="M1186.49 201.97 a43.98 43.98 0 1 0 87.96 0 a43.98 43.98 0 1 0 -87.96 0z" stroke="rgba(110, 231, 183, 1)"></path>
        <path d="M258.55 176.23 a42.31 42.31 0 1 0 84.62 0 a42.31 42.31 0 1 0 -84.62 0z" stroke="rgba(171, 4, 79, 1)"></path>
        <path d="M993.69 86.05 a32.44 32.44 0 1 0 64.88 0 a32.44 32.44 0 1 0 -64.88 0z" fill="rgba(171, 4, 79, 1)"></path>
        <path d="M175.16 6.95L221.14 6.95L221.14 32.23L175.16 32.23z" stroke="rgba(110, 231, 183, 1)"></path>
        <path d="M24.64 167.33L29.11 167.33L29.11 173.15L24.64 173.15z" stroke="rgba(171, 4, 79, 1)"></path>
        <path d="M614.98 427.28 a42.14 42.14 0 1 0 84.28 0 a42.14 42.14 0 1 0 -84.28 0z" fill="rgba(110, 231, 183, 1)"></path>
        <path d="M394.65 180.72 a5.07 5.07 0 1 0 10.14 0 a5.07 5.07 0 1 0 -10.14 0z" stroke="rgba(6, 182, 212, 1)"></path>
        <path d="M282.14 117.94 a50.59 50.59 0 1 0 101.18 0 a50.59 50.59 0 1 0 -101.18 0z" stroke="rgba(110, 231, 183, 1)"></path>
        <path d="M510.19 304.77a26 26 0 1 0-33.09 40.11z" fill="rgba(6, 182, 212, 1)"></path>
        <path d="M1275.84 33.46L1297.72 33.46L1297.72 55.34L1275.84 55.34z" stroke="rgba(6, 182, 212, 1)"></path>
        <path d="M495.04 554.79 a8.2 8.2 0 1 0 16.4 0 a8.2 8.2 0 1 0 -16.4 0z" fill="rgba(6, 182, 212, 1)"></path>
        <path d="M1200.14 317.44a5.07 5.07 0 1 0 6.42 7.85z" fill="rgba(171, 4, 79, 1)"></path>
        <path d="M1176.48 82.16a46.39 46.39 0 1 0 23.35-89.8z" stroke="rgba(6, 182, 212, 1)"></path>
        <path d="M12.02 144.92L30.64 144.92L30.64 163.54L12.02 163.54z" stroke="rgba(171, 4, 79, 1)"></path>
        <path d="M1224.15 176.42L1226.22 176.42L1226.22 216.41L1224.15 216.41z" stroke="rgba(110, 231, 183, 1)"></path>
        <path d="M834.77 466.06a49.69 49.69 0 1 0-93.31-34.21z" fill="rgba(171, 4, 79, 1)"></path>
        <path d="M164.37 136.15 a46.48 46.48 0 1 0 92.96 0 a46.48 46.48 0 1 0 -92.96 0z" stroke="rgba(110, 231, 183, 1)"></path>
        <path d="M1407.15 473.13L1433.82 473.13L1433.82 499.8L1407.15 499.8z" fill="rgba(6, 182, 212, 1)"></path>
        <path d="M679.5 168.75L704.69 168.75L704.69 178.14L679.5 178.14z" stroke="rgba(171, 4, 79, 1)"></path>
        <path d="M1242.8 555.13L1292.23 555.13L1292.23 581.18L1242.8 581.18z" stroke="rgba(6, 182, 212, 1)"></path>
    </g>
    <defs>
        <mask id="SvgjsMask1024">
            <rect width="1440" height="560" fill="#ffffff"></rect>
        </mask>
    </defs>
</svg>