<svg xmlns="http://www.w3.org/2000/svg" xmlns:xlink="http://www.w3.org/1999/xlink" width="1920" height="1080" viewBox="0 0 1920 1080"><defs><filter id="a" x="480.5" y="218.5" width="375" height="321" filterUnits="userSpaceOnUse"><feOffset dx="8" dy="8" input="SourceAlpha"/><feGaussianBlur stdDeviation="5.5" result="b"/><feFlood flood-opacity="0.302"/><feComposite operator="in" in2="b"/><feComposite in="SourceGraphic"/></filter><filter id="c" x="1145.5" y="289.5" width="358" height="364" filterUnits="userSpaceOnUse"><feOffset dx="2" dy="6" input="SourceAlpha"/><feGaussianBlur stdDeviation="7.5" result="d"/><feFlood flood-opacity="0.302"/><feComposite operator="in" in2="d"/><feComposite in="SourceGraphic"/></filter><linearGradient id="e" x1="0.5" x2="0.5" y2="1" gradientUnits="objectBoundingBox"><stop offset="0" stop-color="#06b6d4"/><stop offset="1" stop-color="#6ee7b7"/></linearGradient><filter id="f" x="730.939" y="666.857" width="461.905" height="229.753" filterUnits="userSpaceOnUse"><feOffset dx="2" dy="8" input="SourceAlpha"/><feGaussianBlur stdDeviation="6" result="g"/><feFlood flood-opacity="0.161"/><feComposite operator="in" in2="g"/><feComposite in="SourceGraphic"/></filter></defs><g transform="translate(-0.214 -0.039)"><rect width="1920" height="1080" transform="translate(0.214 0.039)" fill="none"/><g transform="matrix(1, 0, 0, 1, 0.21, 0.04)" filter="url(#a)"><path d="M164.121,11.585a8,8,0,0,1,13.758,0l156.946,264.33A8,8,0,0,1,327.946,288H14.054a8,8,0,0,1-6.879-12.084Z" transform="translate(489 227)" fill="#f70c76"/></g><g transform="matrix(1, 0, 0, 1, 0.21, 0.04)" filter="url(#c)"><ellipse cx="156.5" cy="159.5" rx="156.5" ry="159.5" transform="translate(1166 306)" fill="#fe0"/></g><g transform="matrix(1, 0, 0, 1, 0.21, 0.04)" filter="url(#f)"><path d="M13.006.036,397.153,1.1a13.205,13.205,0,0,1,13.042,13.263l.282,103.644a13.031,13.031,0,0,1-12.97,13.191L13.359,130.134A13.2,13.2,0,0,1,.318,116.871L.036,13.227A13.031,13.031,0,0,1,13.006.036Z" transform="translate(767.43 676.82) rotate(9)" fill="url(#e)"/></g></g></svg>