<svg xmlns="http://www.w3.org/2000/svg" xmlns:xlink="http://www.w3.org/1999/xlink" viewBox="0 0 586.62 644.56"><defs><style>.cls-1{opacity:0.64;}.cls-10,.cls-11,.cls-12,.cls-13,.cls-14,.cls-15,.cls-16,.cls-17,.cls-18,.cls-19,.cls-2,.cls-20,.cls-21,.cls-22,.cls-23,.cls-24,.cls-25,.cls-26,.cls-27,.cls-28,.cls-29,.cls-3,.cls-30,.cls-31,.cls-32,.cls-33,.cls-34,.cls-35,.cls-36,.cls-37,.cls-38,.cls-39,.cls-4,.cls-40,.cls-41,.cls-42,.cls-43,.cls-44,.cls-45,.cls-46,.cls-47,.cls-48,.cls-49,.cls-5,.cls-50,.cls-51,.cls-52,.cls-53,.cls-54,.cls-55,.cls-56,.cls-57,.cls-58,.cls-59,.cls-6,.cls-60,.cls-61,.cls-62,.cls-63,.cls-64,.cls-65,.cls-66,.cls-7,.cls-8,.cls-9{stroke-miterlimit:10;}.cls-2{fill:url(#linear-gradient);stroke:url(#linear-gradient-2);}.cls-3{fill:url(#linear-gradient-3);stroke:url(#linear-gradient-4);}.cls-4{fill:url(#linear-gradient-5);stroke:url(#linear-gradient-6);}.cls-5{fill:url(#linear-gradient-7);stroke:url(#linear-gradient-8);}.cls-6{fill:url(#linear-gradient-9);stroke:url(#linear-gradient-10);}.cls-7{fill:url(#linear-gradient-11);stroke:url(#linear-gradient-12);}.cls-8{fill:url(#linear-gradient-13);stroke:url(#linear-gradient-14);}.cls-9{fill:url(#linear-gradient-15);stroke:url(#linear-gradient-16);}.cls-10{fill:url(#linear-gradient-17);stroke:url(#linear-gradient-18);}.cls-11{fill:url(#linear-gradient-19);stroke:url(#linear-gradient-20);}.cls-12{fill:url(#linear-gradient-21);stroke:url(#linear-gradient-22);}.cls-13{fill:url(#linear-gradient-23);stroke:url(#linear-gradient-24);}.cls-14{fill:url(#linear-gradient-25);stroke:url(#linear-gradient-26);}.cls-15{fill:url(#linear-gradient-27);stroke:url(#linear-gradient-28);}.cls-16{fill:url(#linear-gradient-29);stroke:url(#linear-gradient-30);}.cls-17{fill:url(#linear-gradient-31);stroke:url(#linear-gradient-32);}.cls-18{fill:url(#linear-gradient-33);stroke:url(#linear-gradient-34);}.cls-19{fill:url(#linear-gradient-35);stroke:url(#linear-gradient-36);}.cls-20{fill:url(#linear-gradient-37);stroke:url(#linear-gradient-38);}.cls-21{fill:url(#linear-gradient-39);stroke:url(#linear-gradient-40);}.cls-22{fill:url(#linear-gradient-41);stroke:url(#linear-gradient-42);}.cls-23{fill:url(#linear-gradient-43);stroke:url(#linear-gradient-44);}.cls-24{fill:url(#linear-gradient-45);stroke:url(#linear-gradient-46);}.cls-25{fill:url(#linear-gradient-47);stroke:url(#linear-gradient-48);}.cls-26{fill:url(#linear-gradient-49);stroke:url(#linear-gradient-50);}.cls-27{fill:url(#linear-gradient-51);stroke:url(#linear-gradient-52);}.cls-28{fill:url(#linear-gradient-53);stroke:url(#linear-gradient-54);}.cls-29{fill:url(#linear-gradient-55);stroke:url(#linear-gradient-56);}.cls-30{fill:url(#linear-gradient-57);stroke:url(#linear-gradient-58);}.cls-31{fill:url(#linear-gradient-59);stroke:url(#linear-gradient-60);}.cls-32{fill:url(#linear-gradient-61);stroke:url(#linear-gradient-62);}.cls-33{fill:url(#linear-gradient-63);stroke:url(#linear-gradient-64);}.cls-34{fill:url(#linear-gradient-65);stroke:url(#linear-gradient-66);}.cls-35{fill:url(#linear-gradient-67);stroke:url(#linear-gradient-68);}.cls-36{fill:url(#linear-gradient-69);stroke:url(#linear-gradient-70);}.cls-37{fill:url(#linear-gradient-71);stroke:url(#linear-gradient-72);}.cls-38{fill:url(#linear-gradient-73);stroke:url(#linear-gradient-74);}.cls-39{fill:url(#linear-gradient-75);stroke:url(#linear-gradient-76);}.cls-40{fill:url(#linear-gradient-77);stroke:url(#linear-gradient-78);}.cls-41{fill:url(#linear-gradient-79);stroke:url(#linear-gradient-80);}.cls-42{fill:url(#linear-gradient-81);stroke:url(#linear-gradient-82);}.cls-43{fill:url(#linear-gradient-83);stroke:url(#linear-gradient-84);}.cls-44{fill:url(#linear-gradient-85);stroke:url(#linear-gradient-86);}.cls-45{fill:url(#linear-gradient-87);stroke:url(#linear-gradient-88);}.cls-46{fill:url(#linear-gradient-89);stroke:url(#linear-gradient-90);}.cls-47{fill:url(#linear-gradient-91);stroke:url(#linear-gradient-92);}.cls-48{fill:url(#linear-gradient-93);stroke:url(#linear-gradient-94);}.cls-49{fill:url(#linear-gradient-95);stroke:url(#linear-gradient-96);}.cls-50{fill:url(#linear-gradient-97);stroke:url(#linear-gradient-98);}.cls-51{fill:url(#linear-gradient-99);stroke:url(#linear-gradient-100);}.cls-52{fill:url(#linear-gradient-101);stroke:url(#linear-gradient-102);}.cls-53{fill:url(#linear-gradient-103);stroke:url(#linear-gradient-104);}.cls-54{fill:url(#linear-gradient-105);stroke:url(#linear-gradient-106);}.cls-55{fill:url(#linear-gradient-107);stroke:url(#linear-gradient-108);}.cls-56{fill:url(#linear-gradient-109);stroke:url(#linear-gradient-110);}.cls-57{fill:url(#linear-gradient-111);stroke:url(#linear-gradient-112);}.cls-58{fill:url(#linear-gradient-113);stroke:url(#linear-gradient-114);}.cls-59{fill:url(#linear-gradient-115);stroke:url(#linear-gradient-116);}.cls-60{fill:url(#linear-gradient-117);stroke:url(#linear-gradient-118);}.cls-61{fill:url(#linear-gradient-119);stroke:url(#linear-gradient-120);}.cls-62{fill:url(#linear-gradient-121);stroke:url(#linear-gradient-122);}.cls-63{fill:url(#linear-gradient-123);stroke:url(#linear-gradient-124);}.cls-64{fill:url(#linear-gradient-125);stroke:url(#linear-gradient-126);}.cls-65{fill:url(#linear-gradient-127);stroke:url(#linear-gradient-128);}.cls-66{fill:url(#linear-gradient-129);stroke:url(#linear-gradient-130);}</style><linearGradient id="linear-gradient" x1="286.07" y1="322.28" x2="300.55" y2="322.28" gradientUnits="userSpaceOnUse"><stop offset="0" stop-color="#39d0d8"/><stop offset="0.12" stop-color="#42c7d9"/><stop offset="0.32" stop-color="#5caddd"/><stop offset="0.57" stop-color="#8584e3"/><stop offset="0.86" stop-color="#bd4beb"/><stop offset="1" stop-color="#da2eef"/></linearGradient><linearGradient id="linear-gradient-2" x1="285.57" y1="322.28" x2="301.05" y2="322.28" gradientUnits="userSpaceOnUse"><stop offset="0" stop-color="#39d0d8" stop-opacity="0.5"/><stop offset="0.2" stop-color="#4cbddb" stop-opacity="0.5"/><stop offset="0.53" stop-color="#7e8ae2" stop-opacity="0.5"/><stop offset="0.95" stop-color="#d038ee" stop-opacity="0.5"/><stop offset="0.99" stop-color="#da2eef" stop-opacity="0.5"/></linearGradient><linearGradient id="linear-gradient-3" x1="285.74" y1="322.28" x2="300.88" y2="322.28" xlink:href="#linear-gradient"/><linearGradient id="linear-gradient-4" x1="285.24" y1="322.28" x2="301.38" y2="322.28" xlink:href="#linear-gradient-2"/><linearGradient id="linear-gradient-5" x1="285.41" y1="322.28" x2="301.21" y2="322.28" xlink:href="#linear-gradient"/><linearGradient id="linear-gradient-6" x1="284.91" y1="322.28" x2="301.71" y2="322.28" xlink:href="#linear-gradient-2"/><linearGradient id="linear-gradient-7" x1="285.06" y1="322.28" x2="301.55" y2="322.28" xlink:href="#linear-gradient"/><linearGradient id="linear-gradient-8" x1="284.56" y1="322.28" x2="302.05" y2="322.28" xlink:href="#linear-gradient-2"/><linearGradient id="linear-gradient-9" x1="284.71" y1="322.28" x2="301.91" y2="322.28" xlink:href="#linear-gradient"/><linearGradient id="linear-gradient-10" x1="284.21" y1="322.28" x2="302.41" y2="322.28" xlink:href="#linear-gradient-2"/><linearGradient id="linear-gradient-11" x1="284.34" y1="322.28" x2="302.28" y2="322.28" xlink:href="#linear-gradient"/><linearGradient id="linear-gradient-12" x1="283.84" y1="322.28" x2="302.78" y2="322.28" xlink:href="#linear-gradient-2"/><linearGradient id="linear-gradient-13" x1="283.96" y1="322.28" x2="302.65" y2="322.28" xlink:href="#linear-gradient"/><linearGradient id="linear-gradient-14" x1="283.46" y1="322.28" x2="303.15" y2="322.28" xlink:href="#linear-gradient-2"/><linearGradient id="linear-gradient-15" x1="283.57" y1="322.28" x2="303.05" y2="322.28" xlink:href="#linear-gradient"/><linearGradient id="linear-gradient-16" x1="283.07" y1="322.28" x2="303.55" y2="322.28" xlink:href="#linear-gradient-2"/><linearGradient id="linear-gradient-17" x1="283.17" y1="322.28" x2="303.45" y2="322.28" xlink:href="#linear-gradient"/><linearGradient id="linear-gradient-18" x1="282.67" y1="322.28" x2="303.95" y2="322.28" xlink:href="#linear-gradient-2"/><linearGradient id="linear-gradient-19" x1="282.75" y1="322.28" x2="303.87" y2="322.28" xlink:href="#linear-gradient"/><linearGradient id="linear-gradient-20" x1="282.25" y1="322.28" x2="304.37" y2="322.28" xlink:href="#linear-gradient-2"/><linearGradient id="linear-gradient-21" x1="281.95" y1="322.28" x2="304.67" y2="322.28" xlink:href="#linear-gradient"/><linearGradient id="linear-gradient-22" x1="281.45" y1="322.28" x2="305.17" y2="322.28" xlink:href="#linear-gradient-2"/><linearGradient id="linear-gradient-23" x1="280.81" y1="322.28" x2="305.81" y2="322.28" xlink:href="#linear-gradient"/><linearGradient id="linear-gradient-24" x1="280.31" y1="322.28" x2="306.31" y2="322.28" xlink:href="#linear-gradient-2"/><linearGradient id="linear-gradient-25" x1="279.58" y1="322.28" x2="307.04" y2="322.28" xlink:href="#linear-gradient"/><linearGradient id="linear-gradient-26" x1="279.08" y1="322.28" x2="307.54" y2="322.28" xlink:href="#linear-gradient-2"/><linearGradient id="linear-gradient-27" x1="278.25" y1="322.28" x2="308.37" y2="322.28" xlink:href="#linear-gradient"/><linearGradient id="linear-gradient-28" x1="277.75" y1="322.28" x2="308.87" y2="322.28" xlink:href="#linear-gradient-2"/><linearGradient id="linear-gradient-29" x1="276.82" y1="322.28" x2="309.79" y2="322.28" xlink:href="#linear-gradient"/><linearGradient id="linear-gradient-30" x1="276.32" y1="322.28" x2="310.29" y2="322.28" xlink:href="#linear-gradient-2"/><linearGradient id="linear-gradient-31" x1="275.3" y1="322.28" x2="311.32" y2="322.28" xlink:href="#linear-gradient"/><linearGradient id="linear-gradient-32" x1="274.8" y1="322.28" x2="311.82" y2="322.28" xlink:href="#linear-gradient-2"/><linearGradient id="linear-gradient-33" x1="273.66" y1="322.28" x2="312.96" y2="322.28" xlink:href="#linear-gradient"/><linearGradient id="linear-gradient-34" x1="273.16" y1="322.28" x2="313.46" y2="322.28" xlink:href="#linear-gradient-2"/><linearGradient id="linear-gradient-35" x1="271.92" y1="322.28" x2="314.7" y2="322.28" xlink:href="#linear-gradient"/><linearGradient id="linear-gradient-36" x1="271.42" y1="322.28" x2="315.2" y2="322.28" xlink:href="#linear-gradient-2"/><linearGradient id="linear-gradient-37" x1="270.06" y1="322.28" x2="316.56" y2="322.28" xlink:href="#linear-gradient"/><linearGradient id="linear-gradient-38" x1="269.56" y1="322.28" x2="317.06" y2="322.28" xlink:href="#linear-gradient-2"/><linearGradient id="linear-gradient-39" x1="268.09" y1="322.28" x2="318.53" y2="322.28" xlink:href="#linear-gradient"/><linearGradient id="linear-gradient-40" x1="267.59" y1="322.28" x2="319.03" y2="322.28" xlink:href="#linear-gradient-2"/><linearGradient id="linear-gradient-41" x1="266" y1="322.28" x2="320.62" y2="322.28" xlink:href="#linear-gradient"/><linearGradient id="linear-gradient-42" x1="265.5" y1="322.28" x2="321.12" y2="322.28" xlink:href="#linear-gradient-2"/><linearGradient id="linear-gradient-43" x1="263.79" y1="322.28" x2="322.83" y2="322.28" xlink:href="#linear-gradient"/><linearGradient id="linear-gradient-44" x1="263.29" y1="322.28" x2="323.33" y2="322.28" xlink:href="#linear-gradient-2"/><linearGradient id="linear-gradient-45" x1="261.46" y1="322.28" x2="325.16" y2="322.28" xlink:href="#linear-gradient"/><linearGradient id="linear-gradient-46" x1="260.96" y1="322.28" x2="325.66" y2="322.28" xlink:href="#linear-gradient-2"/><linearGradient id="linear-gradient-47" x1="259.01" y1="322.28" x2="327.61" y2="322.28" xlink:href="#linear-gradient"/><linearGradient id="linear-gradient-48" x1="258.51" y1="322.28" x2="328.11" y2="322.28" xlink:href="#linear-gradient-2"/><linearGradient id="linear-gradient-49" x1="256.43" y1="322.28" x2="330.19" y2="322.28" xlink:href="#linear-gradient"/><linearGradient id="linear-gradient-50" x1="255.93" y1="322.28" x2="330.69" y2="322.28" xlink:href="#linear-gradient-2"/><linearGradient id="linear-gradient-51" x1="253.73" y1="322.28" x2="332.88" y2="322.28" xlink:href="#linear-gradient"/><linearGradient id="linear-gradient-52" x1="253.23" y1="322.28" x2="333.38" y2="322.28" xlink:href="#linear-gradient-2"/><linearGradient id="linear-gradient-53" x1="250.91" y1="322.28" x2="335.71" y2="322.28" xlink:href="#linear-gradient"/><linearGradient id="linear-gradient-54" x1="250.41" y1="322.28" x2="336.21" y2="322.28" xlink:href="#linear-gradient-2"/><linearGradient id="linear-gradient-55" x1="247.97" y1="322.28" x2="338.65" y2="322.28" xlink:href="#linear-gradient"/><linearGradient id="linear-gradient-56" x1="247.47" y1="322.28" x2="339.15" y2="322.28" xlink:href="#linear-gradient-2"/><linearGradient id="linear-gradient-57" x1="244.91" y1="322.28" x2="341.71" y2="322.28" xlink:href="#linear-gradient"/><linearGradient id="linear-gradient-58" x1="244.41" y1="322.28" x2="342.21" y2="322.28" xlink:href="#linear-gradient-2"/><linearGradient id="linear-gradient-59" x1="241.73" y1="322.28" x2="344.89" y2="322.28" xlink:href="#linear-gradient"/><linearGradient id="linear-gradient-60" x1="241.23" y1="322.28" x2="345.39" y2="322.28" xlink:href="#linear-gradient-2"/><linearGradient id="linear-gradient-61" x1="238.43" y1="322.28" x2="348.19" y2="322.28" xlink:href="#linear-gradient"/><linearGradient id="linear-gradient-62" x1="237.93" y1="322.28" x2="348.69" y2="322.28" xlink:href="#linear-gradient-2"/><linearGradient id="linear-gradient-63" x1="234.52" y1="322.28" x2="352.1" y2="322.28" xlink:href="#linear-gradient"/><linearGradient id="linear-gradient-64" x1="234.02" y1="322.28" x2="352.6" y2="322.28" xlink:href="#linear-gradient-2"/><linearGradient id="linear-gradient-65" x1="229.58" y1="322.28" x2="357.04" y2="322.28" xlink:href="#linear-gradient"/><linearGradient id="linear-gradient-66" x1="229.08" y1="322.28" x2="357.54" y2="322.28" xlink:href="#linear-gradient-2"/><linearGradient id="linear-gradient-67" x1="224.39" y1="322.28" x2="362.23" y2="322.28" xlink:href="#linear-gradient"/><linearGradient id="linear-gradient-68" x1="223.89" y1="322.28" x2="362.73" y2="322.28" xlink:href="#linear-gradient-2"/><linearGradient id="linear-gradient-69" x1="218.93" y1="322.28" x2="367.69" y2="322.28" xlink:href="#linear-gradient"/><linearGradient id="linear-gradient-70" x1="218.43" y1="322.28" x2="368.19" y2="322.28" xlink:href="#linear-gradient-2"/><linearGradient id="linear-gradient-71" x1="213.21" y1="322.28" x2="373.41" y2="322.28" xlink:href="#linear-gradient"/><linearGradient id="linear-gradient-72" x1="212.71" y1="322.28" x2="373.91" y2="322.28" xlink:href="#linear-gradient-2"/><linearGradient id="linear-gradient-73" x1="207.23" y1="322.28" x2="379.39" y2="322.28" xlink:href="#linear-gradient"/><linearGradient id="linear-gradient-74" x1="206.73" y1="322.28" x2="379.89" y2="322.28" xlink:href="#linear-gradient-2"/><linearGradient id="linear-gradient-75" x1="200.99" y1="322.28" x2="385.63" y2="322.28" xlink:href="#linear-gradient"/><linearGradient id="linear-gradient-76" x1="200.49" y1="322.28" x2="386.13" y2="322.28" xlink:href="#linear-gradient-2"/><linearGradient id="linear-gradient-77" x1="194.49" y1="322.28" x2="392.13" y2="322.28" xlink:href="#linear-gradient"/><linearGradient id="linear-gradient-78" x1="193.99" y1="322.28" x2="392.63" y2="322.28" xlink:href="#linear-gradient-2"/><linearGradient id="linear-gradient-79" x1="187.73" y1="322.28" x2="398.89" y2="322.28" xlink:href="#linear-gradient"/><linearGradient id="linear-gradient-80" x1="187.23" y1="322.28" x2="399.39" y2="322.28" xlink:href="#linear-gradient-2"/><linearGradient id="linear-gradient-81" x1="180.73" y1="322.28" x2="405.89" y2="322.28" xlink:href="#linear-gradient"/><linearGradient id="linear-gradient-82" x1="180.23" y1="322.28" x2="406.39" y2="322.28" xlink:href="#linear-gradient-2"/><linearGradient id="linear-gradient-83" x1="173.48" y1="322.28" x2="413.14" y2="322.28" xlink:href="#linear-gradient"/><linearGradient id="linear-gradient-84" x1="172.98" y1="322.28" x2="413.64" y2="322.28" xlink:href="#linear-gradient-2"/><linearGradient id="linear-gradient-85" x1="166.01" y1="322.28" x2="420.61" y2="322.28" xlink:href="#linear-gradient"/><linearGradient id="linear-gradient-86" x1="165.51" y1="322.28" x2="421.11" y2="322.28" xlink:href="#linear-gradient-2"/><linearGradient id="linear-gradient-87" x1="158.31" y1="322.28" x2="428.31" y2="322.28" xlink:href="#linear-gradient"/><linearGradient id="linear-gradient-88" x1="157.81" y1="322.28" x2="428.81" y2="322.28" xlink:href="#linear-gradient-2"/><linearGradient id="linear-gradient-89" x1="150.41" y1="322.28" x2="436.21" y2="322.28" xlink:href="#linear-gradient"/><linearGradient id="linear-gradient-90" x1="149.91" y1="322.28" x2="436.71" y2="322.28" xlink:href="#linear-gradient-2"/><linearGradient id="linear-gradient-91" x1="142.32" y1="322.28" x2="444.29" y2="322.28" xlink:href="#linear-gradient"/><linearGradient id="linear-gradient-92" x1="141.82" y1="322.28" x2="444.79" y2="322.28" xlink:href="#linear-gradient-2"/><linearGradient id="linear-gradient-93" x1="134.07" y1="322.28" x2="452.55" y2="322.28" xlink:href="#linear-gradient"/><linearGradient id="linear-gradient-94" x1="133.57" y1="322.28" x2="453.05" y2="322.28" xlink:href="#linear-gradient-2"/><linearGradient id="linear-gradient-95" x1="125.68" y1="322.28" x2="460.94" y2="322.28" xlink:href="#linear-gradient"/><linearGradient id="linear-gradient-96" x1="125.18" y1="322.28" x2="461.44" y2="322.28" xlink:href="#linear-gradient-2"/><linearGradient id="linear-gradient-97" x1="117.17" y1="322.28" x2="469.45" y2="322.28" xlink:href="#linear-gradient"/><linearGradient id="linear-gradient-98" x1="116.67" y1="322.28" x2="469.95" y2="322.28" xlink:href="#linear-gradient-2"/><linearGradient id="linear-gradient-99" x1="108.57" y1="322.28" x2="478.05" y2="322.28" xlink:href="#linear-gradient"/><linearGradient id="linear-gradient-100" x1="108.07" y1="322.28" x2="478.55" y2="322.28" xlink:href="#linear-gradient-2"/><linearGradient id="linear-gradient-101" x1="99.92" y1="322.28" x2="486.7" y2="322.28" xlink:href="#linear-gradient"/><linearGradient id="linear-gradient-102" x1="99.42" y1="322.28" x2="487.2" y2="322.28" xlink:href="#linear-gradient-2"/><linearGradient id="linear-gradient-103" x1="91.26" y1="322.28" x2="495.36" y2="322.28" xlink:href="#linear-gradient"/><linearGradient id="linear-gradient-104" x1="90.76" y1="322.28" x2="495.86" y2="322.28" xlink:href="#linear-gradient-2"/><linearGradient id="linear-gradient-105" x1="82.62" y1="322.28" x2="504" y2="322.28" xlink:href="#linear-gradient"/><linearGradient id="linear-gradient-106" x1="82.12" y1="322.28" x2="504.5" y2="322.28" xlink:href="#linear-gradient-2"/><linearGradient id="linear-gradient-107" x1="74.05" y1="322.28" x2="512.57" y2="322.28" xlink:href="#linear-gradient"/><linearGradient id="linear-gradient-108" x1="73.55" y1="322.28" x2="513.07" y2="322.28" xlink:href="#linear-gradient-2"/><linearGradient id="linear-gradient-109" x1="65.6" y1="322.28" x2="521.02" y2="322.28" xlink:href="#linear-gradient"/><linearGradient id="linear-gradient-110" x1="65.1" y1="322.28" x2="521.52" y2="322.28" xlink:href="#linear-gradient-2"/><linearGradient id="linear-gradient-111" x1="57.33" y1="322.28" x2="529.29" y2="322.28" xlink:href="#linear-gradient"/><linearGradient id="linear-gradient-112" x1="56.83" y1="322.28" x2="529.79" y2="322.28" xlink:href="#linear-gradient-2"/><linearGradient id="linear-gradient-113" x1="49.29" y1="322.28" x2="537.33" y2="322.28" xlink:href="#linear-gradient"/><linearGradient id="linear-gradient-114" x1="48.79" y1="322.28" x2="537.83" y2="322.28" xlink:href="#linear-gradient-2"/><linearGradient id="linear-gradient-115" x1="41.54" y1="322.28" x2="545.08" y2="322.28" xlink:href="#linear-gradient"/><linearGradient id="linear-gradient-116" x1="41.04" y1="322.28" x2="545.58" y2="322.28" xlink:href="#linear-gradient-2"/><linearGradient id="linear-gradient-117" x1="34.16" y1="322.28" x2="552.46" y2="322.28" xlink:href="#linear-gradient"/><linearGradient id="linear-gradient-118" x1="33.66" y1="322.28" x2="552.96" y2="322.28" xlink:href="#linear-gradient-2"/><linearGradient id="linear-gradient-119" x1="27.2" y1="322.28" x2="559.42" y2="322.28" xlink:href="#linear-gradient"/><linearGradient id="linear-gradient-120" x1="26.7" y1="322.28" x2="559.92" y2="322.28" xlink:href="#linear-gradient-2"/><linearGradient id="linear-gradient-121" x1="20.75" y1="322.28" x2="565.87" y2="322.28" xlink:href="#linear-gradient"/><linearGradient id="linear-gradient-122" x1="20.25" y1="322.28" x2="566.37" y2="322.28" xlink:href="#linear-gradient-2"/><linearGradient id="linear-gradient-123" x1="14.88" y1="322.28" x2="571.74" y2="322.28" xlink:href="#linear-gradient"/><linearGradient id="linear-gradient-124" x1="14.38" y1="322.28" x2="572.24" y2="322.28" xlink:href="#linear-gradient-2"/><linearGradient id="linear-gradient-125" x1="9.67" y1="322.28" x2="576.95" y2="322.28" xlink:href="#linear-gradient"/><linearGradient id="linear-gradient-126" x1="9.17" y1="322.28" x2="577.45" y2="322.28" xlink:href="#linear-gradient-2"/><linearGradient id="linear-gradient-127" x1="5.2" y1="322.28" x2="581.42" y2="322.28" xlink:href="#linear-gradient"/><linearGradient id="linear-gradient-128" x1="4.7" y1="322.28" x2="581.92" y2="322.28" xlink:href="#linear-gradient-2"/><linearGradient id="linear-gradient-129" x1="0.5" y1="322.28" x2="586.12" y2="322.28" xlink:href="#linear-gradient"/><linearGradient id="linear-gradient-130" x1="0" y1="322.28" x2="586.62" y2="322.28" xlink:href="#linear-gradient-2"/></defs><g id="Layer_2" data-name="Layer 2"><g id="Layer_1-2" data-name="Layer 1"><g class="cls-1"><path class="cls-2" d="M287.84,316.8a3,3,0,0,1,1.74-2.15l4.93-1.72a1.87,1.87,0,0,1,2.18.78l3.29,4.7a3.68,3.68,0,0,1,.43,2.94l-1.63,6.41a3,3,0,0,1-1.74,2.15l-4.93,1.72a1.87,1.87,0,0,1-2.18-.79l-3.29-4.69a3.68,3.68,0,0,1-.44-2.94l1.64-6.41m0,0-1.64,6.41a3.67,3.67,0,0,0,.44,3l3.29,4.7a1.88,1.88,0,0,0,2.19.79l4.93-1.72a3,3,0,0,0,1.75-2.17l1.64-6.41a3.64,3.64,0,0,0-.45-3l-3.29-4.7a1.86,1.86,0,0,0-2.18-.79l-4.93,1.72a3,3,0,0,0-1.75,2.17Z"/><path class="cls-3" d="M288,316a3.2,3.2,0,0,1,1.9-2.24l5.17-1.58a1.88,1.88,0,0,1,2.2,1l3.13,5.28a4.12,4.12,0,0,1,.29,3.22l-2,6.87a3.19,3.19,0,0,1-1.91,2.24l-5.16,1.58a1.87,1.87,0,0,1-2.2-1l-3.13-5.28a4.17,4.17,0,0,1-.3-3.22l2-6.87m0,0-2,6.86a4.21,4.21,0,0,0,.3,3.24l3.13,5.28a1.89,1.89,0,0,0,2.21,1l5.17-1.59a3.19,3.19,0,0,0,1.91-2.25l2-6.86a4.21,4.21,0,0,0-.3-3.24l-3.13-5.28a1.89,1.89,0,0,0-2.21-1l-5.17,1.59A3.19,3.19,0,0,0,288,316Z"/><path class="cls-4" d="M288.16,315.19a3.42,3.42,0,0,1,2.08-2.33l5.41-1.43a1.91,1.91,0,0,1,2.21,1.19l2.94,5.91a4.74,4.74,0,0,1,.12,3.51l-2.46,7.33a3.41,3.41,0,0,1-2.09,2.33l-5.4,1.43a1.91,1.91,0,0,1-2.21-1.19L285.82,326a4.79,4.79,0,0,1-.13-3.51l2.47-7.33m0,0-2.47,7.34a4.79,4.79,0,0,0,.13,3.53l2.94,5.9a1.9,1.9,0,0,0,2.22,1.19l5.4-1.43a3.38,3.38,0,0,0,2.1-2.33l2.47-7.34a4.84,4.84,0,0,0-.13-3.53l-2.94-5.9a1.92,1.92,0,0,0-2.22-1.2l-5.41,1.43a3.41,3.41,0,0,0-2.09,2.34Z"/><path class="cls-5" d="M288.39,314.29a3.63,3.63,0,0,1,2.27-2.41l5.65-1.24a2,2,0,0,1,2.21,1.41l2.7,6.58a5.41,5.41,0,0,1-.06,3.82l-2.93,7.82a3.62,3.62,0,0,1-2.28,2.41l-5.64,1.24a2,2,0,0,1-2.21-1.41l-2.71-6.58a5.47,5.47,0,0,1,.07-3.82l2.93-7.82m0,0-2.94,7.83a5.5,5.5,0,0,0-.06,3.83l2.71,6.58a2,2,0,0,0,2.22,1.42l5.64-1.25a3.61,3.61,0,0,0,2.29-2.41l2.93-7.83a5.39,5.39,0,0,0,.06-3.83l-2.7-6.58a2,2,0,0,0-2.22-1.42l-5.65,1.24a3.61,3.61,0,0,0-2.28,2.42Z"/><path class="cls-6" d="M288.68,313.33a3.8,3.8,0,0,1,2.47-2.49l5.88-1c1-.17,1.8.47,2.2,1.66l2.43,7.29a6.32,6.32,0,0,1-.27,4.15l-3.45,8.32a3.78,3.78,0,0,1-2.47,2.48l-5.88,1c-1,.17-1.8-.47-2.2-1.66l-2.43-7.3a6.29,6.29,0,0,1,.27-4.14l3.45-8.32m0,0-3.45,8.33a6.22,6.22,0,0,0-.27,4.16l2.43,7.29c.4,1.2,1.24,1.84,2.21,1.67l5.88-1a3.81,3.81,0,0,0,2.48-2.49l3.45-8.33a6.28,6.28,0,0,0,.27-4.16l-2.43-7.29c-.4-1.2-1.25-1.84-2.21-1.67l-5.88,1a3.82,3.82,0,0,0-2.48,2.5Z"/><path class="cls-7" d="M289,312.3a4,4,0,0,1,2.68-2.55l6.1-.79c1-.13,1.83.61,2.18,1.92l2.1,8.06a7.1,7.1,0,0,1-.5,4.48l-4,8.84a4,4,0,0,1-2.68,2.55l-6.1.79c-1,.13-1.83-.61-2.18-1.92l-2.1-8.06a7,7,0,0,1,.5-4.48l4-8.84m0,0-4,8.84a7.19,7.19,0,0,0-.51,4.51l2.11,8.05c.35,1.33,1.18,2.07,2.19,1.94l6.1-.79a4,4,0,0,0,2.69-2.57l4-8.84a7.19,7.19,0,0,0,.51-4.51L300,310.87c-.35-1.33-1.18-2.07-2.19-1.94l-6.1.79a4,4,0,0,0-2.69,2.57Z"/><path class="cls-8" d="M289.44,311.2c.75-1.53,1.86-2.53,2.9-2.62l6.33-.51c1-.08,1.85.77,2.13,2.22l1.73,8.86a8,8,0,0,1-.76,4.83l-4.59,9.38c-.76,1.53-1.87,2.53-2.9,2.62l-6.33.51c-1,.08-1.85-.77-2.13-2.22l-1.73-8.86a8,8,0,0,1,.76-4.83l4.59-9.38m0,0-4.59,9.38a8.1,8.1,0,0,0-.77,4.85l1.73,8.87c.29,1.46,1.11,2.31,2.15,2.22l6.33-.51c1-.08,2.15-1.09,2.91-2.63l4.59-9.38a8.1,8.1,0,0,0,.77-4.85l-1.73-8.87c-.29-1.46-1.11-2.31-2.15-2.22l-6.33.51c-1,.08-2.15,1.09-2.91,2.63Z"/><path class="cls-9" d="M289.93,310c.86-1.62,2.05-2.65,3.12-2.68l6.54-.2c1.07,0,1.87.94,2.08,2.52l1.3,9.72a9.12,9.12,0,0,1-1,5.21l-5.24,9.91c-.86,1.62-2.05,2.65-3.12,2.68l-6.55.2c-1.07,0-1.86-.94-2.07-2.53l-1.31-9.71a9.21,9.21,0,0,1,1.05-5.21l5.24-9.91m0,0-5.24,9.91a9.11,9.11,0,0,0-1.05,5.23l1.3,9.72c.21,1.6,1,2.57,2.09,2.53l6.54-.19c1.08,0,2.28-1.06,3.14-2.7l5.24-9.91a9.28,9.28,0,0,0,1.05-5.23l-1.3-9.72c-.22-1.6-1-2.57-2.09-2.53l-6.54.19c-1.08,0-2.28,1.06-3.14,2.7Z"/><path class="cls-10" d="M290.49,308.8c1-1.71,2.26-2.76,3.36-2.73l6.75.15c1.1,0,1.87,1.13,2,2.86l.82,10.62a10.45,10.45,0,0,1-1.36,5.59l-5.94,10.47c-1,1.71-2.25,2.76-3.36,2.73l-6.74-.15c-1.1,0-1.87-1.13-2-2.86l-.82-10.62a10.45,10.45,0,0,1,1.36-5.59l5.93-10.47m0,0-5.93,10.46a10.39,10.39,0,0,0-1.36,5.62l.81,10.62c.13,1.75.9,2.85,2,2.87l6.75.16c1.11,0,2.4-1,3.37-2.75l5.94-10.46a10.39,10.39,0,0,0,1.36-5.62l-.81-10.62c-.13-1.75-.9-2.85-2-2.87l-6.75-.16c-1.11,0-2.4,1-3.38,2.75Z"/><path class="cls-11" d="M291.14,307.49c1.09-1.8,2.48-2.87,3.61-2.78l6.94.55c1.13.1,1.86,1.33,1.9,3.22l.26,11.58a11.75,11.75,0,0,1-1.7,6l-6.67,11c-1.09,1.8-2.48,2.87-3.61,2.78l-6.94-.56c-1.13-.09-1.86-1.32-1.9-3.21l-.26-11.58a11.63,11.63,0,0,1,1.7-6l6.67-11m0,0-6.67,11a11.72,11.72,0,0,0-1.71,6l.26,11.57c0,1.91.77,3.14,1.91,3.23l6.94.56c1.14.09,2.53-1,3.63-2.79l6.67-11a11.82,11.82,0,0,0,1.71-6l-.26-11.57c0-1.91-.77-3.14-1.92-3.23l-6.93-.56c-1.15-.09-2.53,1-3.63,2.79Z"/><path class="cls-12" d="M291.88,306.1c1.22-1.89,2.7-3,3.86-2.81l7.12,1c1.16.17,1.84,1.55,1.78,3.6l-.36,12.58a13.19,13.19,0,0,1-2.07,6.41l-7.47,11.59c-1.22,1.89-2.7,3-3.87,2.81l-7.11-1c-1.16-.16-1.84-1.54-1.79-3.59l.36-12.58a13.31,13.31,0,0,1,2.08-6.41l7.47-11.59m0,0-7.47,11.59a13.36,13.36,0,0,0-2.09,6.44L282,336.69c-.05,2.07.63,3.45,1.8,3.62l7.11,1c1.18.16,2.66-.91,3.89-2.82l7.47-11.59a13.34,13.34,0,0,0,2.08-6.44l.36-12.58c.06-2.08-.62-3.45-1.79-3.62l-7.11-1c-1.18-.16-2.66.91-3.89,2.82Z"/><path class="cls-13" d="M292.71,304.64c1.36-2,3-3.07,4.14-2.83l7.26,1.48c1.19.24,1.82,1.77,1.65,4l-1.05,13.64a14.93,14.93,0,0,1-2.49,6.84l-8.32,12.15c-1.36,2-2.94,3.07-4.13,2.83l-7.26-1.48c-1.19-.24-1.82-1.77-1.65-4l1.05-13.64a14.93,14.93,0,0,1,2.49-6.84l8.31-12.15m0,0-8.32,12.15a15,15,0,0,0-2.5,6.87l-1.05,13.64c-.18,2.25.46,3.78,1.65,4l7.27,1.48c1.2.24,2.78-.84,4.15-2.85l8.32-12.15a15.1,15.1,0,0,0,2.5-6.87l1-13.64c.17-2.25-.46-3.78-1.66-4l-7.26-1.48c-1.2-.24-2.78.84-4.15,2.85Z"/><path class="cls-14" d="M293.65,303.1c1.51-2.08,3.2-3.17,4.41-2.84l7.4,2c1.21.33,1.78,2,1.48,4.45l-1.82,14.74a16.71,16.71,0,0,1-2.93,7.28L293,341.46c-1.5,2.08-3.19,3.17-4.4,2.84l-7.4-2c-1.21-.33-1.78-2-1.48-4.44l1.82-14.74a16.71,16.71,0,0,1,2.93-7.28l9.22-12.72m0,0-9.23,12.73a16.72,16.72,0,0,0-2.94,7.31l-1.82,14.75c-.3,2.43.26,4.13,1.48,4.46l7.4,2c1.22.33,2.91-.76,4.43-2.85l9.23-12.73a16.71,16.71,0,0,0,2.94-7.32L307,306.7c.3-2.43-.26-4.13-1.48-4.46l-7.4-2c-1.22-.33-2.91.76-4.43,2.85Z"/><path class="cls-15" d="M294.7,301.48c1.67-2.18,3.47-3.26,4.69-2.84l7.51,2.61c1.23.43,1.72,2.31,1.29,4.91l-2.68,15.9a18.66,18.66,0,0,1-3.41,7.74l-10.19,13.28c-1.66,2.18-3.46,3.26-4.69,2.84l-7.51-2.61c-1.22-.43-1.71-2.31-1.28-4.91l2.68-15.9a18.66,18.66,0,0,1,3.41-7.74l10.18-13.28m0,0-10.19,13.29a18.65,18.65,0,0,0-3.42,7.78l-2.68,15.89c-.44,2.63,0,4.5,1.29,4.93l7.51,2.61c1.23.43,3-.65,4.71-2.84l10.19-13.29a18.65,18.65,0,0,0,3.42-7.78l2.68-15.89c.44-2.63,0-4.51-1.29-4.94l-7.51-2.6c-1.24-.43-3,.65-4.71,2.84Z"/><path class="cls-16" d="M295.87,299.78c1.84-2.27,3.75-3.34,5-2.81l7.59,3.26c1.24.53,1.64,2.6,1.05,5.39l-3.62,17.11a20.75,20.75,0,0,1-3.93,8.21l-11.2,13.84c-1.84,2.27-3.75,3.34-5,2.81l-7.59-3.26c-1.24-.53-1.64-2.6-1.05-5.39l3.62-17.11a20.62,20.62,0,0,1,3.93-8.21l11.2-13.84m0,0L284.66,313.6a20.71,20.71,0,0,0-4,8.24L277.1,339c-.6,2.82-.2,4.89,1,5.42l7.59,3.26c1.25.54,3.16-.54,5-2.82L302,331a20.85,20.85,0,0,0,4-8.24l3.61-17.11c.6-2.82.2-4.89-1.06-5.43l-7.58-3.25c-1.26-.54-3.16.54-5,2.82Z"/><path class="cls-17" d="M297.17,298c2-2.36,4-3.42,5.28-2.77l7.64,4c1.25.65,1.55,2.91.79,5.92l-4.65,18.36a22.86,22.86,0,0,1-4.49,8.68l-12.29,14.4c-2,2.36-4,3.42-5.28,2.77l-7.64-4c-1.25-.65-1.55-2.91-.79-5.92l4.65-18.36a22.86,22.86,0,0,1,4.49-8.68L297.17,298m0,0-12.29,14.4a23,23,0,0,0-4.52,8.72l-4.65,18.37c-.76,3-.46,5.29.8,6l7.64,4c1.25.65,3.28-.41,5.3-2.78l12.29-14.4a22.79,22.79,0,0,0,4.51-8.72l4.66-18.37c.76-3,.46-5.29-.8-6l-7.64-4c-1.26-.65-3.28.4-5.3,2.78Z"/><path class="cls-18" d="M298.6,296.14c2.2-2.44,4.34-3.48,5.59-2.7l7.64,4.73c1.25.78,1.44,3.26.5,6.47l-5.79,19.67a25.17,25.17,0,0,1-5.09,9.18L288,348.42c-2.2,2.44-4.34,3.48-5.59,2.7l-7.65-4.73c-1.25-.78-1.44-3.26-.49-6.47l5.78-19.67a25.26,25.26,0,0,1,5.1-9.18l13.43-14.93m0,0L285.17,311a25.18,25.18,0,0,0-5.12,9.22l-5.79,19.67c-.95,3.24-.76,5.72.5,6.5l7.65,4.74c1.26.78,3.4-.26,5.61-2.72l13.43-14.93a25.18,25.18,0,0,0,5.12-9.22l5.79-19.67c.95-3.24.76-5.72-.5-6.5l-7.65-4.74c-1.26-.78-3.4.26-5.61,2.72Z"/><path class="cls-19" d="M300.17,294.21c2.4-2.53,4.66-3.53,5.9-2.62l7.62,5.57c1.24.91,1.3,3.62.16,7l-7,21a27.61,27.61,0,0,1-5.74,9.67l-14.63,15.44c-2.4,2.53-4.66,3.53-5.9,2.62l-7.62-5.57c-1.24-.91-1.31-3.62-.16-7l7-21a27.78,27.78,0,0,1,5.75-9.67l14.63-15.44m0,0-14.63,15.45a27.56,27.56,0,0,0-5.77,9.72l-7,21c-1.15,3.46-1.09,6.17.16,7.09l7.62,5.57c1.25.92,3.51-.08,5.93-2.63l14.63-15.45a27.56,27.56,0,0,0,5.77-9.72l7-21c1.16-3.47,1.1-6.17-.15-7.09l-7.62-5.57c-1.25-.92-3.51.08-5.93,2.63Z"/><path class="cls-20" d="M301.9,292.19c2.6-2.6,5-3.56,6.21-2.5l7.54,6.48c1.23,1.06,1.15,4-.22,7.66l-8.37,22.42a30.24,30.24,0,0,1-6.43,10.17l-15.91,15.95c-2.6,2.6-5,3.56-6.21,2.5L271,348.39c-1.24-1.06-1.15-4,.22-7.66l8.37-22.42A30.23,30.23,0,0,1,286,308.13l15.91-15.94m0,0L286,308.1a30.13,30.13,0,0,0-6.46,10.22l-8.37,22.42c-1.38,3.7-1.47,6.63-.22,7.7l7.53,6.48c1.25,1.07,3.63.11,6.25-2.52l15.91-15.94a30.38,30.38,0,0,0,6.46-10.22l8.37-22.42c1.38-3.7,1.47-6.63.22-7.7l-7.53-6.48c-1.25-1.07-3.63-.11-6.25,2.52Z"/><path class="cls-21" d="M303.78,290.11c2.82-2.68,5.33-3.59,6.54-2.37l7.41,7.46c1.21,1.22,1,4.4-.65,8.31l-9.83,23.86a32.78,32.78,0,0,1-7.17,10.68l-17.24,16.4c-2.82,2.68-5.33,3.59-6.54,2.37l-7.41-7.46c-1.21-1.22-1-4.41.64-8.31l9.84-23.86a32.78,32.78,0,0,1,7.17-10.68l17.24-16.4m0,0-17.24,16.4a32.86,32.86,0,0,0-7.22,10.73l-9.83,23.86c-1.62,3.94-1.86,7.12-.64,8.35l7.41,7.46c1.22,1.23,3.72.33,6.56-2.38l17.24-16.4a33,33,0,0,0,7.22-10.73l9.83-23.86c1.62-3.94,1.86-7.12.64-8.35l-7.41-7.46c-1.22-1.23-3.72-.33-6.56,2.38Z"/><path class="cls-22" d="M305.84,288c3-2.75,5.67-3.59,6.85-2.2l7.22,8.52c1.19,1.39.76,4.83-1.11,9L307.39,328.6a35.86,35.86,0,0,1-8,11.18l-18.64,16.83c-3,2.75-5.67,3.59-6.85,2.2l-7.23-8.52c-1.18-1.39-.75-4.83,1.12-9L279.23,316a35.86,35.86,0,0,1,8-11.18L305.84,288m0,0L287.2,304.74a35.77,35.77,0,0,0-8,11.23l-11.42,25.35c-1.88,4.18-2.31,7.62-1.12,9l7.23,8.53c1.19,1.4,3.81.56,6.89-2.22l18.64-16.83a35.77,35.77,0,0,0,8-11.23l11.42-25.35c1.88-4.18,2.3-7.62,1.11-9l-7.22-8.52c-1.19-1.4-3.82-.56-6.89,2.22Z"/><path class="cls-23" d="M308.07,285.73c3.28-2.82,6-3.58,7.17-2l7,9.66c1.14,1.58.51,5.29-1.63,9.69l-13.13,26.86a38.57,38.57,0,0,1-8.81,11.69l-20.1,17.21c-3.29,2.82-6,3.58-7.18,2l-7-9.66c-1.14-1.58-.52-5.29,1.63-9.69l13.13-26.87A38.48,38.48,0,0,1,288,302.94l20.1-17.21m0-.05L288,302.89a38.9,38.9,0,0,0-8.85,11.74L266,341.5c-2.17,4.43-2.79,8.14-1.64,9.74l7,9.65c1.15,1.6,3.9.83,7.21-2l20.1-17.21a38.89,38.89,0,0,0,8.86-11.74l13.12-26.87c2.17-4.43,2.79-8.14,1.64-9.74l-7-9.65c-1.15-1.6-3.9-.83-7.22,2Z"/><path class="cls-24" d="M310.48,283.44c3.54-2.87,6.41-3.55,7.5-1.77l6.66,10.88c1.09,1.78.24,5.77-2.21,10.42l-15,28.42a41.41,41.41,0,0,1-9.7,12.19l-21.63,17.54c-3.53,2.87-6.41,3.55-7.49,1.77L262,352c-1.09-1.78-.24-5.77,2.2-10.42l15-28.42a41.41,41.41,0,0,1,9.7-12.19l21.62-17.54m0-.05-21.63,17.54a41.56,41.56,0,0,0-9.75,12.25l-15,28.42c-2.47,4.69-3.31,8.68-2.22,10.47L268.59,363c1.1,1.79,4,1.12,7.53-1.78l21.63-17.54a41.56,41.56,0,0,0,9.75-12.25l15-28.42c2.47-4.69,3.31-8.68,2.22-10.47L318,281.61c-1.1-1.79-4-1.12-7.53,1.78Z"/><path class="cls-25" d="M313.1,281.09c3.79-2.91,6.79-3.49,7.81-1.49l6.26,12.18c1,2-.06,6.28-2.83,11.19l-16.95,30a44.69,44.69,0,0,1-10.65,12.68l-23.22,17.82c-3.79,2.91-6.79,3.49-7.81,1.49l-6.27-12.18c-1-2,.07-6.28,2.84-11.19l17-30a44.37,44.37,0,0,1,10.65-12.68l23.22-17.82m0-.06-23.22,17.82a44.86,44.86,0,0,0-10.7,12.75l-16.95,30c-2.8,4.95-3.88,9.23-2.85,11.24L265.65,365c1,2,4,1.43,7.86-1.51l23.21-17.82A44.54,44.54,0,0,0,307.43,333l16.95-30c2.79-4.95,3.88-9.23,2.85-11.24L321,279.53c-1-2-4-1.43-7.85,1.5Z"/><path class="cls-26" d="M315.91,278.69c4.07-2.95,7.18-3.4,8.13-1.18l5.79,13.58c.94,2.22-.41,6.81-3.53,12l-19.08,31.61a47.49,47.49,0,0,1-11.65,13.16l-24.87,18c-4.06,2.95-7.18,3.4-8.12,1.18l-5.79-13.58c-1-2.22.41-6.81,3.53-12l19.08-31.61a47.49,47.49,0,0,1,11.65-13.16l24.86-18m0-.06-24.87,18a47.47,47.47,0,0,0-11.7,13.22l-19.08,31.61c-3.15,5.21-4.5,9.8-3.55,12l5.79,13.58c1,2.24,4.07,1.79,8.17-1.18l24.86-18a47.5,47.5,0,0,0,11.71-13.22l19.08-31.61c3.15-5.22,4.5-9.8,3.55-12l-5.79-13.58c-1-2.24-4.07-1.79-8.17,1.18Z"/><path class="cls-27" d="M318.94,276.24c4.35-3,7.58-3.28,8.44-.82l5.22,15.07c.85,2.47-.79,7.37-4.28,12.81L307,336.53a50.46,50.46,0,0,1-12.71,13.62l-26.58,18.17c-4.34,3-7.57,3.28-8.43.82L254,354.07c-.85-2.47.79-7.37,4.28-12.81L279.66,308a50.46,50.46,0,0,1,12.71-13.62l26.57-18.17m0-.06-26.58,18.16A50.81,50.81,0,0,0,279.62,308l-21.36,33.24c-3.52,5.47-5.16,10.38-4.3,12.86l5.22,15.07c.86,2.49,4.09,2.17,8.47-.82l26.58-18.16A50.81,50.81,0,0,0,307,336.53l21.36-33.24c3.52-5.47,5.16-10.38,4.3-12.86l-5.22-15.07c-.86-2.49-4.09-2.17-8.47.82Z"/><path class="cls-28" d="M322.2,273.76c4.63-3,8-3.14,8.72-.41L335.48,290c.74,2.72-1.21,8-5.1,13.66l-23.79,34.86c-3.89,5.7-9.19,11.09-13.82,14.07L264.42,370.8c-4.63,3-8,3.14-8.72.41l-4.56-16.65c-.75-2.72,1.21-8,5.1-13.66L280,306c3.89-5.7,9.18-11.09,13.82-14.07l28.35-18.21m0-.07L293.87,291.9c-4.67,3-10,8.39-13.89,14.14L256.2,340.9c-3.93,5.75-5.88,11-5.13,13.73l4.56,16.65c.75,2.75,4.09,2.59,8.77-.41l28.34-18.21c4.68-3,10-8.39,13.89-14.14l23.79-34.86c3.93-5.75,5.88-11,5.13-13.73L331,273.28c-.75-2.75-4.09-2.59-8.77.41Z"/><path class="cls-29" d="M325.68,271.25c4.93-3,8.38-2.95,9,0l3.79,18.34c.62,3-1.67,8.57-6,14.53l-26.38,36.5c-4.31,6-10.06,11.52-15,14.49l-30.17,18.16c-4.94,3-8.39,2.95-9,0l-3.79-18.34c-.62-3,1.67-8.57,6-14.54l26.39-36.49c4.31-6,10.06-11.52,15-14.49l30.17-18.16m0-.07-30.17,18.16c-5,3-10.72,8.54-15.07,14.56l-26.38,36.49c-4.35,6-6.64,11.59-6,14.61l3.79,18.34c.63,3,4.07,3,9.05,0l30.17-18.16c5-3,10.72-8.54,15.07-14.56l26.38-36.5c4.35-6,6.64-11.58,6-14.6l-3.79-18.34c-.63-3-4.08-3-9.05,0Z"/><path class="cls-30" d="M329.4,268.72c5.24-3,8.79-2.73,9.27.56l2.91,20.11c.47,3.29-2.19,9.21-7,15.44L305.48,343c-4.76,6.23-11,11.93-16.22,14.88l-32,18c-5.24,3-8.79,2.73-9.27-.56L245,355.16c-.47-3.28,2.19-9.2,7-15.43l29.14-38.13c4.76-6.23,11-11.93,16.22-14.88l32-18m0-.08-32.05,18c-5.28,3-11.5,8.67-16.3,15L252,339.72c-4.8,6.29-7.47,12.2-7,15.52l2.91,20.11c.48,3.32,4,3.54,9.31.57l32.05-18c5.28-3,11.49-8.67,16.3-15l29.14-38.12c4.8-6.29,7.47-12.2,7-15.52l-2.91-20.12c-.48-3.31-4-3.53-9.31-.56Z"/><path class="cls-31" d="M333.37,266.18c5.56-2.9,9.2-2.46,9.51,1.14l1.9,22c.31,3.59-2.75,9.86-8,16.36l-32.07,39.73c-5.24,6.5-12,12.34-17.51,15.24l-34,17.73c-5.56,2.9-9.2,2.46-9.51-1.14l-1.9-22c-.32-3.59,2.75-9.87,8-16.36l32.07-39.73c5.24-6.5,12-12.34,17.5-15.24l34-17.73m0-.08-34,17.73c-5.6,2.93-12.3,8.76-17.59,15.31l-32.06,39.73c-5.29,6.55-8.35,12.82-8,16.45l1.9,22c.31,3.63,4,4.06,9.56,1.14l34-17.73c5.6-2.93,12.3-8.76,17.59-15.31l32.06-39.73c5.29-6.55,8.35-12.82,8-16.45l-1.9-22c-.32-3.63-4-4.06-9.56-1.14Z"/><path class="cls-32" d="M337.6,263.66c5.87-2.84,9.6-2.16,9.72,1.76l.77,24c.12,3.93-3.37,10.56-9.12,17.31L303.8,348c-5.75,6.75-13,12.71-18.85,15.54L249,380.9c-5.87,2.84-9.6,2.16-9.73-1.76l-.76-24c-.13-3.93,3.37-10.56,9.12-17.32l35.17-41.31c5.75-6.75,13-12.71,18.84-15.54l35.94-17.32m0-.09-35.93,17.32c-5.92,2.86-13.14,8.81-18.94,15.62L247.6,337.83c-5.8,6.81-9.29,13.44-9.16,17.39l.76,24c.13,4,3.85,4.63,9.78,1.78l35.93-17.32c5.92-2.86,13.14-8.81,18.94-15.62L339,306.73c5.79-6.81,9.29-13.44,9.16-17.39l-.76-24c-.13-4-3.86-4.63-9.78-1.78Z"/><path class="cls-33" d="M342.08,261.15c6.2-2.74,10-1.79,9.92,2.47l-.51,26.09c-.09,4.26-4,11.26-10.33,18.27l-38.44,42.85c-6.29,7-14.05,13.07-20.25,15.81l-37.93,16.77c-6.2,2.74-10,1.79-9.92-2.47l.51-26.09c.09-4.26,4-11.26,10.33-18.27l38.44-42.85c6.29-7,14.05-13.07,20.25-15.81l37.93-16.77m.05-.09L304.2,277.83c-6.25,2.77-14,8.82-20.35,15.89l-38.44,42.85c-6.34,7.06-10.29,14.06-10.38,18.36L234.52,381c-.09,4.3,3.71,5.24,10,2.48l37.93-16.77c6.25-2.77,14-8.82,20.34-15.89L341.21,308c6.34-7.06,10.29-14.06,10.38-18.36l.51-26.09c.08-4.3-3.72-5.24-10-2.48Z"/><path class="cls-34" d="M346.83,258.69c6.54-2.63,10.4-1.38,10.08,3.24L355,290.21c-.32,4.63-4.77,12-11.62,19.26l-41.9,44.34c-6.86,7.25-15.17,13.38-21.71,16l-40,16.05c-6.53,2.63-10.39,1.38-10.07-3.24l1.94-28.29c.32-4.62,4.77-12,11.62-19.25l41.9-44.34c6.86-7.25,15.17-13.38,21.7-16l40-16.05m.06-.1-40,16.06c-6.59,2.65-14.9,8.78-21.81,16.09l-41.9,44.34c-6.91,7.31-11.36,14.68-11.68,19.34l-1.94,28.29c-.32,4.66,3.54,5.9,10.13,3.26l40-16.06c6.58-2.65,14.9-8.78,21.81-16.09l41.9-44.34c6.9-7.31,11.36-14.68,11.68-19.34L357,261.85c.32-4.66-3.54-5.9-10.13-3.26Z"/><path class="cls-35" d="M351.86,256.28c6.87-2.48,10.78-.91,10.2,4.09L358.53,291c-.58,5-5.57,12.75-13,20.23L300,357c-7.45,7.48-16.34,13.67-23.21,16.15l-42,15.17c-6.87,2.48-10.78.91-10.2-4.09l3.53-30.6c.58-5,5.56-12.75,13-20.24l45.54-45.75c7.45-7.48,16.34-13.67,23.21-16.15l42-15.17m.07-.1-42,15.17c-6.93,2.5-15.82,8.69-23.33,16.23l-45.54,45.75c-7.51,7.55-12.49,15.3-13.07,20.34l-3.54,30.6c-.58,5,3.33,6.61,10.25,4.11l42-15.17c6.93-2.5,15.82-8.69,23.33-16.23l45.54-45.75c7.51-7.55,12.49-15.3,13.07-20.34l3.54-30.6c.58-5-3.33-6.61-10.25-4.11Z"/><path class="cls-36" d="M357.17,254c7.2-2.3,11.14-.38,10.28,5l-5.3,33c-.87,5.4-6.42,13.53-14.49,21.23L298.29,360.3c-8.07,7.7-17.56,13.92-24.77,16.22L229.45,390.6c-7.2,2.3-11.14.38-10.28-5l5.3-33c.87-5.4,6.42-13.53,14.49-21.23l49.37-47.09c8.07-7.7,17.56-13.92,24.77-16.22L357.17,254m.07-.11-44.07,14.09c-7.27,2.32-16.76,8.53-24.89,16.29l-49.37,47.09c-8.14,7.76-13.69,15.9-14.56,21.34l-5.3,33c-.87,5.45,3.06,7.37,10.33,5l44.07-14.09c7.27-2.32,16.75-8.53,24.89-16.29l49.37-47.09c8.14-7.76,13.69-15.9,14.56-21.34l5.3-33c.87-5.44-3.07-7.36-10.33-5Z"/><path class="cls-37" d="M362.76,251.73c7.54-2.09,11.49.22,10.31,6l-7.25,35.53c-1.18,5.81-7.34,14.33-16.07,22.23l-53.37,48.31c-8.73,7.91-18.84,14.11-26.38,16.21l-46.14,12.79c-7.54,2.09-11.49-.22-10.31-6l7.25-35.53c1.18-5.81,7.34-14.33,16.07-22.23l53.37-48.32c8.73-7.9,18.84-14.1,26.38-16.2l46.14-12.79m.07-.11L316.7,264.41c-7.6,2.11-17.71,8.32-26.51,16.28L236.81,329c-8.8,8-14.95,16.48-16.15,22.34l-7.24,35.53c-1.19,5.86,2.76,8.16,10.36,6.06l46.14-12.79c7.6-2.11,17.71-8.32,26.51-16.29l53.37-48.31c8.8-8,15-16.48,16.15-22.34l7.25-35.53c1.19-5.86-2.76-8.17-10.37-6.06Z"/><path class="cls-38" d="M368.63,249.64c7.88-1.85,11.82.88,10.29,7.12l-9.39,38.16c-1.53,6.24-8.33,15.13-17.74,23.21l-57.58,49.43c-9.41,8.08-20.15,14.25-28,16.09L218,394.92c-7.88,1.85-11.82-.88-10.29-7.12l9.38-38.16c1.54-6.24,8.34-15.13,17.75-23.21L292.4,277c9.42-8.08,20.16-14.25,28-16.09l48.19-11.27m.09-.12-48.19,11.27c-7.95,1.86-18.69,8-28.18,16.17l-57.57,49.43c-9.49,8.15-16.29,17-17.83,23.33l-9.39,38.16c-1.54,6.29,2.4,9,10.34,7.16l48.19-11.27c7.94-1.86,18.68-8,28.18-16.17l57.57-49.43c9.49-8.15,16.29-17,17.83-23.33l9.39-38.16c1.54-6.29-2.4-9-10.34-7.16Z"/><path class="cls-39" d="M374.79,247.69c8.21-1.55,12.12,1.63,10.21,8.32l-11.73,40.88c-1.92,6.69-9.4,16-19.53,24.2l-61.95,50.39c-10.13,8.24-21.53,14.33-29.74,15.88l-50.22,9.51c-8.21,1.55-12.12-1.63-10.21-8.32l11.73-40.88c1.92-6.69,9.4-16,19.53-24.2l61.95-50.39c10.13-8.24,21.53-14.33,29.74-15.88l50.22-9.51m.1-.12-50.22,9.51c-8.28,1.57-19.67,7.65-29.89,16l-61.95,50.39c-10.21,8.31-17.69,17.57-19.63,24.32l-11.72,40.88c-1.94,6.74,2,9.93,10.25,8.36L262,387.48c8.28-1.57,19.67-7.65,29.89-16l62-50.39c10.21-8.31,17.69-17.58,19.62-24.32l11.73-40.88c1.94-6.74-2-9.93-10.25-8.36Z"/><path class="cls-40" d="M381.24,245.93c8.54-1.23,12.39,2.46,10.05,9.6L377,299.25c-2.33,7.15-10.54,16.79-21.42,25.16L289.07,375.6c-10.87,8.37-22.93,14.33-31.47,15.56l-52.22,7.47c-8.54,1.22-12.39-2.46-10.06-9.6l14.3-43.72c2.33-7.15,10.54-16.79,21.42-25.16L297.55,269c10.87-8.37,22.93-14.33,31.47-15.56l52.22-7.47m.1-.13-52.21,7.48c-8.61,1.23-20.67,7.19-31.63,15.63L231,320.1c-11,8.44-19.17,18.08-21.53,25.29L195.17,389.1c-2.36,7.21,1.5,10.89,10.1,9.66l52.22-7.48c8.61-1.23,20.67-7.19,31.63-15.63l66.51-51.19c11-8.44,19.17-18.08,21.53-25.29l14.29-43.71c2.36-7.21-1.5-10.89-10.11-9.66Z"/><path class="cls-41" d="M388,244.38c8.86-.84,12.63,3.37,9.83,11L380.72,302c-2.79,7.63-11.77,17.63-23.42,26.1l-71.24,51.8c-11.65,8.47-24.39,14.26-33.25,15.1l-54.16,5.16c-8.86.84-12.63-3.37-9.84-11l17.09-46.64c2.79-7.63,11.76-17.63,23.41-26.1l71.25-51.8c11.65-8.47,24.39-14.26,33.25-15.1L388,244.38m.12-.13-54.17,5.16c-8.92.85-21.66,6.63-33.41,15.17l-71.24,51.81c-11.75,8.54-20.72,18.53-23.54,26.22l-17.08,46.65c-2.82,7.69.95,11.9,9.88,11.05l54.16-5.16c8.93-.85,21.67-6.64,33.42-15.18l71.24-51.8c11.75-8.54,20.72-18.54,23.54-26.22L398,255.3c2.81-7.69-1-11.9-9.88-11.05Z"/><path class="cls-42" d="M395,243.08c9.16-.41,12.81,4.37,9.52,12.49L384.4,305.24c-3.29,8.12-13.07,18.47-25.52,27l-76.16,52.2C270.26,393,256.83,398.53,247.67,399l-56,2.53c-9.17.41-12.81-4.37-9.53-12.49l20.12-49.67c3.29-8.12,13.07-18.47,25.52-27l76.16-52.2c12.45-8.53,25.88-14.09,35.05-14.51l56-2.53m.13-.13-56.05,2.53c-9.23.42-22.66,6-35.22,14.58l-76.15,52.2c-12.56,8.6-22.34,18.95-25.65,27.13l-20.12,49.67c-3.32,8.18.33,13,9.57,12.55l56-2.53c9.24-.42,22.67-6,35.22-14.58l76.16-52.2c12.56-8.6,22.34-18.95,25.65-27.13l20.12-49.67c3.31-8.18-.33-13-9.57-12.55Z"/><path class="cls-43" d="M402.28,242.07c9.46.07,13,5.47,9.13,14.1L388,308.94c-3.83,8.63-14.46,19.3-27.74,27.86L279,389.15c-13.28,8.56-27.41,13.83-36.86,13.77l-57.84-.43c-9.45-.07-13-5.47-9.12-14.1l23.4-52.77c3.83-8.63,14.46-19.3,27.74-27.86l81.23-52.35c13.29-8.56,27.41-13.83,36.87-13.77l57.83.43m.14-.14-57.83-.42c-9.54-.07-23.66,5.2-37,13.83L226.3,307.69c-13.39,8.63-24,19.3-27.87,28L175,388.46c-3.85,8.7-.36,14.1,9.18,14.17l57.83.42c9.53.07,23.66-5.2,37-13.83l81.23-52.35c13.4-8.63,24-19.3,27.88-28l23.4-52.77c3.86-8.7.37-14.1-9.17-14.17Z"/><path class="cls-44" d="M409.85,241.38c9.73.61,13,6.67,8.63,15.82l-27,56c-4.41,9.15-15.93,20.14-30.07,28.68L275,394.06c-14.14,8.54-29,13.46-38.7,12.85l-59.52-3.73c-9.73-.61-13-6.67-8.63-15.82l27-56c4.41-9.15,15.93-20.14,30.07-28.68l86.47-52.22c14.14-8.54,29-13.46,38.7-12.85l59.52,3.73m.15-.14-59.52-3.73c-9.81-.62-24.64,4.3-38.89,12.91l-86.47,52.22c-14.26,8.61-25.78,19.6-30.22,28.82l-27,56c-4.45,9.22-1.14,15.29,8.67,15.9l59.52,3.73c9.81.62,24.63-4.3,38.89-12.91l86.47-52.22c14.26-8.61,25.77-19.6,30.22-28.82l26.95-56c4.45-9.22,1.14-15.29-8.67-15.9Z"/><path class="cls-45" d="M417.67,241.06c10,1.22,13.07,8,8,17.67l-30.78,59.21c-5,9.68-17.49,21-32.51,29.43l-91.86,51.79c-15,8.47-30.55,13-40.54,11.76L169,403.5c-10-1.22-13.07-8-8-17.67l30.78-59.21c5-9.68,17.49-21,32.51-29.43l91.85-51.79c15-8.47,30.56-13,40.54-11.76l61.07,7.42m.16-.14-61.07-7.42c-10.06-1.23-25.59,3.28-40.74,11.82l-91.85,51.79c-15.14,8.53-27.6,19.81-32.67,29.57l-30.78,59.21c-5.08,9.76-2,16.53,8.06,17.75l61.07,7.42c10.07,1.23,25.6-3.28,40.74-11.82l91.86-51.79c15.14-8.53,27.59-19.81,32.67-29.57l30.78-59.21c5.08-9.76,2-16.53-8.07-17.75Z"/><path class="cls-46" d="M425.75,241.16c10.21,1.89,13,9.41,7.3,19.63l-34.9,62.53c-5.71,10.23-19.14,21.76-35.06,30.1l-97.37,51c-15.93,8.34-32.16,12.35-42.38,10.47L160.87,403.4c-10.21-1.89-13-9.41-7.31-19.63l34.91-62.53c5.7-10.23,19.14-21.76,35.06-30.1l97.37-51c15.93-8.34,32.16-12.35,42.38-10.47l62.47,11.51m.17-.15L363.45,229.5c-10.3-1.9-26.53,2.11-42.58,10.52L223.5,291C207.44,299.45,194,311,188.26,321.29l-34.91,62.53c-5.75,10.31-2.95,17.83,7.35,19.73l62.47,11.51c10.3,1.9,26.53-2.11,42.58-10.52l97.37-51c16.05-8.41,29.49-19.94,35.24-30.25l34.9-62.53c5.76-10.31,3-17.83-7.34-19.73Z"/><path class="cls-47" d="M434.05,241.73c10.42,2.62,12.89,10.94,6.46,21.72l-39.32,65.9c-6.43,10.77-20.89,22.53-37.73,30.69l-103,49.86c-16.85,8.15-33.78,11.59-44.2,9l-63.68-16c-10.42-2.62-12.89-10.94-6.46-21.72l39.32-65.9c6.43-10.77,20.89-22.53,37.73-30.69l103-49.86c16.85-8.15,33.78-11.59,44.19-9l63.69,16m.19-.15-63.69-16c-10.5-2.64-27.43.79-44.41,9l-103,49.87c-17,8.22-31.44,20-37.92,30.84l-39.32,65.9c-6.48,10.86-4,19.18,6.49,21.82l63.69,16c10.5,2.64,27.43-.79,44.41-9l103-49.87c17-8.22,31.43-20,37.92-30.84l39.32-65.9c6.48-10.86,4-19.18-6.49-21.82Z"/><path class="cls-48" d="M442.57,242.81c10.58,3.44,12.68,12.61,5.47,23.94L404,336.06c-7.21,11.33-22.73,23.28-40.51,31.18L254.73,415.53c-17.79,7.9-35.41,10.67-46,7.23l-64.69-21c-10.58-3.44-12.68-12.61-5.48-23.94l44.06-69.31c7.2-11.33,22.73-23.28,40.51-31.18L331.89,229c17.79-7.9,35.41-10.67,46-7.23l64.7,21m.2-.15-64.69-21c-10.67-3.46-28.29-.69-46.21,7.27l-108.76,48.3c-17.93,8-33.44,19.9-40.71,31.33l-44.05,69.3c-7.27,11.43-5.17,20.6,5.5,24.06l64.69,21c10.67,3.46,28.28.69,46.21-7.27l108.76-48.3c17.92-8,33.44-19.9,40.71-31.33l44-69.3c7.26-11.43,5.17-20.6-5.5-24.06Z"/><path class="cls-49" d="M451.28,244.47c10.71,4.33,12.37,14.4,4.34,26.3L406.51,343.5c-8,11.9-24.66,24-43.4,31.55L248.53,421.32c-18.74,7.56-37,9.57-47.73,5.24l-65.47-26.47c-10.7-4.33-12.36-14.41-4.33-26.3l49.11-72.73c8-11.9,24.66-24,43.4-31.55l114.58-46.27c18.73-7.56,37-9.57,47.73-5.24l65.46,26.47m.22-.16L386,217.84c-10.79-4.36-29.07-2.35-48,5.27L223.49,269.38C204.6,277,188,289.09,179.88,301.08l-49.12,72.74c-8.09,12-6.43,22.06,4.36,26.43l65.47,26.47c10.79,4.36,29.07,2.35,48-5.27l114.58-46.27c18.89-7.63,35.52-19.71,43.61-31.7l49.12-72.74c8.09-12,6.43-22.06-4.36-26.43Z"/><path class="cls-50" d="M460.16,246.76c10.79,5.31,11.95,16.34,3,28.79l-54.51,76.18c-8.91,12.45-26.68,24.63-46.38,31.78L241.84,427.25c-19.7,7.15-38.64,8.29-49.42,3l-66-32.44c-10.78-5.31-12-16.34-3-28.8l54.5-76.17c8.92-12.45,26.69-24.63,46.39-31.78l120.47-43.74c19.7-7.15,38.64-8.29,49.42-3l66,32.44m.23-.16-66-32.44c-10.87-5.34-29.81-4.2-49.67,3L224.3,260.9c-19.86,7.21-37.63,19.39-46.62,32L123.17,369c-9,12.56-7.82,23.59,3.06,28.94l66,32.44c10.87,5.34,29.8,4.2,49.66-3l120.47-43.73c19.86-7.21,37.63-19.39,46.62-32l54.51-76.17c9-12.56,7.82-23.59-3.06-28.94Z"/><path class="cls-51" d="M469.18,249.75c10.82,6.37,11.42,18.41,1.57,31.43l-60.25,79.6c-9.85,13-28.81,25.23-49.48,31.88L234.63,433.3c-20.67,6.65-40.23,6.82-51,.46l-66.15-38.95c-10.82-6.37-11.42-18.41-1.57-31.43l60.25-79.6c9.85-13,28.81-25.23,49.47-31.88L352,211.26c20.67-6.65,40.23-6.82,51-.46l66.15,38.95m.25-.15-66.15-38.95c-10.91-6.42-30.46-6.25-51.3.45L225.59,251.75c-20.84,6.7-39.79,18.91-49.73,32l-60.24,79.6c-9.93,13.12-9.33,25.16,1.57,31.58l66.15,39c10.91,6.42,30.46,6.25,51.3-.45L361,392.81c20.84-6.7,39.79-18.91,49.72-32L471,281.18c9.93-13.12,9.33-25.16-1.57-31.58Z"/><path class="cls-52" d="M478.3,253.51c10.79,7.53,10.76,20.63-.09,34.2l-66.34,83c-10.85,13.57-31,25.76-52.66,31.8l-132.33,37c-21.64,6-41.78,5.13-52.58-2.4l-66-46c-10.79-7.53-10.76-20.63.09-34.2l66.34-83c10.84-13.57,31-25.76,52.66-31.81l132.33-37c21.64-6.05,41.78-5.13,52.57,2.4l66,46m.26-.16-66-46c-10.87-7.59-31-8.51-52.83-2.41l-132.33,37c-21.81,6.09-42,18.27-52.92,31.95l-66.34,83c-10.94,13.69-11,26.79-.09,34.38l66,46c10.88,7.59,31,8.51,52.84,2.41l132.33-37c21.81-6.09,42-18.27,52.92-31.95l66.34-83c10.94-13.68,11-26.78.09-34.37Z"/><path class="cls-53" d="M487.49,258.11c10.7,8.78,9.95,23-1.95,37.12l-72.8,86.33c-11.9,14.11-33.34,26.2-55.94,31.53L218.56,445.73c-22.6,5.34-43.29,3.2-54-5.58l-65.44-53.7c-10.7-8.78-9.95-23,2-37.12L173.87,263c11.91-14.11,33.34-26.2,55.95-31.53l138.23-32.64c22.61-5.34,43.3-3.2,54,5.58l65.44,53.7m.28-.16-65.44-53.69c-10.79-8.85-31.48-11-54.27-5.61L229.83,231.28c-22.79,5.38-44.22,17.46-56.22,31.7l-72.8,86.32c-12,14.24-12.75,28.46-2,37.31l65.44,53.69c10.79,8.85,31.48,11,54.26,5.61l138.24-32.63c22.79-5.38,44.22-17.46,56.22-31.7l72.8-86.33c12-14.23,12.74-28.45,2-37.3Z"/><path class="cls-54" d="M496.7,263.62c10.54,10.13,9,25.53-4,40.18l-79.63,89.58c-13,14.65-35.74,26.56-59.3,31.07l-144.08,27.6c-23.57,4.51-44.75,1-55.29-9.12l-64.46-62c-10.54-10.13-9-25.53,4-40.18l79.62-89.59c13-14.64,35.75-26.55,59.31-31.06L377,192.51c23.56-4.51,44.75-1,55.29,9.12l64.46,62m.29-.16-64.46-62c-10.62-10.22-31.8-13.71-55.56-9.16l-144.08,27.6c-23.75,4.55-46.47,16.45-59.6,31.22L93.67,340.72c-13.13,14.76-14.67,30.16-4,40.38l64.46,62c10.62,10.21,31.8,13.71,55.56,9.16l144.08-27.6c23.75-4.55,46.47-16.45,59.6-31.22L493,303.84c13.13-14.77,14.67-30.16,4-40.38Z"/><path class="cls-55" d="M505.88,270.12c10.3,11.6,7.88,28.22-6.32,43.39l-86.83,92.73c-14.2,15.17-38.24,26.8-62.74,30.37l-149.83,21.8c-24.5,3.56-46.12-1.43-56.42-13l-63-70.94c-10.3-11.6-7.88-28.22,6.32-43.39l86.83-92.73c14.2-15.17,38.24-26.8,62.74-30.37l149.83-21.8c24.5-3.56,46.12,1.43,56.42,13l63,70.94m.31-.15-63-70.94c-10.39-11.69-32-16.68-56.7-13.09l-149.83,21.8c-24.7,3.59-48.74,15.22-63,30.51L86.78,331C72.46,346.28,70,362.9,80.43,374.59l63,70.94c10.39,11.69,32,16.68,56.7,13.09L350,436.82c24.7-3.59,48.74-15.22,63.05-30.51l86.83-92.74c14.32-15.29,16.74-31.91,6.35-43.6Z"/><path class="cls-56" d="M515,277.69c10,13.18,6.58,31.09-8.86,46.74L411.7,420.18c-15.44,15.66-40.82,26.93-66.24,29.41L190,464.77c-25.41,2.48-47.4-4.16-57.38-17.34l-61-80.56c-10-13.18-6.58-31.09,8.86-46.74l94.42-95.75c15.44-15.66,40.82-26.93,66.23-29.41l155.44-15.18C422,177.31,444,184,454,197.13l61,80.56m.33-.14-61-80.57c-10.05-13.28-32-19.92-57.66-17.42L241.2,194.74c-25.63,2.5-51,13.77-66.57,29.55L80.21,320c-15.56,15.78-19,33.69-8.9,47l61,80.57c10.06,13.28,32,19.92,57.67,17.42l155.43-15.18c25.63-2.5,51-13.77,66.57-29.55l94.42-95.75c15.56-15.78,18.95-33.69,8.9-47Z"/><path class="cls-57" d="M523.94,286.43c9.55,14.87,5.09,34.12-11.66,50.24L409.89,435.25c-16.75,16.12-43.49,26.92-69.79,28.17L179.26,471.1c-26.3,1.26-48.58-7.2-58.13-22.06L62.68,358.13c-9.55-14.87-5.09-34.12,11.65-50.24l102.4-98.58c16.75-16.12,43.49-26.92,69.79-28.17l160.84-7.68c26.3-1.26,48.58,7.2,58.13,22.06l58.45,90.91m.34-.14-58.44-90.91c-9.64-15-31.91-23.43-58.42-22.17l-160.84,7.68c-26.52,1.26-53.25,12.05-70.13,28.31L74.05,307.78C57.17,324,52.7,343.28,62.34,358.27l58.44,90.9c9.64,15,31.91,23.44,58.42,22.18L340,463.67c26.52-1.26,53.25-12.06,70.13-28.31l102.4-98.58c16.88-16.26,21.35-35.5,11.71-50.49Z"/><path class="cls-58" d="M532.68,296.43c9,16.67,3.4,37.31-14.72,53.87L407.2,451.51c-18.11,16.55-46.23,26.75-73.37,26.63l-166-.78c-27.14-.12-49.61-10.56-58.65-27.24l-55.24-102c-9-16.67-3.39-37.32,14.72-53.87L179.42,193.05c18.11-16.55,46.23-26.75,73.37-26.63l166,.78c27.15.12,49.62,10.56,58.66,27.24l55.23,102m.37-.14-55.24-102c-9.11-16.82-31.58-27.25-58.94-27.38l-166-.77c-27.36-.13-55.47,10.07-73.73,26.75L68.36,294.13c-18.26,16.69-23.89,37.32-14.79,54.14l55.24,102c9.11,16.82,31.58,27.25,58.94,27.38l166,.77c27.37.13,55.48-10.07,73.74-26.75L518.25,350.43c18.26-16.69,23.9-37.32,14.8-54.14Z"/><path class="cls-59" d="M541.15,307.77c8.39,18.61,1.47,40.7-18.08,57.64L403.55,469c-19.54,16.94-49,26.42-77,24.74L155.71,483.52c-27.94-1.68-50.51-14.28-58.9-32.9L45.47,336.79c-8.39-18.61-1.47-40.7,18.08-57.64l119.52-103.6c19.54-16.94,49-26.42,77-24.74L430.91,161c27.93,1.68,50.51,14.28,58.9,32.9l51.34,113.83m.38-.12L490.19,193.81c-8.46-18.76-31-31.36-59.2-33.05L260.14,150.52c-28.17-1.69-57.66,7.79-77.36,24.87L63.25,279c-19.7,17.08-26.62,39.16-18.16,57.92L96.43,450.75c8.46,18.76,31,31.36,59.19,33.05L326.48,494c28.17,1.69,57.66-7.79,77.36-24.87l119.52-103.6c19.71-17.08,26.63-39.16,18.17-57.92Z"/><path class="cls-60" d="M549.25,320.56c7.63,20.68-.7,44.26-21.74,61.55L398.85,487.79c-21,17.28-51.92,25.9-80.59,22.51L142.91,489.51c-28.67-3.4-51.22-18.36-58.86-39L37.37,324c-7.63-20.68.7-44.26,21.74-61.55L187.77,156.77c21-17.28,51.92-25.9,80.59-22.51l175.35,20.79c28.67,3.4,51.22,18.36,58.86,39l46.68,126.47m.4-.11L503,194c-7.7-20.85-30.25-35.81-59.16-39.23L268.47,134c-28.91-3.43-59.78,5.19-81,22.62L58.82,262.26c-21.22,17.42-29.54,41-21.85,61.85L83.65,450.58c7.7,20.85,30.25,35.81,59.15,39.23L318.15,510.6c28.9,3.43,59.78-5.2,81-22.62L527.8,382.3c21.21-17.42,29.54-41,21.85-61.85Z"/><path class="cls-61" d="M556.89,334.9c6.74,22.89-3.12,48-25.71,65.58L393,507.91c-22.6,17.57-54.86,25.18-84.19,19.87L129.41,495.29c-29.34-5.32-51.75-22.83-58.48-45.71L29.73,309.65c-6.74-22.88,3.11-48,25.71-65.57L193.63,136.65c22.6-17.57,54.86-25.18,84.19-19.87l179.39,32.49C486.55,154.59,509,172.1,515.69,195l41.2,139.92m.42-.09-41.2-139.93c-6.79-23.07-29.2-40.58-58.77-45.93L278,116.46c-29.57-5.36-61.83,2.25-84.61,20L55.15,243.85c-22.78,17.71-32.63,42.84-25.84,65.9l41.2,139.93c6.79,23.06,29.2,40.57,58.77,45.93L308.67,528.1c29.57,5.36,61.83-2.25,84.61-20L531.47,400.71c22.78-17.72,32.63-42.84,25.84-65.9Z"/><path class="cls-62" d="M564,350.91c5.7,25.22-5.81,51.93-30,69.72L385.86,529.42c-24.21,17.79-57.84,24.23-87.75,16.8L115.19,500.8c-29.91-7.43-52-27.71-57.73-52.93L22.64,293.65c-5.7-25.22,5.81-51.93,30-69.72l148.1-108.79C225,97.35,258.6,90.91,288.51,98.34l182.92,45.42c29.91,7.43,52,27.71,57.72,52.93L564,350.91m.44-.09L529.59,196.61c-5.74-25.43-27.86-45.7-58-53.19L288.66,98c-30.16-7.49-63.78-1-88.19,16.88L52.38,223.67C28,241.6,16.46,268.31,22.2,293.74L57,448c5.74,25.43,27.86,45.7,58,53.19L298,546.57c30.16,7.49,63.77,1,88.19-16.88l148.09-108.8c24.41-17.93,35.92-44.64,30.18-70.07Z"/><path class="cls-63" d="M570.42,368.68c4.49,27.7-8.8,56-34.7,74L377.36,552.37c-25.89,17.94-60.86,23-91.25,13.27L100.26,506c-30.4-9.76-52.07-33-56.56-60.72L16.2,275.88c-4.49-27.7,8.8-56,34.7-74L209.26,92.19c25.89-17.94,60.86-23,91.25-13.27l185.85,59.67c30.39,9.76,52.07,33,56.56,60.72l27.5,169.37m.45-.07-27.5-169.37c-4.53-27.92-26.2-51.18-56.84-61L300.68,78.56C270,68.72,235.08,73.8,209,91.89L50.62,201.6C24.51,219.68,11.22,248,15.75,276l27.5,169.37c4.53,27.92,26.19,51.18,56.83,61L285.94,566c30.64,9.84,65.59,4.76,91.7-13.33L536,443c26.11-18.08,39.4-46.42,34.87-74.35Z"/><path class="cls-64" d="M576.07,388.34c3.13,30.31-12.09,60.33-39.72,78.34l-169,110.12c-27.63,18-63.9,21.54-94.66,9.23L84.6,510.74C53.84,498.43,32.79,472,29.66,441.63L10.54,256.22c-3.12-30.31,12.1-60.33,39.73-78.34l169-110.12c27.64-18,63.91-21.54,94.67-9.23L502,133.82c30.76,12.31,51.81,38.79,54.93,69.11l19.12,185.41m.47,0L557.42,202.88c-3.15-30.56-24.19-57-55.2-69.45L314.11,58.14A104.89,104.89,0,0,0,219,67.42L50,177.54C22.14,195.69,6.92,225.7,10.08,256.27L29.2,441.68c3.15,30.56,24.19,57,55.2,69.45l188.11,75.29a104.89,104.89,0,0,0,95.13-9.28L536.62,467c27.86-18.15,43.07-48.16,39.92-78.73Z"/><path class="cls-65" d="M580.83,410c1.58,33.09-15.72,64.81-45.14,82.79l-179.94,110a103,103,0,0,1-98,4.66L68.22,515c-31-15.1-51.23-45-52.8-78.12L5.78,234.57c-1.57-33.09,15.73-64.81,45.15-82.79l179.94-110a103,103,0,0,1,98-4.66L518.4,129.52c31,15.11,51.23,45,52.8,78.13L580.83,410m.49,0-9.63-202.34c-1.59-33.36-21.82-63.29-53.07-78.51L329.05,36.74a103.2,103.2,0,0,0-98.44,4.69l-179.94,110C21,169.52,3.71,201.23,5.3,234.59l9.63,202.34c1.59,33.36,21.82,63.29,53.07,78.51l189.57,92.38A103.2,103.2,0,0,0,356,603.13L536,493.17c29.66-18.13,47-49.84,45.37-83.2Z"/><path class="cls-66" d="M584.56,433.77a101.37,101.37,0,0,1-51,87.31L342.38,630.26a101.39,101.39,0,0,1-101.1-.49l-190.15-111A101.4,101.4,0,0,1,1,431L2.06,210.79a101.37,101.37,0,0,1,51-87.31L244.24,14.3a101.37,101.37,0,0,1,101.09.49l190.16,111a101.4,101.4,0,0,1,50.13,87.8l-1.06,220.18m.5,0,1.06-220.18a101.6,101.6,0,0,0-50.38-88.23l-190.15-111A101.6,101.6,0,0,0,244,13.87L52.78,123A101.6,101.6,0,0,0,1.56,210.79L.5,431A101.6,101.6,0,0,0,50.88,519.2L241,630.2a101.6,101.6,0,0,0,101.6.49L533.84,521.52a101.6,101.6,0,0,0,51.22-87.75Z"/></g></g></g></svg>