<svg xmlns="http://www.w3.org/2000/svg" width="115.997" height="120.979" viewBox="0 0 115.997 120.979">
  <g id="Group_25" data-name="Group 25" transform="translate(-828 -488.021)">
    <g id="Group_24" data-name="Group 24">
      <g id="Ellipse_1" data-name="Ellipse 1" transform="translate(841 503)" fill="none" stroke="#f100f9" stroke-width="3" opacity="0.33">
        <circle cx="45.5" cy="45.5" r="45.5" stroke="none"/>
        <circle cx="45.5" cy="45.5" r="44" fill="none"/>
      </g>
      <g id="Group_23" data-name="Group 23" transform="translate(811.203 480.719)">
        <g id="Group_16" data-name="Group 16" transform="translate(64.661 7.303)">
          <g id="Group_16-2" data-name="Group 16" transform="translate(0 0)">
            <g id="Layer_2" data-name="Layer 2" transform="translate(0)">
              <g id="Layer_1" data-name="Layer 1">
                <g id="Group_22" data-name="Group 22">
                  <g id="Group_21" data-name="Group 21">
                    <path id="Path_172" data-name="Path 172" d="M12.074,100.1,0,105.584l12.074,7.143,12.089-7.143Z" transform="translate(0 -85.538)" fill="#ff31ff" opacity="0.6"/>
                    <path id="Path_173" data-name="Path 173" d="M0,20.046l12.074,7.143V0Z" fill="#ff31ff" opacity="0.45"/>
                    <path id="Path_174" data-name="Path 174" d="M83,0V27.189l12.089-7.143Z" transform="translate(-70.926)" fill="#ff31ff" opacity="0.8"/>
                    <path id="Path_175" data-name="Path 175" d="M0,153.6l12.074,17.021v-9.892Z" transform="translate(0 -131.255)" fill="#ff31ff" opacity="0.45"/>
                    <path id="Path_176" data-name="Path 176" d="M83,160.728v9.892L95.089,153.6Z" transform="translate(-70.926 -131.255)" fill="#ff31ff" opacity="0.8"/>
                  </g>
                </g>
              </g>
            </g>
          </g>
        </g>
        <g id="Group_17" data-name="Group 17" transform="translate(98.239 53.678)">
          <g id="Group_13" data-name="Group 13" transform="translate(0 0)">
            <g id="Group_12" data-name="Group 12" transform="translate(0 0)">
              <g id="Group_11" data-name="Group 11">
                <g id="polygon-matic-logo">
                  <path id="Path_177" data-name="Path 177" d="M26.164,9.193a2.3,2.3,0,0,0-2.165,0L18.947,12.17l-3.428,1.895-4.962,2.977a2.3,2.3,0,0,1-2.165,0L4.511,14.7A2.2,2.2,0,0,1,3.428,12.8V8.291A2.225,2.225,0,0,1,4.511,6.4L8.391,4.14a2.3,2.3,0,0,1,2.165,0l3.88,2.346a2.2,2.2,0,0,1,1.083,1.895v2.977l3.428-1.985V6.306a2.225,2.225,0,0,0-1.083-1.895L10.646.171a2.3,2.3,0,0,0-2.165,0L1.083,4.5A1.985,1.985,0,0,0,0,6.306v8.481a2.225,2.225,0,0,0,1.083,1.895l7.308,4.24a2.3,2.3,0,0,0,2.165,0l4.962-2.887,3.428-1.985,4.962-2.887a2.3,2.3,0,0,1,2.165,0l3.88,2.256a2.2,2.2,0,0,1,1.083,1.895v4.511a2.225,2.225,0,0,1-1.083,1.895l-3.789,2.256a2.3,2.3,0,0,1-2.165,0l-3.88-2.256a2.2,2.2,0,0,1-1.083-1.895V18.937l-3.428,1.985V23.9a2.225,2.225,0,0,0,1.083,1.895L24,30.034a2.3,2.3,0,0,0,2.165,0l7.308-4.24A2.2,2.2,0,0,0,34.555,23.9V15.328a2.225,2.225,0,0,0-1.083-1.895Z" transform="translate(0 0.1)" fill="#ff31ff"/>
                </g>
              </g>
            </g>
          </g>
        </g>
        <g id="Group_15" data-name="Group 15" transform="translate(59.246 93.288)">
          <g id="Group_14" data-name="Group 14" transform="translate(0 0)">
            <g id="Group_20" data-name="Group 20" transform="translate(0 0)">
              <g id="Layer_2-2" data-name="Layer 2" transform="translate(0)">
                <g id="Layer_1-2" data-name="Layer 1">
                  <path id="Path_162" data-name="Path 162" d="M10.7,14.7l6.8-6.8,6.8,6.8,3.954-3.954L17.5,0,6.747,10.75,10.7,14.7M0,17.5l3.954-3.955L7.909,17.5,3.954,21.45Zm10.7,2.793,6.8,6.8,6.8-6.8,3.956,3.952,0,0L17.5,34.993,6.747,24.243l-.006-.006,3.96-3.949M27.085,17.5l3.954-3.954L34.993,17.5l-3.954,3.954Z" fill="#ff31ff"/>
                  <path id="Path_163" data-name="Path 163" d="M971.215,967.2h0L967.2,963.19l-2.966,2.965h0l-.341.341-.7.7-.006.005.006.006,4.009,4.009,4.013-4.012,0,0,0,0" transform="translate(-949.708 -949.708)" fill="#ff31ff"/>
                </g>
              </g>
            </g>
          </g>
        </g>
        <g id="Group_18" data-name="Group 18" transform="translate(17.797 53.678)">
          <g id="avax" transform="translate(0 0)">
            <path id="Path_178" data-name="Path 178" d="M17.724,0A17.568,17.568,0,0,1,35.449,17.408,17.568,17.568,0,0,1,17.724,34.816,17.568,17.568,0,0,1,0,17.408,17.568,17.568,0,0,1,17.724,0Z" transform="translate(0 0)" fill="none" stroke="#f0f" stroke-width="2"/>
            <path id="Path_161" data-name="Path 161" d="M55.722,45.639a1.165,1.165,0,0,1,2.206,0l3.8,6.674c.611,1.054.111,1.915-1.11,1.915H52.961c-1.207,0-1.707-.86-1.11-1.915ZM48.369,32.791a1.155,1.155,0,0,1,2.192,0l.846,1.526,2,3.51a3.647,3.647,0,0,1,0,3.177L46.7,52.618a3.524,3.524,0,0,1-2.747,1.609H38.393c-1.221,0-1.72-.846-1.11-1.915Z" transform="translate(-31.963 -27.809)" fill="#ff31ff" stroke="#f0f" stroke-width="1"/>
          </g>
        </g>
      </g>
    </g>
  </g>
</svg>
