<svg xmlns="http://www.w3.org/2000/svg" width="364" height="109.499" viewBox="0 0 364 109.499">
  <g id="Group_15" data-name="Group 15" transform="translate(-736.891 86.926)" opacity="0.86">
    <g id="Group_14" data-name="Group 14" transform="translate(745.127 -86.926)">
      <g id="Group_20" data-name="Group 20">
        <g id="Layer_2" data-name="Layer 2" transform="translate(144.941)">
          <g id="Layer_1" data-name="Layer 1" transform="translate(0 0)">
            <path id="Path_162" data-name="Path 162" d="M17.628,24.223l11.2-11.2,11.2,11.2,6.514-6.514L28.823,0,11.114,17.709l6.514,6.514M0,28.823l6.514-6.515,6.514,6.514L6.514,35.336Zm17.628,4.6,11.2,11.195,11.2-11.2,6.517,6.511,0,0L28.823,57.646,11.114,39.937l-.009-.009,6.523-6.505m26.99-4.6,6.514-6.514,6.514,6.514L51.132,35.34Z" fill="#864197"/>
            <path id="Path_163" data-name="Path 163" d="M976.41,969.8h0l-6.609-6.61-4.885,4.884h0l-.561.562-1.157,1.158-.009.009.009.01,6.6,6.6,6.61-6.61,0,0-.006,0" transform="translate(-940.98 -940.98)" fill="#864197"/>
          </g>
        </g>
        <text id="Binance_Smart_Chain" data-name="Binance Smart Chain" transform="translate(173.764 97.499)" fill="#864197" font-size="34" font-family="Poppins-Medium, Poppins" font-weight="500"><tspan x="-181.849" y="0">Binance Smart Chain</tspan></text>
      </g>
    </g>
  </g>
</svg>
